<svg xmlns="http://www.w3.org/2000/svg" width="13.546" height="14.315" viewBox="0 0 13.546 14.315">
  <g id="settingIcon" transform="translate(0.848 0.75)">
    <path id="Path_33946" d="M11.685,3.564l-.415-.72a1.275,1.275,0,0,0-1.739-.47h0a1.269,1.269,0,0,1-1.739-.452,1.22,1.22,0,0,1-.171-.61h0A1.275,1.275,0,0,0,6.346,0H5.51A1.269,1.269,0,0,0,4.241,1.275h0A1.275,1.275,0,0,1,2.965,2.532a1.22,1.22,0,0,1-.61-.171h0a1.275,1.275,0,0,0-1.739.47l-.445.732A1.275,1.275,0,0,0,.634,5.3h0a1.275,1.275,0,0,1,.638,1.1,1.275,1.275,0,0,1-.638,1.1h0A1.269,1.269,0,0,0,.171,9.245h0l.421.726a1.275,1.275,0,0,0,1.739.494h0a1.263,1.263,0,0,1,1.733.464,1.22,1.22,0,0,1,.171.61h0A1.275,1.275,0,0,0,5.51,12.815h.836a1.275,1.275,0,0,0,1.275-1.269h0A1.269,1.269,0,0,1,8.9,10.27a1.3,1.3,0,0,1,.61.171h0a1.275,1.275,0,0,0,1.739-.464h0l.439-.732a1.269,1.269,0,0,0-.464-1.739h0a1.269,1.269,0,0,1-.464-1.739,1.251,1.251,0,0,1,.464-.464h0a1.275,1.275,0,0,0,.464-1.733h0Z" transform="translate(0 0)" fill="none" stroke="#17c8af" stroke-linecap="round" stroke-linejoin="round" stroke-miterlimit="10" stroke-width="1.5"/>
    <circle id="Ellipse_737" cx="1.757" cy="1.757" r="1.757" transform="translate(4.174 4.65)" fill="none" stroke="#17c8af" stroke-linecap="round" stroke-linejoin="round" stroke-miterlimit="10" stroke-width="1.5"/>
  </g>
</svg>
