<svg id="bagIcon" xmlns="http://www.w3.org/2000/svg" width="26.402" height="28.774" viewBox="0 0 26.402 28.774">
  <path id="Bag" d="M7.571,28.774c-2.875,0-4.958-.753-6.192-2.238S-.263,22.811.164,19.872l1.058-8.445a6.89,6.89,0,0,1,1.86-3.78A4.633,4.633,0,0,1,6.361,6.3h0A7.13,7.13,0,0,1,8.337,2.051,6.734,6.734,0,0,1,13.185,0a6.915,6.915,0,0,1,6.8,6.3h.1c2.5,0,4.469,1.984,5.149,5.18l1.093,8.727a7.954,7.954,0,0,1-1.507,6.228,7.6,7.6,0,0,1-5.992,2.335ZM3.218,11.749,2.168,20.16c-.343,2.353-.095,4,.76,5.024s2.331,1.509,4.643,1.509H18.823a5.577,5.577,0,0,0,4.5-1.667c.928-1.109,1.247-2.753.95-4.887l-1.033-8.3c-.463-2.163-1.643-3.453-3.159-3.453H6.361C4.773,8.388,3.6,9.645,3.218,11.749ZM17.945,6.3A4.864,4.864,0,0,0,13.18,2.083,4.741,4.741,0,0,0,9.764,3.528,5.017,5.017,0,0,0,8.4,6.3Zm-.825,8.031a1.044,1.044,0,0,1-.137-2.074l.137-.009h.062a1.044,1.044,0,0,1,.137,2.074l-.137.009Zm-7.859,0a1.044,1.044,0,0,1-.138-2.074l.138-.009h.061a1.044,1.044,0,0,1,.138,2.074l-.138.009Z" fill="#f00"/>
</svg>
