<svg id="classIcon" xmlns="http://www.w3.org/2000/svg" width="33.391" height="26.869" viewBox="0 0 33.391 26.869">
  <g id="instructor">
    <path id="Path_786" data-name="Path 786" d="M30.456,50H2.935A2.938,2.938,0,0,0,0,52.935V67.8a2.938,2.938,0,0,0,2.935,2.935h1.3v4.174A1.959,1.959,0,0,0,6.2,76.869H13.63a1.959,1.959,0,0,0,1.956-1.956V70.739H30.456A2.938,2.938,0,0,0,33.391,67.8V52.935A2.938,2.938,0,0,0,30.456,50ZM13.63,74.913H6.2V69.239C6.2,67.155,7.586,65,9.913,65s3.717,2.155,3.717,4.239ZM7.239,60.369a2.674,2.674,0,1,1,2.674,2.674A2.677,2.677,0,0,1,7.239,60.369Zm24.2,7.435a.979.979,0,0,1-.978.978H15.569a6.656,6.656,0,0,0-1.476-3.756,5.637,5.637,0,0,0-1.22-1.1,4.63,4.63,0,1,0-5.921,0,5.636,5.636,0,0,0-1.22,1.1,6.656,6.656,0,0,0-1.476,3.756H2.935a.979.979,0,0,1-.978-.978V52.935a.979.979,0,0,1,.978-.978H30.456a.979.979,0,0,1,.978.978Z" transform="translate(0 -50)" fill="#f00"/>
    <path id="Path_787" data-name="Path 787" d="M344.983,130H338.26a1.01,1.01,0,1,0,0,1.956h6.723a1.01,1.01,0,1,0,0-1.956Z" transform="translate(-317.092 -123.864)" fill="#f00"/>
    <path id="Path_789" data-name="Path 789" d="M344.983,258H338.26a1.01,1.01,0,1,0,0,1.956h6.723a1.01,1.01,0,1,0,0-1.956Z" transform="translate(-317.092 -245.353)" fill="#f00"/>
  </g>
</svg>
