<svg xmlns="http://www.w3.org/2000/svg" width="30" height="30" viewBox="0 0 30 30">
  <g id="reportIcon" transform="translate(0 -0.077)">
    <path id="Activity" d="M8.181,30C3.34,30,.151,26.682.005,21.823L0,21.473V9.761C0,4.847,3.113,1.384,7.841,1.226l.34-.005H18.745a1.087,1.087,0,0,1,.149,2.164l-.149.009H8.181c-3.568,0-5.863,2.356-6,6.029l-.005.338V21.473c0,3.771,2.156,6.207,5.677,6.346l.324.007H20.688c3.571,0,5.863-2.346,6-6.017l.007-.336v-10.2a1.09,1.09,0,0,1,2.169-.147l.011.147v10.2c0,4.913-3.112,8.363-7.842,8.521l-.34.005ZM7.052,20.154l-.135-.088a1.086,1.086,0,0,1-.288-1.391l.089-.134,4.35-5.638a1.093,1.093,0,0,1,1.4-.282l.135.09,4.1,3.21,3.587-4.613a1.09,1.09,0,0,1,1.813,1.2l-.09.134L17.758,18.12a1.094,1.094,0,0,1-1.4.279l-.134-.09-4.1-3.209L8.447,19.867a1.093,1.093,0,0,1-1.395.288ZM22.232,3.872a3.884,3.884,0,1,1,3.884,3.872A3.883,3.883,0,0,1,22.232,3.872Zm2.18,0a1.7,1.7,0,1,0,1.7-1.7A1.7,1.7,0,0,0,24.412,3.872Z" transform="translate(0 0.077)" fill="#f00"/>
  </g>
</svg>
