<svg xmlns="http://www.w3.org/2000/svg" width="29" height="32" viewBox="0 0 29 32">
  <g id="timeTableIcon" transform="translate(0 -0.077)">
    <path id="Calendar" d="M8.211,32a8.319,8.319,0,0,1-6-2.166A8.171,8.171,0,0,1,0,23.847V10.377a7.972,7.972,0,0,1,2.21-5.9,8.056,8.056,0,0,1,5.175-2.1V1.116A1.115,1.115,0,0,1,9.6.965l.01.151V2.35H19.4V1.116A1.116,1.116,0,0,1,21.619.965l.01.151V2.378a8,8,0,0,1,5.234,2.158A7.974,7.974,0,0,1,29,10.377V23.959a8,8,0,0,1-2.207,5.907,8.389,8.389,0,0,1-6,2.134ZM2.23,23.847c0,3.819,2.124,5.921,5.981,5.921H20.789c3.856,0,5.98-2.062,5.98-5.809V13.252H2.23ZM26.768,11.02v-.647a5.754,5.754,0,0,0-1.485-4.262,5.654,5.654,0,0,0-3.654-1.5v1.4a1.116,1.116,0,0,1-2.221.151l-.01-.151V4.582H9.615V6.015a1.115,1.115,0,0,1-2.22.151l-.01-.151v-1.4c-3.333.28-5.155,2.3-5.155,5.761v.644ZM19.991,23.734a1.115,1.115,0,0,1,.964-1.106l.164-.01a1.116,1.116,0,0,1,.152,2.222l-.152.01A1.118,1.118,0,0,1,19.991,23.734Zm-6.6,0a1.116,1.116,0,0,1,.964-1.106l.165-.01a1.116,1.116,0,0,1,.152,2.222l-.152.01A1.119,1.119,0,0,1,13.391,23.734Zm-6.612,0a1.115,1.115,0,0,1,.964-1.106l.164-.01a1.116,1.116,0,0,1,.152,2.222l-.165.01A1.115,1.115,0,0,1,6.779,23.734ZM19.991,17.95a1.115,1.115,0,0,1,.964-1.106l.164-.01a1.116,1.116,0,0,1,.152,2.222l-.152.01A1.118,1.118,0,0,1,19.991,17.95Zm-6.6,0a1.116,1.116,0,0,1,.964-1.106l.165-.01a1.116,1.116,0,0,1,.152,2.222l-.152.01A1.119,1.119,0,0,1,13.391,17.95Zm-6.612,0a1.115,1.115,0,0,1,.964-1.106l.164-.01a1.116,1.116,0,0,1,.152,2.222l-.165.01A1.115,1.115,0,0,1,6.779,17.95Z" transform="translate(0 0.077)" fill="#f00"/>
  </g>
</svg>
