<svg xmlns="http://www.w3.org/2000/svg" width="18.294" height="21.77" viewBox="0 0 18.294 21.77">
  <path id="Icon_awesome-apple" data-name="Icon awesome-apple" d="M15.577,13.754a4.537,4.537,0,0,1,2.43-4.122A5.222,5.222,0,0,0,13.89,7.465c-1.725-.136-3.611,1.006-4.3,1.006-.729,0-2.4-.957-3.713-.957C3.163,7.557.281,9.677.281,13.988a12.114,12.114,0,0,0,.7,3.947c.622,1.784,2.868,6.158,5.21,6.085,1.225-.029,2.09-.87,3.684-.87,1.546,0,2.348.87,3.713.87,2.362-.034,4.394-4.01,4.987-5.8a4.818,4.818,0,0,1-3-4.467ZM12.826,5.774A4.578,4.578,0,0,0,13.992,2.25a5.154,5.154,0,0,0-3.3,1.7A4.649,4.649,0,0,0,9.448,7.441,4.082,4.082,0,0,0,12.826,5.774Z" transform="translate(-0.281 -2.25)" fill="#424242"/>
</svg>
