<svg id="facebook" xmlns="http://www.w3.org/2000/svg" width="19.169" height="19.169" viewBox="0 0 19.169 19.169">
  <path id="Path_8451" data-name="Path 8451" d="M16.773,0H2.4A2.4,2.4,0,0,0,0,2.4V16.773a2.4,2.4,0,0,0,2.4,2.4H16.773a2.4,2.4,0,0,0,2.4-2.4V2.4A2.4,2.4,0,0,0,16.773,0Z" fill="#1976d2"/>
  <path id="Path_8452" data-name="Path 8452" d="M200.985,101.99h-3v-2.4c0-.661.537-.6,1.2-.6h1.2V96h-2.4a3.594,3.594,0,0,0-3.594,3.594v2.4H192v3h2.4v6.589h3.594v-6.589h1.8Z" transform="translate(-184.812 -92.406)" fill="#fafafa"/>
</svg>
