<svg id="search" xmlns="http://www.w3.org/2000/svg" width="19.852" height="19.852" viewBox="0 0 19.852 19.852">
  <path id="Path_8807" data-name="Path 8807" d="M4.4,144.9l-.691,2.58-2.526.053a9.943,9.943,0,0,1-.073-9.269h0l2.249.412.985,2.235A5.924,5.924,0,0,0,4.4,144.9Z" transform="translate(0 -132.907)" fill="#fbbb00"/>
  <path id="Path_8808" data-name="Path 8808" d="M271.162,208.176a9.922,9.922,0,0,1-3.538,9.595h0l-2.832-.145-.4-2.5a5.916,5.916,0,0,0,2.545-3.021h-5.308v-3.927h9.534Z" transform="translate(-251.484 -200.104)" fill="#518ef8"/>
  <path id="Path_8809" data-name="Path 8809" d="M45.466,315.078h0a9.929,9.929,0,0,1-14.957-3.037l3.217-2.633a5.9,5.9,0,0,0,8.507,3.022Z" transform="translate(-29.326 -297.412)" fill="#28b446"/>
  <path id="Path_8810" data-name="Path 8810" d="M43.776,2.285,40.56,4.918a5.9,5.9,0,0,0-8.7,3.091L28.625,5.361h0A9.928,9.928,0,0,1,43.776,2.285Z" transform="translate(-27.514)" fill="#f14336"/>
</svg>
