<svg id="Group_8895" data-name="Group 8895" xmlns="http://www.w3.org/2000/svg" xmlns:xlink="http://www.w3.org/1999/xlink" width="339.457" height="179.1" viewBox="0 0 339.457 179.1">
  <defs>
    <clipPath id="clip-path">
      <rect id="Rectangle_3032" data-name="Rectangle 3032" width="339.457" height="179.1" fill="none"/>
    </clipPath>
    <clipPath id="clip-path-3">
      <rect id="Rectangle_3011" data-name="Rectangle 3011" width="41.918" height="58.206" fill="none"/>
    </clipPath>
    <clipPath id="clip-path-4">
      <rect id="Rectangle_3012" data-name="Rectangle 3012" width="96.54" height="56.222" fill="none"/>
    </clipPath>
    <clipPath id="clip-path-5">
      <rect id="Rectangle_3015" data-name="Rectangle 3015" width="32.12" height="39.407" fill="none"/>
    </clipPath>
    <clipPath id="clip-path-6">
      <rect id="Rectangle_3013" data-name="Rectangle 3013" width="16.979" height="33.537" fill="none"/>
    </clipPath>
    <clipPath id="clip-path-7">
      <rect id="Rectangle_3014" data-name="Rectangle 3014" width="32.12" height="37.35" fill="none"/>
    </clipPath>
    <clipPath id="clip-path-8">
      <rect id="Rectangle_3016" data-name="Rectangle 3016" width="22.456" height="20.013" fill="none"/>
    </clipPath>
    <clipPath id="clip-path-14">
      <rect id="Rectangle_3022" data-name="Rectangle 3022" width="22.457" height="20.013" fill="none"/>
    </clipPath>
    <clipPath id="clip-path-19">
      <rect id="Rectangle_3030" data-name="Rectangle 3030" width="14.019" height="5.313" fill="none"/>
    </clipPath>
  </defs>
  <g id="Group_8894" data-name="Group 8894" clip-path="url(#clip-path)">
    <g id="Group_8893" data-name="Group 8893" transform="translate(0 -0.001)">
      <g id="Group_8892" data-name="Group 8892" clip-path="url(#clip-path)">
        <path id="Path_15116" data-name="Path 15116" d="M344.668,178.8c-19.4,0-302.039.059-302.2-.369l-.028-.054a.259.259,0,0,1-.028-.079C42.3,178.08-1.138,118.076,66.4,76.305c26.424-16.344-1.653-27.133,19.358-45.328,24.148-20.909,50.5,2.222,77.353-7.26a44,44,0,0,0,14.271-8.5,52.129,52.129,0,0,1,8.77-6.113q.724-.405,1.462-.79a62.744,62.744,0,0,1,5.851-2.666q2.028-.8,4.133-1.485h0q3.34-1.083,6.849-1.872A90.737,90.737,0,0,1,214.66.607q2.279-.249,4.594-.393c30-1.893,63.768,8.758,81.193,24.325,3.508,3.135,19.461,19.355,6.886,41.65-7.94,14.076,25.321,27.52,37.14,43.594,30.05,40.867.468,68.481.2,69.013" transform="translate(-24.924 0.004)" fill="#ebf3fa"/>
        <path id="Path_15117" data-name="Path 15117" d="M437.942,1123.053s1.707-9.293-5.572-10.33c0,0-4.926-.085-7.792,1.822,0,0,8.316,4.608,7.363,6.1s-8.9-5.8-8.9-5.8-8.758,4.02-10.678,6.854c0,0,10.461,1.676,9.17,2.889s-12.258-.024-12.258-.024-6.952,5.8-3.8,10.27,6.655,4.374,7.75,3.568,6.412-7.392,7.118-6.521-1.588,6.394-4.384,8.217c0,0,8.93,2.833,11.538-1s1.319-6.759,2.974-9.1,3.58-3.458,3.26-1.866-3.8,4.985-3.767,8.014-.224,5.24,3.189,2.5,7.9-9.014,6.343-12.3Z" transform="translate(-353.14 -971.063)" fill="#82b378"/>
        <path id="Path_15118" data-name="Path 15118" d="M441.451,1199.892s20.486-13,28.6-9.7a17.536,17.536,0,0,0,7.581,3.428l1.269,1.052s-5.859-1.716-7.293-1.191c0,0-2.288-8.607-30.158,6.412" transform="translate(-385.251 -1038.2)" fill="#82b378"/>
        <path id="Path_15119" data-name="Path 15119" d="M715.588,1220.786a15.225,15.225,0,0,1,10.2,6.471l-.774.548s-5.013-5.31-9.008-6.2-.423-.817-.423-.817" transform="translate(-623.206 -1065.368)" fill="#82b378"/>
        <g id="Group_8843" data-name="Group 8843" transform="translate(56.976 39.863)" opacity="0.5">
          <g id="Group_8842" data-name="Group 8842">
            <g id="Group_8841" data-name="Group 8841" clip-path="url(#clip-path-3)">
              <path id="Path_15120" data-name="Path 15120" d="M482.591,326.239s-.5,11.865-2.7,11.635,1.51-13.181,1.51-13.181-9.385-7.536-13.625-8.1c0,0,3.975,12.622,1.9,11.858s-6.825-13.707-6.825-13.707-10.367-4.522-13.6,1.494-1.166,9.878.346,10.652,11.841,3.032,11.263,4.307-8.03,1.8-11.629-.3c0,0,1.826,11.559,7.567,12.329s8.287-2.3,11.827-1.764,5.863,2.066,3.907,2.6-7.694-1.464-11.057.272-5.978,2.679-1.011,4.96,14.485,3.787,17.289.209l.351-.447a2.178,2.178,0,0,1-.351.447c.832.785,1.653,3.8,2.178,6.083.061.383.175.919.358,1.653.067.328.119.6.155.784.77,5.027-2.048,12.745-2.048,12.745l1.045.558a19.017,19.017,0,0,0,1.525-15.016,21.9,21.9,0,0,1-.408-10.384s11.335-3.288,8.424-12c0,0-2.658-5.551-6.39-7.686" transform="translate(-447.542 -313.117)" fill="#aec3ff"/>
            </g>
          </g>
        </g>
        <g id="Group_8846" data-name="Group 8846" transform="translate(210 110.474)" opacity="0.5">
          <g id="Group_8845" data-name="Group 8845">
            <g id="Group_8844" data-name="Group 8844" clip-path="url(#clip-path-4)">
              <path id="Path_15121" data-name="Path 15121" d="M1712.729,873.081s-16.794,6.679-15.358,9.727,18.177-8.791,18.177-8.791,15.541,9.7,18.477,15.505c0,0-20.13.63-17.989,3.231s23.12,2.918,23.12,2.918,11.7,12.622,4.684,20.284-13.6,6.638-15.476,4.855-10.3-15.488-11.845-14.016,1.448,12.44,6.279,16.553c0,0-17.524,3.184-21.513-4.678s-.854-13.063-3.407-17.877-5.914-7.385-5.7-4.307,5.968,10.319,5.164,16.022-.845,9.934-6.617,3.944-12.716-18.906-8.986-24.732l.467-.729a3.3,3.3,0,0,0-.467.729c-1.545-.8-6.285-.468-9.833-.073-.58.1-1.408.21-2.555.316h0c-.505.069-.917.128-1.2.171-7.609,1.419-17.281,9.346-17.281,9.346l-1.326-1.221c8.5-9.953,20.806-9.734,20.806-9.734a33.335,33.335,0,0,0,15.123-4.631s-.971-17.936,13-18.13c0,0,9.309,1.03,14.252,5.319" transform="translate(-1649.543 -867.762)" fill="#8cacf4"/>
            </g>
          </g>
        </g>
        <path id="Path_15122" data-name="Path 15122" d="M672.423,413.668H803.9L815.849,269.79l-138.894.127c-1.2,0-6.586-.127-6.886,4.794l-5.4,128.046c-.209,5.941,3.325,10.911,7.757,10.911" transform="translate(-580.041 -235.443)" fill="#6c7aff"/>
        <g id="Group_8855" data-name="Group 8855" transform="translate(186.828 11.229)" opacity="0.5">
          <g id="Group_8854" data-name="Group 8854">
            <g id="Group_8853" data-name="Group 8853" clip-path="url(#clip-path-5)">
              <g id="Group_8849" data-name="Group 8849" transform="translate(1.277)" opacity="0.5">
                <g id="Group_8848" data-name="Group 8848">
                  <g id="Group_8847" data-name="Group 8847" clip-path="url(#clip-path-6)">
                    <path id="Path_15123" data-name="Path 15123" d="M1477.562,121.737s2.448-20.5,12.954-32.74a2.293,2.293,0,0,1,4.024,1.552c0,.036,0,.072,0,.108-.136,3.658-11.9,19.086-16.975,31.08" transform="translate(-1477.562 -88.2)" fill="#aec3ff"/>
                  </g>
                </g>
              </g>
              <g id="Group_8852" data-name="Group 8852" transform="translate(0 2.057)" opacity="0.5">
                <g id="Group_8851" data-name="Group 8851">
                  <g id="Group_8850" data-name="Group 8850" clip-path="url(#clip-path-7)">
                    <path id="Path_15124" data-name="Path 15124" d="M1467.532,141.711s10.469-25.628,28.352-36.962a2.432,2.432,0,0,1,3.3.624,3.859,3.859,0,0,1,.156,3.466c-1.425,4.508-21.369,19.681-31.806,32.873" transform="translate(-1467.532 -104.361)" fill="#aec3ff"/>
                  </g>
                </g>
              </g>
            </g>
          </g>
        </g>
        <path id="Path_15125" data-name="Path 15125" d="M310.192,794.463s12.894-7.221,6.877-17.021c0,0-4.814-6.017-9.972-7.565,0,0,2.751,14.614,0,14.957s-1.891-16.5-1.891-16.5-13.582-6.533-18.912-6.017c0,0,8.424,14.27,5.673,13.926s-12.207-14.786-12.207-14.786-13.926-2.579-16.161,5.673,1.375,12.379,3.438,12.894,15.3.344,14.957,2.063-9.284,4.47-14.27,2.923c0,0,5.5,13.582,12.722,12.894s9.456-5.158,13.926-5.5,7.737.86,5.5,2.063-9.8.394-13.41,3.464-6.533,4.961.172,6.336,18.74.516,21.147-4.642Z" transform="translate(-229.426 -664.18)" fill="#a8d29f"/>
        <path id="Path_15126" data-name="Path 15126" d="M318.4,828.89s36.1,11.691,40.23,24.757a27.426,27.426,0,0,0,3.438,12.55v2.579s-3.782-8.768-5.845-9.972c0,0,8.08-11.347-37.823-29.915" transform="translate(-277.866 -723.365)" fill="#82b378"/>
        <path id="Path_15127" data-name="Path 15127" d="M649.593,1110.938a23.813,23.813,0,0,1,2.394,18.747l-1.432-.385s1.391-11.336-1.523-17.038.561-1.325.561-1.325" transform="translate(-565.389 -968.106)" fill="#82b378"/>
        <path id="Path_15128" data-name="Path 15128" d="M913.1,413.58l-139.6.129c-2.606,0-4.915-2.4-5.384-5.592L752.327,300.6l-.963-6.561-2.484-16.928c-.561-3.817,1.694-7.191,4.805-7.195l139.6-.127c2.607,0,4.915,2.394,5.384,5.592l2.739,18.657.943,6.424L917.9,406.386c.561,3.817-1.693,7.192-4.805,7.195" transform="translate(-653.466 -235.444)" fill="#ccdbfd"/>
        <path id="Path_15129" data-name="Path 15129" d="M901.41,294.04H751.364l-2.484-16.928c-.561-3.817,1.694-7.191,4.805-7.195l139.6-.127c2.607,0,4.915,2.394,5.384,5.592Z" transform="translate(-653.466 -235.443)" fill="#739af0"/>
        <path id="Path_15130" data-name="Path 15130" d="M1427.651,382.435a2.613,2.613,0,0,1,2.753-3.2,4.06,4.06,0,0,1,2.7.955l-.584.8a3.124,3.124,0,0,0-1.942-.763,1.735,1.735,0,0,0-1.734,2.2,2.646,2.646,0,0,0,2.521,2.19,2.136,2.136,0,0,0,1.707-.807l.854.7a2.823,2.823,0,0,1-2.42,1.1,3.946,3.946,0,0,1-3.85-3.184" transform="translate(-1245.853 -330.954)" fill="#f0f5ff"/>
        <path id="Path_15131" data-name="Path 15131" d="M1485.027,382.284a2.646,2.646,0,0,1,2.808-3.2,3.983,3.983,0,0,1,3.932,3.184,2.646,2.646,0,0,1-2.808,3.2,3.983,3.983,0,0,1-3.933-3.184m5.553-.014a2.683,2.683,0,0,0-2.585-2.19,1.747,1.747,0,0,0-1.78,2.2,2.683,2.683,0,0,0,2.585,2.19,1.747,1.747,0,0,0,1.78-2.2" transform="translate(-1295.926 -330.822)" fill="#f0f5ff"/>
        <path id="Path_15132" data-name="Path 15132" d="M1550.186,379.7l1.05,0,4.217,4.259-.764-4.268,1.114,0,1.105,6.174-.948,0-4.341-4.383.786,4.392-1.114,0Z" transform="translate(-1352.835 -331.351)" fill="#f0f5ff"/>
        <path id="Path_15133" data-name="Path 15133" d="M1611.363,380.557l-2.044.005-.18-1.005,5.23-.014.18,1.005-2.044.005.925,5.168-1.142,0Z" transform="translate(-1404.282 -331.224)" fill="#f0f5ff"/>
        <path id="Path_15134" data-name="Path 15134" d="M1665.053,379.419l4.779-.012.174.97-3.646.01.287,1.6,3.232-.008.174.97-3.232.008.3,1.658,3.693-.01.174.97-4.825.013Z" transform="translate(-1453.078 -331.105)" fill="#f0f5ff"/>
        <path id="Path_15135" data-name="Path 15135" d="M1718.945,379.264l1.05,0,4.217,4.259-.764-4.268,1.114,0,1.105,6.174-.948,0-4.341-4.383.786,4.392-1.114,0Z" transform="translate(-1500.109 -330.967)" fill="#f0f5ff"/>
        <path id="Path_15136" data-name="Path 15136" d="M1780.122,380.117l-2.044.005-.18-1.005,5.231-.014.18,1.005-2.044.005.925,5.168-1.142,0Z" transform="translate(-1551.557 -330.84)" fill="#f0f5ff"/>
        <g id="Group_8858" data-name="Group 8858" transform="translate(125.647 135.838)" opacity="0.3">
          <g id="Group_8857" data-name="Group 8857">
            <g id="Group_8856" data-name="Group 8856" clip-path="url(#clip-path-8)">
              <path id="Path_15137" data-name="Path 15137" d="M1007.41,1087.013H992.056a2.824,2.824,0,0,1-2.692-2.33l-2.387-15.354a1.945,1.945,0,0,1,1.967-2.33H1004.3a2.824,2.824,0,0,1,2.692,2.33l2.387,15.354a1.945,1.945,0,0,1-1.967,2.33" transform="translate(-986.95 -1067)" fill="#739af0"/>
            </g>
          </g>
        </g>
        <g id="Group_8861" data-name="Group 8861" transform="translate(151.394 135.838)" opacity="0.3">
          <g id="Group_8860" data-name="Group 8860">
            <g id="Group_8859" data-name="Group 8859" clip-path="url(#clip-path-8)">
              <path id="Path_15138" data-name="Path 15138" d="M1209.653,1087.013H1194.3a2.824,2.824,0,0,1-2.692-2.33l-2.387-15.354a1.945,1.945,0,0,1,1.968-2.33h15.354a2.824,2.824,0,0,1,2.692,2.33l2.387,15.354a1.945,1.945,0,0,1-1.967,2.33" transform="translate(-1189.192 -1067)" fill="#739af0"/>
            </g>
          </g>
        </g>
        <g id="Group_8864" data-name="Group 8864" transform="translate(121.23 107.015)" opacity="0.3">
          <g id="Group_8863" data-name="Group 8863">
            <g id="Group_8862" data-name="Group 8862" clip-path="url(#clip-path-8)">
              <path id="Path_15139" data-name="Path 15139" d="M972.72,860.61H957.366a2.824,2.824,0,0,1-2.692-2.329l-2.387-15.354a1.945,1.945,0,0,1,1.967-2.329h15.354a2.824,2.824,0,0,1,2.692,2.329l2.387,15.354a1.945,1.945,0,0,1-1.967,2.329" transform="translate(-952.259 -840.597)" fill="#739af0"/>
            </g>
          </g>
        </g>
        <path id="Path_15140" data-name="Path 15140" d="M997.188,865.628l4.672.624-2.729,3.157,1.579,4.431-4.452-2.073-3.7,2.114-.023-4.438-3.863-3.124,4.438-.67,1.308-4.045Z" transform="translate(-862.81 -751.914)" fill="#f77d48"/>
        <g id="Group_8867" data-name="Group 8867" transform="translate(219.804 79.019)" opacity="0.3">
          <g id="Group_8866" data-name="Group 8866">
            <g id="Group_8865" data-name="Group 8865" clip-path="url(#clip-path-8)">
              <path id="Path_15141" data-name="Path 15141" d="M1747.007,640.7h-15.354a2.824,2.824,0,0,1-2.692-2.329l-2.387-15.354a1.945,1.945,0,0,1,1.968-2.33H1743.9a2.824,2.824,0,0,1,2.692,2.33l2.387,15.354a1.945,1.945,0,0,1-1.967,2.329" transform="translate(-1726.547 -620.688)" fill="#739af0"/>
            </g>
          </g>
        </g>
        <path id="Path_15142" data-name="Path 15142" d="M1024.031,1126.976l3.525-9.006,4.641,5,1.523-2.005,5.034,5.995Z" transform="translate(-893.663 -975.643)" fill="#6c7aff"/>
        <path id="Path_15143" data-name="Path 15143" d="M1068.923,1098.942a1.068,1.068,0,0,1,1.095-1.293,1.625,1.625,0,0,1,1.55,1.291,1.068,1.068,0,0,1-1.095,1.293,1.625,1.625,0,0,1-1.551-1.291" transform="translate(-932.823 -957.909)" fill="#6c7aff"/>
        <g id="Group_8870" data-name="Group 8870" transform="translate(177.142 135.838)" opacity="0.3">
          <g id="Group_8869" data-name="Group 8869">
            <g id="Group_8868" data-name="Group 8868" clip-path="url(#clip-path-8)">
              <path id="Path_15144" data-name="Path 15144" d="M1411.9,1087.013h-15.354a2.824,2.824,0,0,1-2.692-2.33l-2.387-15.354a1.945,1.945,0,0,1,1.967-2.33h15.354a2.824,2.824,0,0,1,2.692,2.33l2.387,15.354a1.945,1.945,0,0,1-1.967,2.33" transform="translate(-1391.438 -1067)" fill="#739af0"/>
            </g>
          </g>
        </g>
        <path id="Path_15145" data-name="Path 15145" d="M1429.208,1126.976l3.525-9.006,4.641,5,1.523-2.005,5.034,5.995Z" transform="translate(-1247.258 -975.643)" fill="#6c7aff"/>
        <path id="Path_15146" data-name="Path 15146" d="M1474.1,1098.942a1.068,1.068,0,0,1,1.095-1.293,1.626,1.626,0,0,1,1.551,1.291,1.068,1.068,0,0,1-1.095,1.293,1.626,1.626,0,0,1-1.551-1.291" transform="translate(-1286.418 -957.909)" fill="#6c7aff"/>
        <g id="Group_8873" data-name="Group 8873" transform="translate(198.472 107.015)" opacity="0.3">
          <g id="Group_8872" data-name="Group 8872">
            <g id="Group_8871" data-name="Group 8871" clip-path="url(#clip-path-8)">
              <path id="Path_15147" data-name="Path 15147" d="M1579.452,860.61H1564.1a2.824,2.824,0,0,1-2.692-2.329l-2.387-15.354a1.945,1.945,0,0,1,1.967-2.329h15.354a2.824,2.824,0,0,1,2.692,2.329l2.387,15.354a1.945,1.945,0,0,1-1.967,2.329" transform="translate(-1558.991 -840.597)" fill="#739af0"/>
            </g>
          </g>
        </g>
        <path id="Path_15148" data-name="Path 15148" d="M1591.226,893.619l3.524-9.006,4.641,5,1.523-2.005,5.034,5.995Z" transform="translate(-1388.65 -771.994)" fill="#6c7aff"/>
        <path id="Path_15149" data-name="Path 15149" d="M1636.117,865.585a1.068,1.068,0,0,1,1.1-1.293,1.625,1.625,0,0,1,1.55,1.291,1.068,1.068,0,0,1-1.095,1.293,1.626,1.626,0,0,1-1.551-1.291" transform="translate(-1427.809 -754.26)" fill="#6c7aff"/>
        <g id="Group_8876" data-name="Group 8876" transform="translate(142.561 79.019)" opacity="0.3">
          <g id="Group_8875" data-name="Group 8875">
            <g id="Group_8874" data-name="Group 8874" clip-path="url(#clip-path-14)">
              <path id="Path_15150" data-name="Path 15150" d="M1140.275,640.7h-15.354a2.824,2.824,0,0,1-2.692-2.329l-2.387-15.354a1.945,1.945,0,0,1,1.967-2.33h15.354a2.824,2.824,0,0,1,2.692,2.33l2.387,15.354a1.945,1.945,0,0,1-1.967,2.329" transform="translate(-1119.814 -620.688)" fill="#739af0"/>
            </g>
          </g>
        </g>
        <path id="Path_15151" data-name="Path 15151" d="M1169.362,652.687l2.092,11.865,8.186-5.94Z" transform="translate(-1020.493 -569.594)" fill="#f77d48"/>
        <path id="Path_15152" data-name="Path 15152" d="M1377.208,860.61h-15.354a2.824,2.824,0,0,1-2.692-2.329l-2.387-15.354a1.945,1.945,0,0,1,1.967-2.329H1374.1a2.824,2.824,0,0,1,2.692,2.329l2.387,15.354a1.945,1.945,0,0,1-1.967,2.329" transform="translate(-1184.022 -733.582)" fill="#f77d48"/>
        <path id="Path_15153" data-name="Path 15153" d="M1410.253,872.594l2.092,11.865,8.186-5.94Z" transform="translate(-1230.717 -761.505)" fill="#ffe6c2"/>
        <g id="Group_8879" data-name="Group 8879" transform="translate(224.22 107.015)" opacity="0.3">
          <g id="Group_8878" data-name="Group 8878">
            <g id="Group_8877" data-name="Group 8877" clip-path="url(#clip-path-8)">
              <path id="Path_15154" data-name="Path 15154" d="M1781.7,860.61h-15.354a2.824,2.824,0,0,1-2.692-2.329l-2.386-15.354a1.945,1.945,0,0,1,1.967-2.329h15.354a2.824,2.824,0,0,1,2.692,2.329l2.387,15.354a1.945,1.945,0,0,1-1.967,2.329" transform="translate(-1761.237 -840.597)" fill="#739af0"/>
            </g>
          </g>
        </g>
        <g id="Group_8882" data-name="Group 8882" transform="translate(202.888 135.838)" opacity="0.3">
          <g id="Group_8881" data-name="Group 8881">
            <g id="Group_8880" data-name="Group 8880" clip-path="url(#clip-path-8)">
              <path id="Path_15155" data-name="Path 15155" d="M1614.142,1087.013h-15.354a2.824,2.824,0,0,1-2.692-2.33l-2.387-15.354a1.945,1.945,0,0,1,1.967-2.33h15.354a2.824,2.824,0,0,1,2.692,2.33l2.387,15.354a1.945,1.945,0,0,1-1.967,2.33" transform="translate(-1593.681 -1067)" fill="#739af0"/>
            </g>
          </g>
        </g>
        <g id="Group_8885" data-name="Group 8885" transform="translate(168.309 79.019)" opacity="0.3">
          <g id="Group_8884" data-name="Group 8884">
            <g id="Group_8883" data-name="Group 8883" clip-path="url(#clip-path-8)">
              <path id="Path_15156" data-name="Path 15156" d="M1342.519,640.7h-15.354a2.824,2.824,0,0,1-2.692-2.329l-2.387-15.354a1.945,1.945,0,0,1,1.967-2.33h15.354a2.824,2.824,0,0,1,2.692,2.33l2.387,15.354a1.945,1.945,0,0,1-1.968,2.329" transform="translate(-1322.059 -620.688)" fill="#739af0"/>
            </g>
          </g>
        </g>
        <path id="Path_15157" data-name="Path 15157" d="M1374.243,671.885l-10.224.008a.414.414,0,1,1,0-.829l10.224-.008a.414.414,0,1,1,0,.829" transform="translate(-1190.006 -585.625)" fill="#6c7aff"/>
        <path id="Path_15158" data-name="Path 15158" d="M1377.482,690.26l-10.224.008a.414.414,0,1,1,0-.829l10.224-.008a.414.414,0,1,1,0,.829" transform="translate(-1192.833 -601.66)" fill="#6c7aff"/>
        <path id="Path_15159" data-name="Path 15159" d="M1380.722,708.634l-10.224.008a.414.414,0,1,1,0-.829l10.224-.008a.414.414,0,0,1,0,.829" transform="translate(-1195.66 -617.695)" fill="#6c7aff"/>
        <path id="Path_15160" data-name="Path 15160" d="M1813.42,891.792l-10.224.008a.414.414,0,1,1,0-.829l10.224-.008a.414.414,0,0,1,0,.829" transform="translate(-1573.272 -777.536)" fill="#6c7aff"/>
        <path id="Path_15161" data-name="Path 15161" d="M1816.659,910.166l-10.224.008a.414.414,0,0,1,0-.829l10.224-.008a.414.414,0,1,1,0,.829" transform="translate(-1576.099 -793.57)" fill="#6c7aff"/>
        <path id="Path_15162" data-name="Path 15162" d="M1819.9,928.541l-10.224.008a.414.414,0,1,1,0-.829l10.224-.008a.414.414,0,0,1,0,.829" transform="translate(-1578.927 -809.606)" fill="#6c7aff"/>
        <path id="Path_15163" data-name="Path 15163" d="M1241.377,1124.767l-10.224.008a.414.414,0,1,1,0-.828l10.224-.008a.414.414,0,1,1,0,.829" transform="translate(-1074.055 -980.851)" fill="#6c7aff"/>
        <path id="Path_15164" data-name="Path 15164" d="M1244.617,1143.142l-10.224.008a.414.414,0,1,1,0-.829l10.224-.008a.414.414,0,0,1,0,.829" transform="translate(-1076.882 -996.887)" fill="#6c7aff"/>
        <path id="Path_15165" data-name="Path 15165" d="M1247.856,1161.517l-10.224.008a.414.414,0,1,1,0-.828l10.224-.008a.414.414,0,0,1,0,.829" transform="translate(-1079.71 -1012.922)" fill="#6c7aff"/>
        <path id="Path_15166" data-name="Path 15166" d="M1645.865,1124.767l-10.224.008a.414.414,0,1,1,0-.828l10.224-.008a.414.414,0,0,1,0,.829" transform="translate(-1427.048 -980.851)" fill="#6c7aff"/>
        <path id="Path_15167" data-name="Path 15167" d="M1649.1,1143.142l-10.224.008a.414.414,0,1,1,0-.829l10.224-.008a.414.414,0,0,1,0,.829" transform="translate(-1429.876 -996.887)" fill="#6c7aff"/>
        <path id="Path_15168" data-name="Path 15168" d="M1652.344,1161.517l-10.224.008a.414.414,0,1,1,0-.828l10.224-.008a.414.414,0,1,1,0,.829" transform="translate(-1432.703 -1012.922)" fill="#6c7aff"/>
        <g id="Group_8888" data-name="Group 8888" transform="translate(146.977 107.015)" opacity="0.3">
          <g id="Group_8887" data-name="Group 8887">
            <g id="Group_8886" data-name="Group 8886" clip-path="url(#clip-path-8)">
              <path id="Path_15169" data-name="Path 15169" d="M1174.964,860.61H1159.61a2.824,2.824,0,0,1-2.692-2.329l-2.387-15.354a1.945,1.945,0,0,1,1.967-2.329h15.354a2.824,2.824,0,0,1,2.692,2.329l2.387,15.354a1.945,1.945,0,0,1-1.967,2.329" transform="translate(-1154.503 -840.597)" fill="#739af0"/>
            </g>
          </g>
        </g>
        <path id="Path_15170" data-name="Path 15170" d="M1197.5,876.877h-.043a1.093,1.093,0,0,1-.778-.429,35.077,35.077,0,0,0-5.888-6.071c-.342-.278-.441-.682-.222-.9a.8.8,0,0,1,1.016.106,37.954,37.954,0,0,1,5.17,5.084,20.53,20.53,0,0,1,5.646-10.442.8.8,0,0,1,1.017.109c.341.279.439.683.218.9a19.82,19.82,0,0,0-5.65,11.279.449.449,0,0,1-.488.364" transform="translate(-1038.9 -754.08)" fill="#f77d48"/>
        <path id="Path_15171" data-name="Path 15171" d="M916.848,538.38H901.6a2.145,2.145,0,0,1-2.021-1.672,1.346,1.346,0,0,1,1.369-1.672H916.2a2.145,2.145,0,0,1,2.02,1.672,1.346,1.346,0,0,1-1.369,1.672" transform="translate(-785.025 -466.922)" fill="#f99746"/>
        <path id="Path_15172" data-name="Path 15172" d="M1113.147,538.38H1097.9a2.145,2.145,0,0,1-2.021-1.672,1.346,1.346,0,0,1,1.369-1.672H1112.5a2.145,2.145,0,0,1,2.021,1.672,1.346,1.346,0,0,1-1.369,1.672" transform="translate(-956.334 -466.922)" fill="#f99746"/>
        <path id="Path_15173" data-name="Path 15173" d="M1325.863,538.38h-15.252a2.145,2.145,0,0,1-2.02-1.672,1.346,1.346,0,0,1,1.369-1.672h15.251a2.145,2.145,0,0,1,2.021,1.672,1.346,1.346,0,0,1-1.369,1.672" transform="translate(-1141.969 -466.922)" fill="#f99746"/>
        <path id="Path_15174" data-name="Path 15174" d="M1529.72,538.38h-15.251a2.145,2.145,0,0,1-2.021-1.672,1.346,1.346,0,0,1,1.369-1.672h15.252a2.145,2.145,0,0,1,2.021,1.672,1.346,1.346,0,0,1-1.369,1.672" transform="translate(-1319.874 -466.922)" fill="#f99746"/>
        <path id="Path_15175" data-name="Path 15175" d="M1733.792,538.38h-15.251a2.145,2.145,0,0,1-2.021-1.672,1.346,1.346,0,0,1,1.369-1.672h15.251a2.145,2.145,0,0,1,2.021,1.672,1.346,1.346,0,0,1-1.369,1.672" transform="translate(-1497.965 -466.922)" fill="#f99746"/>
        <path id="Path_15176" data-name="Path 15176" d="M1544.763,640.7h-15.354a2.824,2.824,0,0,1-2.692-2.329l-2.387-15.354a1.945,1.945,0,0,1,1.967-2.33h15.353a2.824,2.824,0,0,1,2.692,2.33l2.387,15.354a1.945,1.945,0,0,1-1.968,2.329" transform="translate(-1330.246 -541.669)" fill="#f77d48"/>
        <path id="Path_15177" data-name="Path 15177" d="M1567.3,657.567h-.043a1.093,1.093,0,0,1-.777-.429,35.079,35.079,0,0,0-5.888-6.071c-.342-.278-.441-.682-.222-.9a.8.8,0,0,1,1.016.106,37.947,37.947,0,0,1,5.17,5.084,20.529,20.529,0,0,1,5.646-10.442.8.8,0,0,1,1.017.109c.341.279.439.683.218.9a19.819,19.819,0,0,0-5.65,11.279.449.449,0,0,1-.488.364" transform="translate(-1361.621 -562.69)" fill="#ffe6c2"/>
        <path id="Path_15178" data-name="Path 15178" d="M2203.26,861.767a21.467,21.467,0,0,1,.981,4.061,14.729,14.729,0,0,1-1.247,4c-.481.661-.719-2.692-1.1-3.2s-.078,1.263-.347,1.426-.828-1.3-1.069-1.816.588-2.42.591-3.747,2.19-.726,2.19-.726" transform="translate(-1920.302 -751.938)" fill="#ffb27d"/>
        <path id="Path_15179" data-name="Path 15179" d="M2024.291,621.581a4.692,4.692,0,0,1,7.07-4.417q.1.061.2.124c4.866,3.132,15.366,17.748,16.089,19.212s2.855,13.112,2.855,13.112-2.636.964-3.868-.036c0,0-4.275-11.046-4.907-11.6s-17.1-9.791-17.238-13.255c-.037-.916-.111-2.017-.2-3.141" transform="translate(-1766.569 -538.004)" fill="#233862"/>
        <rect id="Rectangle_3027" data-name="Rectangle 3027" width="27.861" height="4.056" transform="translate(216.782 83.937) rotate(-19.198)" fill="#f99746"/>
        <path id="Path_15180" data-name="Path 15180" d="M1660,663.361l6.784-.214-1.334-3.831Z" transform="translate(-1448.672 -575.379)" fill="#f9ddbf"/>
        <path id="Path_15181" data-name="Path 15181" d="M1913.074,583.461l.258.74a1.685,1.685,0,0,1-1.037,2.145l-1.468.511-1.334-3.831,1.56-.543a1.587,1.587,0,0,1,2.021.977" transform="translate(-1666.399 -508.251)" fill="#f9ddbf"/>
        <path id="Path_15182" data-name="Path 15182" d="M2206.469,1322.644s1.962,1.791,1.579,3.063-2.153,2.12-2.393,3.675-1.2,2.4-2.058,2.4h-4.107s-.634-1.094.9-1.424,2.109-2.157,2.013-3.853a29.9,29.9,0,0,1,.144-3.958l3.254-.754Z" transform="translate(-1919.365 -1153.52)" fill="#1c3051"/>
        <path id="Path_15183" data-name="Path 15183" d="M1987.064,1354.024s.352,4.075-.509,4.5l-11.024-.023s0-1.272,1.771-1.555,4.881-1.319,5.408-3.628,4.355.707,4.355.707" transform="translate(-1724.03 -1180.269)" fill="#1c3051"/>
        <path id="Path_15184" data-name="Path 15184" d="M1993.016,905.908s.581,7.143,1.265,15.729c.929,11.663,2.046,25.99,2.156,28.7.191,4.713.958,12.252.958,12.252s1.817,1.791,5.455,1.036a121.652,121.652,0,0,0,4.168-22.148c.015-.187.029-.375.043-.563.861-11.591,2.2-36,2.2-36Z" transform="translate(-1739.289 -789.715)" fill="#f99746"/>
        <path id="Path_15185" data-name="Path 15185" d="M1993.016,905.908s.581,7.143,1.265,15.729l12.737,19.844c.015-.187.029-.375.043-.563.861-11.591,2.2-36,2.2-36Z" transform="translate(-1739.289 -789.715)" fill="#ef7e29"/>
        <path id="Path_15186" data-name="Path 15186" d="M2013.873,887.377s10.48,25.868,17.371,38.025,9.044,15.55,9.044,15.55,3.948-1.555,4.307-2.615c0,0-2.635-23.469-7.25-29.191-2.608-3.233-5.671-12.934-5.814-16.327s-.933-10.107-.933-10.107Z" transform="translate(-1757.491 -770.335)" fill="#f99746"/>
        <path id="Path_15187" data-name="Path 15187" d="M2008.531,556.145s-7.022,3.561-11.134,2.373c0,0,2.419-1.791,2.366-4.4a11.215,11.215,0,0,0-.216-2.179l2.692-2.206,2.553-2.11a10.454,10.454,0,0,0,3.739,8.52" transform="translate(-1743.112 -477.907)" fill="#ffb27d"/>
        <path id="Path_15188" data-name="Path 15188" d="M1991.23,635.663a28.93,28.93,0,0,1-8.66,3.73c-3.7.878-8.259.619-9.782.851a.633.633,0,0,1-.444-.113c-.12-.061-.792-4.58-1.465-10.284-.03-.229-.061-.461-.074-.693l-.01-.077c-.262-2.229-.491-4.572-.69-6.92-.162-1.827-.3-3.634-.389-5.331-.117-2.123-.165-4.074-.117-5.678.021-.733.064-1.393.129-1.965a13.98,13.98,0,0,1,3.487-7.485l1.242-1.412a6.808,6.808,0,0,0,4.3-1.1c1.516-1,3.152-2.072,3.461-1.892,2.324,1.271,4.216,4.566,5.567,8.918a49.64,49.64,0,0,1,1.75,8.356c.123.934.226,1.892.306,2.846.016.176.029.353.043.527.182,2.608.48,5.053.81,7.236.444,2.945.95,5.411,1.307,7.148.179.884.316,1.568.4,2.057.073.427-.783,1.039-1.165,1.277" transform="translate(-1718.837 -521.239)" fill="#2b478b"/>
        <path id="Path_15189" data-name="Path 15189" d="M2019.62,564.3a9.4,9.4,0,0,1-5.12,4.282c-.18-1.576-.216-2.179-.216-2.179l2.692-2.206Z" transform="translate(-1757.849 -492.373)" fill="#ed985f"/>
        <path id="Path_15190" data-name="Path 15190" d="M1994.732,505.077s6.785.972,7.337-3.2,1.8-6.853-2.509-7.65-5.363.687-5.891,2.035-.688,8.454,1.062,8.814" transform="translate(-1739.546 -431.113)" fill="#ffb27d"/>
        <path id="Path_15191" data-name="Path 15191" d="M1988.668,476.111c.06-.072.2-.131.515-.155a1.277,1.277,0,0,0-.592-.154,1.585,1.585,0,0,0-1.081-1.381.946.946,0,0,1,.472.673c-.891-.88-2.776-1.5-7.951-.984-6.82.675-4.482,5-3.587,5.507s3.092-.97,4.742-.872,2.011,2.473,2.576,2.788.334-.258,1.084-.615.846.895.644,1.714.858,1.873.858,1.873l1.028-1.152c1.028-1.152,1.922-5.961,1.425-6.973-.044-.089-.087-.18-.132-.271" transform="translate(-1723.85 -413.589)" fill="#2c3a64"/>
        <path id="Path_15192" data-name="Path 15192" d="M1981.5,706.6s-5.721,4.353-11.785,5.307c-.117-2.123-.165-4.074-.117-5.678Z" transform="translate(-1718.837 -616.323)" fill="#233862"/>
        <path id="Path_15193" data-name="Path 15193" d="M1744.306,639.484c-.091-.1-1.257-4-3.274-3.712-1.316.186-3.467.947-2.9,2.681.225.682,4.235,3.03,4.235,3.03Z" transform="translate(-1516.774 -554.819)" fill="#ffb27d"/>
        <path id="Path_15194" data-name="Path 15194" d="M1808.077,629.769a4.692,4.692,0,0,1-.491,8.321q-.107.046-.216.09c-5.371,2.155-23.367,2.255-24.979,2s-12.344-5.263-12.344-5.263.74-2.707,2.269-3.133c0,0,11.482,2.909,12.3,2.714s17.882-8.273,20.787-6.382c.768.5,1.708,1.077,2.676,1.656" transform="translate(-1544.706 -547.898)" fill="#2b478b"/>
        <path id="Path_15195" data-name="Path 15195" d="M848.952,721.2s.631-1.041,1.017-1.617,1.155-1.294,1.352-1.109-.591.947-.555,1.2,1.354-.6,1.5-.792c.286-.386,1.041-.8,1.133-.316a6.354,6.354,0,0,1-.723,2.449,4.813,4.813,0,0,1-1.907,1.34c-.588.208-1.6.693-1.6.693Z" transform="translate(-740.874 -626.895)" fill="#ffb27d"/>
        <path id="Path_15196" data-name="Path 15196" d="M568.752,492.774c-.435-.84,9.5-3.864,9.656,4.424,0,0,18.61-.458,9.724-10.83-3.076-3.591-2.76-6.56-2.667-9.324s-1.916-10.8-8.8-9.988a5.129,5.129,0,0,0-4.055.434c-5.12,2.656-16.588,28.341-3.853,25.285" transform="translate(-491.285 -407.396)" fill="#163560"/>
        <path id="Path_15197" data-name="Path 15197" d="M709.876,647.154a18.166,18.166,0,0,0,1.853,2.8c1.44,1.8,3.659,3.886,6.446,4.3a6.917,6.917,0,0,0,3.829-.622h0a17.461,17.461,0,0,0,5.929-4.957,2.756,2.756,0,0,0-.239-2.645s-6.975,1.452-7.626,1.126-4.448-11.263-5.351-12.638-3.985-2.088-3.985-2.088Z" transform="translate(-619.503 -551.914)" fill="#f99746"/>
        <path id="Path_15198" data-name="Path 15198" d="M722.956,745.28c1.44,1.8,3.659,3.886,6.446,4.3a6.917,6.917,0,0,0,3.829-.622c-.132.017-3.512.435-4.86-1.975-1.375-2.459-2.861-6.364-4.9-5.063-.881.562-.842,1.958-.513,3.363" transform="translate(-630.73 -647.239)" fill="#ed7d2b"/>
        <path id="Path_15199" data-name="Path 15199" d="M497.736,1321.376s-2.085,1.9-1.678,3.255,2.289,2.254,2.543,3.906,1.272,2.554,2.187,2.554h4.365s.674-1.163-.953-1.513-2.241-2.292-2.14-4.1a31.773,31.773,0,0,0-.153-4.207l-3.459-.8Z" transform="translate(-432.859 -1152.367)" fill="#2358a5"/>
        <path id="Path_15200" data-name="Path 15200" d="M646.259,1333.9s-.75,8.062.165,8.513l11.716-.024s0-1.352-1.882-1.653-5.188-1.4-5.747-3.856-4.253-2.98-4.253-2.98" transform="translate(-563.733 -1164.086)" fill="#2358a5"/>
        <path id="Path_15201" data-name="Path 15201" d="M582.3,612.2c2.411-5.407,3.886-6.959,3.6-8.637-.21-1.249.638-23.289.638-23.289.286-.089.859-.168,1.173-.238a2.942,2.942,0,0,0,2.148-1.868,14.993,14.993,0,0,0,.729-4.973l.309.061,5.193,1.028s-.118,1.634-.122,3.174c0,.013,0,.026,0,.038a2.987,2.987,0,0,0,2.155,2.888c.656.189,1.227.351,1.227.351a47.614,47.614,0,0,1,2.271,11.037c.364,5.593-3.467,8.022.029,19.2,3.57,11.415-20.687,4.216-19.355,1.229" transform="translate(-508.119 -500.226)" fill="#ffb27d"/>
        <path id="Path_15202" data-name="Path 15202" d="M655.421,574.706s-.118,1.634-.122,3.174c-2.906-.082-4.442-2.733-5.071-4.2Z" transform="translate(-567.449 -500.644)" fill="#e8945b"/>
        <path id="Path_15203" data-name="Path 15203" d="M650.949,513.679s-6.875.113-6.88-4.169-.9-7.152,3.494-7.406,5.244,1.38,5.594,2.809-.419,8.626-2.208,8.766" transform="translate(-562.006 -438.158)" fill="#ffb27d"/>
        <path id="Path_15204" data-name="Path 15204" d="M635.541,495.491s-1.883,5.024-4.771,5.767-4.142-.031-4.142-.031a8.181,8.181,0,0,0,2.676-4.833s4.818-3.294,6.238-.9" transform="translate(-546.852 -431.651)" fill="#163560"/>
        <path id="Path_15205" data-name="Path 15205" d="M692.978,499.046a4.266,4.266,0,0,1,1.97,1.54,6.923,6.923,0,0,1,.929,3.932s1.418-3.415-.176-5.347c-1.69-2.048-2.724-.125-2.724-.125" transform="translate(-604.756 -434.798)" fill="#163560"/>
        <path id="Path_15206" data-name="Path 15206" d="M686.892,570.69a1.728,1.728,0,0,0,1.424.579,1.264,1.264,0,0,0,1.059-.7,4.618,4.618,0,0,0-2.483.12" transform="translate(-599.445 -497.826)" fill="#ebf3fa"/>
        <path id="Path_15207" data-name="Path 15207" d="M576.915,638.548a46.658,46.658,0,0,0,0,5.415c.116,1.958,2.1,4.581,2.378,5.229.705,1.627,1.5,1.892,1.5,1.892l6.152,1.508,2.163.529,6.821-2.037s3.107-8.672,1.859-13.553a37.525,37.525,0,0,0-3.153-8.271s-5.566,5.45-12.813-.462Z" transform="translate(-503.401 -548.746)" fill="#f99746"/>
        <path id="Path_15208" data-name="Path 15208" d="M645.811,814.2s3.378,10.514,3.595,14.094-6.457,50.853-6.725,52.5c-.253,1.555-2.184,2.546-2.184,2.546a2.922,2.922,0,0,1-2.155.166,5.331,5.331,0,0,1-2.314-1.091s-2.629-33.715-1-45.759a190.735,190.735,0,0,0,1.646-22.459Z" transform="translate(-553.718 -710.543)" fill="#163560"/>
        <path id="Path_15209" data-name="Path 15209" d="M527.388,811.735s-5.153,6.913-5.633,11.587-.754,21.089-1.777,25.646S515.2,862.291,515.2,876.5a2.835,2.835,0,0,0,1.6,1.248,13.155,13.155,0,0,0,1.4.389,2.209,2.209,0,0,0,2.471-1.173c2.542-5.118,10.64-21.626,11.055-25.052.294-2.425,2.851-18.474,8.428-27.892,1.339-2.261-.822-11.252-.822-11.252Z" transform="translate(-449.607 -708.394)" fill="#1c468a"/>
        <path id="Path_15210" data-name="Path 15210" d="M688.091,571.024s.119.5,1.375.427c0,0,1.054-.065,1.022-.62a3.392,3.392,0,0,0-2.4.193" transform="translate(-600.491 -498.046)" fill="#fff"/>
        <path id="Path_15211" data-name="Path 15211" d="M620.819,801.448a7.081,7.081,0,0,1-4.05,1.127c-3.218.065-11.191-.82-11.191-.82a6.6,6.6,0,0,0-.34,2.035s9.738,2.456,15.38.359a3.566,3.566,0,0,0,.2-2.7" transform="translate(-528.186 -699.417)" fill="#233862"/>
        <path id="Path_15212" data-name="Path 15212" d="M690.347,807.636a1.48,1.48,0,1,1,1.468,1.662,1.576,1.576,0,0,1-1.468-1.662m.487,0a1,1,0,1,0,.982-1.175,1.093,1.093,0,0,0-.982,1.175" transform="translate(-602.46 -703.366)" fill="#fff"/>
        <rect id="Rectangle_3028" data-name="Rectangle 3028" width="18.109" height="13.229" transform="translate(66.909 103.933) rotate(-48.952)" fill="#f77d48"/>
        <path id="Path_15213" data-name="Path 15213" d="M620.833,816.637s3.879.6,3.868,1.464-.8,2.437-1.586,2.561c-1,.158-2.975-2.411-2.975-2.411Z" transform="translate(-541.191 -712.672)" fill="#ffb27d"/>
        <path id="Path_15214" data-name="Path 15214" d="M626.227,816.015a5.069,5.069,0,0,1,2.253-.279c.953.2,1.835.052,1.618.4s-1.507.218-1.711.354-.208.051-.208.051Z" transform="translate(-546.503 -711.845)" fill="#ffb27d"/>
        <path id="Path_15215" data-name="Path 15215" d="M532.549,628.8a8.324,8.324,0,0,0-6.751,4.89c-1.871,4.548-5.42,12.184-5.42,13.468s1.983,5.244,12.631,7.521c0,0,1.1-1.159,1.035-2.075,0,0-6.647-5.709-6.629-6.377.034-1.262,1.09-2.929,6.926-8.766,1.587-1.587-1.791-8.661-1.791-8.661" transform="translate(-454.129 -548.746)" fill="#f99746"/>
        <path id="Path_15216" data-name="Path 15216" d="M869.64,631.947l-15.361,5.006a2.578,2.578,0,0,1-3.187-1.54l-5.641-15.154a2.333,2.333,0,0,1,1.475-3.059l15.361-5.006a2.578,2.578,0,0,1,3.186,1.54l5.641,15.154a2.333,2.333,0,0,1-1.475,3.059" transform="translate(-737.685 -534.15)" fill="#f77d48"/>
        <path id="Path_15217" data-name="Path 15217" d="M904.156,696.594l1.618-10.494,5.7,3.68,1.1-2.577,6.307,4.579Z" transform="translate(-789.049 -598.753)" fill="#ffe6c2"/>
        <path id="Path_15218" data-name="Path 15218" d="M931.428,657.76a1.279,1.279,0,0,1,.821-1.7,1.483,1.483,0,0,1,1.825.834,1.279,1.279,0,0,1-.821,1.7,1.483,1.483,0,0,1-1.825-.834" transform="translate(-812.769 -572.475)" fill="#ffe6c2"/>
        <path id="Path_15219" data-name="Path 15219" d="M856.937,717.128a2.984,2.984,0,0,1,1.351-1.109,10.76,10.76,0,0,0,1.439-.485c.307.329-.979.935-.993,1.49s.188,1.467-.636,1.573-1.161-1.469-1.161-1.469" transform="translate(-747.842 -624.44)" fill="#ffb27d"/>
        <path id="Path_15220" data-name="Path 15220" d="M339.072,1400.648H.385a.386.386,0,0,1-.385-.385v-.131a.386.386,0,0,1,.385-.385H339.072a.386.386,0,0,1,.385.385v.131a.386.386,0,0,1-.385.385" transform="translate(0 -1221.548)" fill="#233862"/>
        <path id="Path_15221" data-name="Path 15221" d="M1140.778,352.947l20.167,3.634-13.118-9.662-.792,2.915-4.963.712Z" transform="translate(-995.548 -302.752)" fill="#9ec3f6"/>
        <path id="Path_15222" data-name="Path 15222" d="M1072.59,349.11l-16.552-9.315-16.5-1.437Z" transform="translate(-907.192 -295.282)" fill="#fff"/>
        <path id="Path_15223" data-name="Path 15223" d="M1196.15,312.3l13.118,9.662-9.89-14.712Z" transform="translate(-1043.87 -268.134)" fill="#fff"/>
        <path id="Path_15224" data-name="Path 15224" d="M152,1175.585l-16.267,2.931,10.581-7.793.639,2.351,4,.575Z" transform="translate(-118.449 -1021.68)" fill="#9ec3f6"/>
        <path id="Path_15225" data-name="Path 15225" d="M135.728,1172.49l13.351-7.514,13.313-1.159Z" transform="translate(-118.449 -1015.653)" fill="#fff"/>
        <path id="Path_15226" data-name="Path 15226" d="M146.309,1142.8l-10.581,7.793,7.978-11.867Z" transform="translate(-118.449 -993.755)" fill="#fff"/>
        <path id="Path_15227" data-name="Path 15227" d="M774.324,1318.671a5.263,5.263,0,0,0,.042.671,5.5,5.5,0,0,0,5.466,4.836h77.456a5.508,5.508,0,0,0,0-11.016H779.831a5.508,5.508,0,0,0-5.507,5.509" transform="translate(-675.746 -1145.985)" fill="#f78248"/>
        <path id="Path_15228" data-name="Path 15228" d="M814.936,1293.747h26.557a.845.845,0,1,0,0-1.69H814.936a.845.845,0,1,0,0,1.69" transform="translate(-710.451 -1127.567)" fill="#f78248"/>
        <rect id="Rectangle_3029" data-name="Rectangle 3029" width="2.879" height="0.997" transform="translate(105.952 166.18)" fill="#ea642f"/>
        <path id="Path_15229" data-name="Path 15229" d="M779.573,1377.126a5.516,5.516,0,0,0,4.839,2.873h16.407v-2.873Z" transform="translate(-680.327 -1201.806)" fill="#ea642f"/>
        <path id="Path_15230" data-name="Path 15230" d="M943.339,1317.058v3.227a3.892,3.892,0,0,1-3.893,3.895H858.761a3.892,3.892,0,0,1-3.893-3.895v-3.227a3.893,3.893,0,0,1,3.893-3.895h80.684a3.894,3.894,0,0,1,3.893,3.895" transform="translate(-746.036 -1145.986)" fill="#f99746"/>
        <path id="Path_15231" data-name="Path 15231" d="M944.133,1377.126a3.893,3.893,0,0,1-3.758,2.873H859.692a3.893,3.893,0,0,1-3.758-2.873Z" transform="translate(-746.967 -1201.806)" fill="#ef873a"/>
        <path id="Path_15232" data-name="Path 15232" d="M1486.858,1318.691a6.123,6.123,0,0,0,1.6,4.253l.066.067a3.909,3.909,0,0,0,2.764,1.207c1.633,0,5.682-2.464,8.191-4.1,1.25-.816,2.118-1.426,2.118-1.426s-.868-.61-2.118-1.426c-2.509-1.638-6.557-4.1-8.191-4.1a3.654,3.654,0,0,0-1.356.263,4.436,4.436,0,0,0-1.868,1.474,6.081,6.081,0,0,0-1.122,2.7.3.3,0,0,0,0,.036,6.835,6.835,0,0,0-.082,1.061" transform="translate(-1297.569 -1145.986)" fill="#6c7aff"/>
        <g id="Group_8891" data-name="Group 8891" transform="translate(189.289 171.644)" opacity="0.7">
          <g id="Group_8890" data-name="Group 8890">
            <g id="Group_8889" data-name="Group 8889" clip-path="url(#clip-path-19)">
              <path id="Path_15233" data-name="Path 15233" d="M1486.858,1349.316a6.123,6.123,0,0,0,1.6,4.253l12.418-4.272-13.938-1.041a6.837,6.837,0,0,0-.082,1.061" transform="translate(-1486.858 -1348.255)" fill="#739af0"/>
            </g>
          </g>
        </g>
        <path id="Path_15234" data-name="Path 15234" d="M1496.348,1316.7l12.388,3.383-10.521-4.857a4.437,4.437,0,0,0-1.868,1.474" transform="translate(-1305.851 -1147.785)" fill="#abc3ef"/>
        <path id="Path_15235" data-name="Path 15235" d="M1579.656,1346.811a1.529,1.529,0,0,0,.809,1.426c1.25-.816,2.118-1.426,2.118-1.426s-.868-.61-2.118-1.426a1.526,1.526,0,0,0-.809,1.426" transform="translate(-1378.553 -1174.106)" fill="#f99746"/>
        <path id="Path_15236" data-name="Path 15236" d="M1660,684.594l1.277-.948a1.479,1.479,0,0,1,.441.948Z" transform="translate(-1448.672 -596.613)" fill="#2b478b"/>
      </g>
    </g>
  </g>
</svg>
