<svg xmlns="http://www.w3.org/2000/svg" width="186.937" height="136.973" viewBox="0 0 186.937 136.973">
  <g id="Group_6683" data-name="Group 6683" transform="translate(0.002 -0.003)">
    <path id="Path_10076" data-name="Path 10076" d="M1534.98,651.213l-1.467.45-.985-2.28-2.226.394-1.016-1.586-.8.514,1.359,2.121,2.109-.373,1.025,2.372,2.207-.677Z" transform="translate(-1463.946 -625.212)" fill="#50bfa5"/>
    <path id="Path_10077" data-name="Path 10077" d="M2433.89,1434.92l-1.467.45-.985-2.28-2.226.394-1.016-1.586-.8.514,1.359,2.121,2.109-.373,1.024,2.372,2.207-.677Z" transform="translate(-2268.798 -1326.917)" fill="#50bfa5"/>
    <g id="Group_6649" data-name="Group 6649" transform="translate(53.482 73.531)">
      <g id="Group_6648" data-name="Group 6648">
        <path id="Path_10078" data-name="Path 10078" d="M1431.33,1192.78s-7.827-26.528-8.454-32.38,3.749-4.038,3.749-4.038-3.682-11.15-1.02-13.8,5.064,2.286,5.064,2.286.806-13.536,3.644-13.541c5.287-.009,5.183,14.762,5.183,14.762s1.349-5.783,4.18-4.2c4.269,2.391-1.853,13.98-1.853,13.98s5.44,0,7.351,2.747C1452.6,1163.52,1431.33,1192.78,1431.33,1192.78Z" transform="translate(-1422.812 -1131.307)" fill="#50bfa5"/>
      </g>
    </g>
    <g id="Group_6651" data-name="Group 6651" transform="translate(23.959 92.456)">
      <g id="Group_6650" data-name="Group 6650">
        <path id="Path_10079" data-name="Path 10079" d="M1181.26,1351.2s-22.563-3.773-27.471-7.771-.05-5.8-.05-5.8-11.334-5.81-11.2-9.761,5.762-1.942,5.762-1.942-9.551-10.89-7.29-12.958c4.212-3.852,15.252,7.469,15.252,7.469s-3.278-5.384.174-6.236c5.207-1.285,9.05,11.99,9.05,11.99s-.976-5.243,2.614-4.544C1174.55,1322.9,1181.26,1351.2,1181.26,1351.2Z" transform="translate(-1140.666 -1312.164)" fill="#50bfa5"/>
      </g>
      <path id="Path_10080" data-name="Path 10080" d="M1171.07,1321.64c-3.6-.651-2.614,4.544-2.614,4.544s-3.843-13.275-9.05-11.99c-3.453.852-.174,6.236-.174,6.236s-11.041-11.321-15.252-7.469l40.175,38.24C1183.44,1347.55,1177.1,1322.73,1171.07,1321.64Z" transform="translate(-1143.63 -1312.164)" fill="#3c8f7c"/>
    </g>
    <g id="Group_6652" data-name="Group 6652" transform="translate(22.299 115.946)">
      <path id="Path_10081" data-name="Path 10081" d="M1173.48,1555.76s-11.882-12.084-17.866-13.342-4.907,3-4.907,3-11.872-10.382-14.623-7.867.225,4.944.225,4.944-9.889-1.752-11.3,1.493c-2.175,4.987,14.088,7.7,14.088,7.7s-6.815.472-5.235,3.6C1136.24,1560,1173.48,1555.76,1173.48,1555.76Z" transform="translate(-1124.802 -1537.104)" fill="#355389"/>
      <path id="Path_10082" data-name="Path 10082" d="M1126.72,1543.54c1.416-3.245,11.3-1.493,11.3-1.493s-2.976-2.428-.225-4.944,14.254,6.455,14.254,6.455-2.712-5.184,3.272-3.926,19.871,15.681,19.871,15.681Z" transform="translate(-1126.516 -1536.659)" fill="#466eb6"/>
    </g>
    <g id="Group_6660" data-name="Group 6660" transform="translate(81.309 3.699)">
      <path id="Path_10083" data-name="Path 10083" d="M1738.31,523.361a4.586,4.586,0,0,0-1.863,8.256,3.05,3.05,0,0,1,1.187,1.766l.6,2.442a1.33,1.33,0,0,0,1.507.992l1.515-.249a1.33,1.33,0,0,0,1.109-1.423c-.21-2.521-.47-3.435.349-4.56a4.586,4.586,0,0,0-4.409-7.224Z" transform="translate(-1729.729 -517.085)" fill="#f7cc7f"/>
      <g id="Group_6653" data-name="Group 6653" transform="translate(6.797 9.25)">
        <path id="Path_10084" data-name="Path 10084" d="M1755.9,560.03c-.26-2.16-.626-4.44-.75-5.087-2.293.127-1.421-2.29-.363-1.307a2,2,0,0,1,.538,1.076,5.928,5.928,0,0,0,2.184-.636,2.816,2.816,0,0,1,.06-1.277c.224-.515.877-.655,1.142-.153a.8.8,0,0,1,.045.629,2.039,2.039,0,0,1-1.02.928c.12,1.717.288,3.447.5,5.151l-.216.027c-.207-1.676-.372-3.378-.492-5.068a6.149,6.149,0,0,1-2.157.615c.157.827.5,3.05.748,5.077Zm-1.839-5.6a1.282,1.282,0,0,0,1.043.293,1.771,1.771,0,0,0-.466-.932c-.568-.524-.918.274-.578.643Zm3.707-1.549a2.432,2.432,0,0,0-.049,1.075,1.722,1.722,0,0,0,.831-.761.494.494,0,0,0-.255-.64c-.025,0-.435.129-.525.33Z" transform="translate(-1753.707 -552.332)" fill="#fae0b2"/>
      </g>
      <path id="Path_10085" data-name="Path 10085" d="M1764.16,612.7c.006.02.013.04.018.06l.6,2.442a1.33,1.33,0,0,0,1.507.992l1.515-.249a1.33,1.33,0,0,0,1.109-1.423c-.094-1.122-.2-1.925-.21-2.57Z" transform="translate(-1756.268 -596.466)" fill="#96d9c9"/>
      <g id="Group_6654" data-name="Group 6654" transform="translate(4.37 1.623)">
        <path id="Path_10086" data-name="Path 10086" d="M1731.76,482.272l-1.2-2.183a.436.436,0,0,1,.765-.419l1.2,2.183a.436.436,0,0,1-.765.419Z" transform="translate(-1730.512 -479.443)" fill="#fae0b2"/>
      </g>
      <g id="Group_6655" data-name="Group 6655" transform="translate(0 8.634)">
        <path id="Path_10087" data-name="Path 10087" d="M1691.76,547.546l-2.607-.228a.436.436,0,1,1,.076-.869l2.607.228a.436.436,0,0,1-.076.869Z" transform="translate(-1688.75 -546.447)" fill="#fae0b2"/>
      </g>
      <g id="Group_6656" data-name="Group 6656" transform="translate(0.294 15.327)">
        <path id="Path_10088" data-name="Path 10088" d="M1691.69,612.8a.436.436,0,0,1,0-.617,14.258,14.258,0,0,1,2.095-1.709.436.436,0,0,1,.485.725,13.382,13.382,0,0,0-1.966,1.6.436.436,0,0,1-.614,0Z" transform="translate(-1691.562 -610.405)" fill="#fae0b2"/>
      </g>
      <g id="Group_6657" data-name="Group 6657" transform="translate(11.737)">
        <path id="Path_10089" data-name="Path 10089" d="M1801.24,468.265a.436.436,0,0,1-.309-.534,16.573,16.573,0,0,0,.538-3.387.436.436,0,1,1,.871.047,17.469,17.469,0,0,1-.566,3.566.436.436,0,0,1-.534.308Z" transform="translate(-1800.919 -463.931)" fill="#fae0b2"/>
      </g>
      <g id="Group_6658" data-name="Group 6658" transform="translate(14.727 6.306)">
        <path id="Path_10090" data-name="Path 10090" d="M1829.51,525.579a.436.436,0,0,1,.292-.544l2.71-.817a.436.436,0,0,1,.252.835l-2.71.817a.436.436,0,0,1-.544-.291Z" transform="translate(-1829.494 -524.2)" fill="#fae0b2"/>
      </g>
      <g id="Group_6659" data-name="Group 6659" transform="translate(16.134 12.972)">
        <path id="Path_10091" data-name="Path 10091" d="M1846,589.824a.432.432,0,0,1-.118-.016,13.686,13.686,0,0,1-2.714-1.088.436.436,0,1,1,.409-.77,12.825,12.825,0,0,0,2.541,1.018.436.436,0,0,1-.118.856Z" transform="translate(-1842.94 -587.898)" fill="#fae0b2"/>
      </g>
    </g>
    <path id="Path_10092" data-name="Path 10092" d="M2207.18,695.591l-1.367-3.234-3.439-.707a.482.482,0,0,1-.219-.837l2.653-2.3-.391-3.489a.482.482,0,0,1,.728-.467l3.007,1.812,3.2-1.45a.482.482,0,0,1,.669.549l-.794,3.42,2.367,2.593a.482.482,0,0,1-.315.806l-3.5.3-1.734,3.052a.483.483,0,0,1-.865-.048Z" transform="translate(-2066.979 -657.711)" fill="#f7cc7f"/>
    <path id="Path_10093" data-name="Path 10093" d="M2387.79,684.566l-.562,2.264-3.742-.5-1.23,3.208-2.862.082.042,1.449,3.828-.11,1.166-3.04,3.893.522.846-3.406Z" transform="translate(-2225.822 -657.781)" fill="#f48c7f"/>
    <path id="Path_10094" data-name="Path 10094" d="M1539.22,1616.83h-65.78a4.636,4.636,0,0,1-4.549-4.719V1609.3a4.636,4.636,0,0,1,4.549-4.719h65.78a9.319,9.319,0,0,0-.121,12.1Z" transform="translate(-1410.584 -1481.535)" fill="#b75742"/>
    <path id="Path_10095" data-name="Path 10095" d="M1780.18,1617.99H1743.7a4.636,4.636,0,0,0-4.549,4.719h0a4.636,4.636,0,0,0,4.549,4.719h36.488a9.361,9.361,0,0,1-.008-9.438Z" transform="translate(-1652.565 -1493.538)" fill="#fae0b2"/>
    <path id="Path_10096" data-name="Path 10096" d="M1577.74,1520.02a.273.273,0,0,0-.271-.387h-34.807a4.712,4.712,0,0,0-4.94,4.446h0a4.712,4.712,0,0,0,4.94,4.446h34.816a.274.274,0,0,0,.272-.389h0a8.517,8.517,0,0,1-.01-8.116Z" transform="translate(-1472.214 -1405.469)" fill="#86b1f2"/>
    <path id="Path_10097" data-name="Path 10097" d="M1720.84,1527.54h-17.25c-3.2,0-5.8,1.668-5.8,3.725s2.6,3.725,5.8,3.725h17.364a8.5,8.5,0,0,1-.114-7.45Z" transform="translate(-1615.542 -1412.548)" fill="#f7cc7f"/>
    <g id="Group_6661" data-name="Group 6661" transform="translate(97.727 116.758)">
      <path id="Path_10098" data-name="Path 10098" d="M1848.78,1544.42h-2.246c-.483,0-.875.162-.875.362v.032h3.121Z" transform="translate(-1845.654 -1544.417)" fill="#b75742"/>
      <path id="Path_10099" data-name="Path 10099" d="M1857.92,1545.33c0-.5-.587-.909-1.31-.909h-2.883c.549,0,.994.309.994.689l-.014,9.74,1.593-1.253,1.624,1.253Z" transform="translate(-1852.878 -1544.417)" fill="#f47458"/>
    </g>
    <g id="Group_6663" data-name="Group 6663" transform="translate(63.221 105.725)">
      <path id="Path_10100" data-name="Path 10100" d="M1657.88,1450.52h-20.252c-1.8,0-3.252-1.728-3.252-3.859h0c0-2.132,1.456-3.86,3.252-3.86h20.252a6.79,6.79,0,0,0-.145,7.5Z" transform="translate(-1621.979 -1442.398)" fill="#fae0b2"/>
      <path id="Path_10101" data-name="Path 10101" d="M1528.29,1443.24h0a3.624,3.624,0,0,1,3.329-3.86h20.559a.188.188,0,0,0,.172-.2h0a.187.187,0,0,0-.172-.2h-32.615a4,4,0,0,0-3.673,4.259h0a4,4,0,0,0,3.673,4.26h32.615a.187.187,0,0,0,.173-.2h0a.188.188,0,0,0-.173-.2h-20.559A3.623,3.623,0,0,1,1528.29,1443.24Z" transform="translate(-1515.888 -1438.977)" fill="#466eb6"/>
      <g id="Group_6662" data-name="Group 6662" transform="translate(29.245 2.297)">
        <path id="Path_10102" data-name="Path 10102" d="M1798.5,1460.93h-2.246c-.483,0-.875.159-.875.355v.032h3.121Z" transform="translate(-1795.375 -1460.925)" fill="#184655"/>
        <path id="Path_10103" data-name="Path 10103" d="M1807.64,1461.82c0-.492-.587-.891-1.31-.891h-2.883c.549,0,.994.3.994.676l-.014,9.552,1.593-1.228,1.624,1.228Z" transform="translate(-1802.597 -1460.925)" fill="#3c8f7c"/>
      </g>
    </g>
    <g id="Group_6666" data-name="Group 6666" transform="translate(68.007 26.563)">
      <g id="Group_6665" data-name="Group 6665" transform="translate(37.099 21.659)">
        <path id="Path_10104" data-name="Path 10104" d="M2144.93,890.315l2.99-.787-2.026,27.028-3.587.12,1.809-25.378A1.1,1.1,0,0,1,2144.93,890.315Z" transform="translate(-2118.647 -889.518)" fill="#184655"/>
        <g id="Group_6664" data-name="Group 6664">
          <path id="Path_10105" data-name="Path 10105" d="M2168.96,917.243a.988.988,0,0,1-.2,0,1.2,1.2,0,0,1-.982-1.319l1.99-25.414a1.09,1.09,0,0,1,1.168-1.065,1.2,1.2,0,0,1,.982,1.319l-1.99,25.414a1.115,1.115,0,0,1-.968,1.065Z" transform="translate(-2141.445 -889.435)" fill="#f7cc7f"/>
          <path id="Path_10106" data-name="Path 10106" d="M1916.18,1145.68v.056h0a1.769,1.769,0,0,0,1.789,1.727l25.25-2.26a1.764,1.764,0,0,0,1.45-2.017.965.965,0,0,0-.016-.13Z" transform="translate(-1916.18 -1116.52)" fill="#f7cc7f"/>
        </g>
      </g>
      <path id="Path_10107" data-name="Path 10107" d="M1978.4,1421.85c-1.654.917-6.707-.691-6.707-.836-.073,1.381-5.659,14.9-5.659,14.9v4.159s11.511.549,11.346-.469-.784-.355-3.081-2.277c-.2-.171-3.428-.919-2.556-2.827C1973.5,1430.66,1977.23,1424.25,1978.4,1421.85Z" transform="translate(-1923.714 -1343.736)" fill="#f7a491"/>
      <path id="Path_10108" data-name="Path 10108" d="M1959.41,1567.63h12.6c.455-.046.561-.416.4-.641-.331-.463-2.745-1.555-4.369-2.28-2.828.33-7.8-.757-8.253-1.4C1958.59,1564.91,1959.15,1567.58,1959.41,1567.63Z" transform="translate(-1917.465 -1471.139)" fill="#3c8f7c"/>
      <path id="Path_10109" data-name="Path 10109" d="M1935.67,1216.8c-.17-.511,10.849-5.187,11.342-4.653.873.945-5.962,18.685-5.962,18.685l7.852,2.4s8.163-20.5,7.823-24.244-4.43-8.009-13.291-5.282S1935.67,1216.8,1935.67,1216.8Z" transform="translate(-1896.492 -1148.385)" fill="#355389"/>
      <path id="Path_10110" data-name="Path 10110" d="M2088.16,1447.29a41.7,41.7,0,0,0-6.2-.469c.227,1.719,1.332,10.53,1.13,11.072a6.611,6.611,0,0,1-2.632,3.22s8.556,7.72,9.073,6.828-.381-.772-.94-3.714a38.932,38.932,0,0,1-1.363-6.581C2087.08,1453.42,2088.1,1449.63,2088.16,1447.29Z" transform="translate(-2026.169 -1366.835)" fill="#f7a491"/>
      <path id="Path_10111" data-name="Path 10111" d="M1737.89,1170.96c-1.194-.637-4.293-.659-7.7-.438a78.184,78.184,0,0,0-19.52,3.831l-4.229,1.4.014-4.336s-13.452-2.251-13.92,1.083c-.7,5.021.17,15.214,4.652,17.489,13.922,7.067,33.432-11.258,33.5-8.86.095,3.22,2.809,15.2,3.5,20.447a38.728,38.728,0,0,0,6.684-.3C1741.16,1191,1741.29,1172.77,1737.89,1170.96Z" transform="translate(-1678.645 -1119.335)" fill="#466eb6"/>
      <path id="Path_10112" data-name="Path 10112" d="M2077.89,1555.85l9.618,7.683c.381.252.7.034.716-.242.038-.568-1.138-2.943-1.935-4.532-2.4-1.537-5.557-5.544-5.5-6.331C2079.77,1553.28,2077.72,1555.65,2077.89,1555.85Z" transform="translate(-2023.859 -1461.393)" fill="#3c8f7c"/>
      <path id="Path_10113" data-name="Path 10113" d="M1593.89,692.156c-.323-2.953-.663-5.918-3.112-8.083a6.619,6.619,0,0,0-6.991-1.111c-7.058,2.656-3.421,8.924-12.421,15.243-2.8,1.964-5.879,3.308-7.984,5.952-2.947,3.7-1.834,8.153.851,11.126,12.851,14.222,27.2-4.985,28.228-9.6C1593.23,702.257,1594.1,694.057,1593.89,692.156Z" transform="translate(-1561.631 -682.44)" fill="#13375b"/>
      <path id="Path_10114" data-name="Path 10114" d="M1706.16,879.382a39.186,39.186,0,0,0-2.131-3.471c-1.089-1.936-3.9-2.915-3.9-2.915s-.941.019-2.021.072a.857.857,0,0,1-.2.359c-.406.3-2.733-.089-4.236.932-5.038,4.319-3.645,25.251-3.248,31.862l15.343.145s-1.934-14.226,1.183-17.88C1709.12,885.942,1707.72,882.253,1706.16,879.382Z" transform="translate(-1676.515 -853.058)" fill="#50bfa5"/>
      <path id="Path_10115" data-name="Path 10115" d="M1766.1,798.989a62.4,62.4,0,0,1-1.432,7.487c-.589,1.464,3.239,4.594,6.424,5.544s-.974-3.233-.842-4.8.711-8.973.711-8.973Z" transform="translate(-1743.365 -786.131)" fill="#f7a491"/>
      <path id="Path_10116" data-name="Path 10116" d="M1781.36,800.374c.093-1.225.161-2.125.161-2.125l-4.861.74s-.123.708-.258,1.708a3.994,3.994,0,0,0,4.958-.323Z" transform="translate(-1753.931 -786.131)" fill="#f47458"/>
      <path id="Path_10117" data-name="Path 10117" d="M1758.56,699.714a5.522,5.522,0,0,0-3.1,2.237c-1.183,1.8-1.995,7.12,1.9,9.6s6.927-1.028,6.977-4.451S1763.66,699.111,1758.56,699.714Z" transform="translate(-1734.308 -697.858)" fill="#f7a491"/>
      <path id="Path_10118" data-name="Path 10118" d="M1840.68,744.392c-.333.826-.992,1.339-1.473,1.145s-.6-1.02-.269-1.846.992-1.339,1.473-1.145S1841.01,743.566,1840.68,744.392Z" transform="translate(-1809.754 -736.22)" fill="#f7a491"/>
      <path id="Path_10119" data-name="Path 10119" d="M1741.57,699.1s-2.443,5.479-4.589,5.968-2.115,3.246-2.115,3.246.048-6.367,2.059-7.827A8.46,8.46,0,0,1,1741.57,699.1Z" transform="translate(-1716.739 -697.357)" fill="#13375b"/>
      <path id="Path_10120" data-name="Path 10120" d="M1743.61,755.883c.282.89.024,1.766-.578,1.957s-1.318-.375-1.6-1.265-.024-1.766.577-1.957S1743.33,754.994,1743.61,755.883Z" transform="translate(-1722.517 -747.032)" fill="#f7a491"/>
      <path id="Path_10121" data-name="Path 10121" d="M1756.11,1000.31c-.921-.333-2.291-.374-2.268-.5.093-.492,4.159,1.086,3.61.368-.306-.4-3.349-1.815-4.09-1.582-.718.227-5.431,1.549-5.431,1.549l-12.882-3.019s-3.251-7.389-3.569-13.736a17.7,17.7,0,0,0-6.854,2.324c1.127,6.071,3.865,15.911,6.892,17.757,1.273.777,16.476-.93,16.476-.93a34.546,34.546,0,0,0,3.9-.447c.415-.16,1.484-.762,2.066-.926,1.322-.374,3.677.565,3.684.307a2.545,2.545,0,0,0-1.534-1.165Z" transform="translate(-1707.571 -951.902)" fill="#f7a491"/>
      <path id="Path_10122" data-name="Path 10122" d="M1720.15,879.252c-.124-1.953-.864-3.839-2.942-4.447a4.208,4.208,0,0,0-3.762.825,5.106,5.106,0,0,0-1.561,4.123,58.954,58.954,0,0,0,.878,10.418,22.291,22.291,0,0,1,7.75-2.439C1720.51,887.712,1720.32,881.833,1720.15,879.252Z" transform="translate(-1696.165 -854.544)" fill="#96d9c9"/>
    </g>
    <g id="Group_6667" data-name="Group 6667" transform="translate(31.442 34.957)">
      <path id="Path_10123" data-name="Path 10123" d="M1233.4,794.478l-19.971-3.719a.739.739,0,0,1-.591-.861l2.5-13.435a.739.739,0,0,1,.862-.591l19.971,3.719a.738.738,0,0,1,.591.862l-2.5,13.435a.739.739,0,0,1-.862.59Z" transform="translate(-1212.756 -774.478)" fill="#f7cc7f"/>
      <path id="Path_10124" data-name="Path 10124" d="M1261.42,767.3l-6.079-1.132a.739.739,0,0,1-.591-.861l.381-2.044a.739.739,0,0,1,.862-.591l6.079,1.132a.739.739,0,0,1,.591.862l-.381,2.044a.739.739,0,0,1-.862.59Z" transform="translate(-1250.282 -762.659)" fill="#f7cc7f"/>
      <path id="Path_10125" data-name="Path 10125" d="M1233.73,805.77a.739.739,0,0,1-.846.526l-20.1-3.743a.739.739,0,0,1-.6-.791l1.052-12.043a.739.739,0,0,1,.871-.662l22.331,4.158a.739.739,0,0,1,.576.927Z" transform="translate(-1212.182 -786.284)" fill="#fae0b2"/>
    </g>
    <g id="Group_6668" data-name="Group 6668" transform="translate(140.436 7.03)">
      <path id="Path_10126" data-name="Path 10126" d="M2257.97,499.179l-3.42.934-.736-4.144,1.119-.2.519,2.919,2.219-.606Z" transform="translate(-2253.817 -495.77)" fill="#50bfa5"/>
    </g>
    <g id="Group_6669" data-name="Group 6669" transform="translate(35.03 66.549)">
      <path id="Path_10127" data-name="Path 10127" d="M1252.31,1072.2a5.288,5.288,0,0,1,2.761.708,3.994,3.994,0,0,1,1.471,1.52l-.158.11a3.588,3.588,0,0,0-1.839-1.131,4.429,4.429,0,0,0-2.053-.02Z" transform="translate(-1251.702 -1071.399)" fill="#355389"/>
      <path id="Path_10128" data-name="Path 10128" d="M1251.24,1067.67s-5.218.871-4.731,4.947,5.991,7.248,10.9,4.726c6.609-3.392,4-12.014-.7-12.681S1251.24,1067.67,1251.24,1067.67Z" transform="translate(-1246.477 -1064.578)" fill="#f47458"/>
      <path id="Path_10129" data-name="Path 10129" d="M1308.3,1071.29s1.361-1.4,4.344-.126,3.2,7.2.538,6.857S1306.18,1072.14,1308.3,1071.29Z" transform="translate(-1301.325 -1069.993)" fill="#f48c7f"/>
    </g>
    <g id="Group_6672" data-name="Group 6672" transform="translate(50.705)">
      <path id="Path_10130" data-name="Path 10130" d="M1423.47,442.269l-21.461,7.656a1.33,1.33,0,0,1-1.7-.806l-3.961-11.1a1.33,1.33,0,0,1,.806-1.7l21.461-7.656a1.33,1.33,0,0,1,1.7.806l3.961,11.1a1.33,1.33,0,0,1-.806,1.7Z" transform="translate(-1396.275 -428.582)" fill="#86b1f2"/>
      <path id="Path_10131" data-name="Path 10131" d="M1449.59,507.936a4.253,4.253,0,1,1-5.435-2.577,4.253,4.253,0,0,1,5.435,2.577Z" transform="translate(-1436.616 -497.103)" fill="#fff"/>
      <path id="Path_10132" data-name="Path 10132" d="M1466.97,519.293a1.254,1.254,0,1,1-1.6-.76,1.254,1.254,0,0,1,1.6.76Z" transform="translate(-1457.391 -509.055)" fill="#86b1f2"/>
      <path id="Rectangle_2298" data-name="Rectangle 2298" d="M1.935,0h.137A1.936,1.936,0,0,1,4.008,1.936H0A1.935,1.935,0,0,1,1.935,0Z" transform="translate(7.196 13.258) rotate(-19.632)" fill="#86b1f2"/>
      <g id="Group_6670" data-name="Group 6670" transform="translate(12.961 4.08)">
        <path id="Path_10133" data-name="Path 10133" d="M1520.68,472.005a.542.542,0,0,1-.182-1.053l9.382-3.347a.543.543,0,1,1,.365,1.022l-9.382,3.346a.539.539,0,0,1-.183.032Z" transform="translate(-1520.141 -467.574)" fill="#fff"/>
      </g>
      <g id="Group_6671" data-name="Group 6671" transform="translate(15.493 7.152)">
        <path id="Path_10134" data-name="Path 10134" d="M1544.89,500.627a.542.542,0,0,1-.182-1.053l7.327-2.614a.543.543,0,0,1,.365,1.022l-7.327,2.614A.542.542,0,0,1,1544.89,500.627Z" transform="translate(-1544.343 -496.928)" fill="#fff"/>
      </g>
    </g>
    <path id="Path_10135" data-name="Path 10135" d="M1506.54,1359.87h-51.821a2.913,2.913,0,0,0-2.914,2.914v2.451a2.914,2.914,0,0,0,2.914,2.914h51.821l-.027-.028a5.934,5.934,0,0,1,.027-8.251Z" transform="translate(-1395.293 -1262.426)" fill="#f47458"/>
    <path id="Path_10136" data-name="Path 10136" d="M1704.15,1371.58h-27.7a2.914,2.914,0,0,0-2.914,2.914h0a2.913,2.913,0,0,0,2.914,2.914h27.7A5.942,5.942,0,0,1,1704.15,1371.58Z" transform="translate(-1593.818 -1272.912)" fill="#fae0b2"/>
    <g id="Group_6676" data-name="Group 6676" transform="translate(149.665 80.873)">
      <g id="Group_6674" data-name="Group 6674">
        <path id="Path_10137" data-name="Path 10137" d="M2346.02,1218.28l-3.928-9.855a.967.967,0,0,1,.54-1.256l14.135-5.634a.966.966,0,0,1,1.255.54l3.928,9.855a.967.967,0,0,1-.54,1.256l-14.135,5.634a.966.966,0,0,1-1.255-.54Z" transform="translate(-2342.019 -1201.469)" fill="#fae0b2"/>
        <path id="Path_10138" data-name="Path 10138" d="M2477.27,1228.66l-3.53-8.856a.277.277,0,0,1,.155-.36h0a.278.278,0,0,1,.36.155l3.529,8.856a.277.277,0,0,1-.155.36h0a.277.277,0,0,1-.359-.155Z" transform="translate(-2459.944 -1217.548)" fill="#466eb6"/>
        <path id="Path_10139" data-name="Path 10139" d="M2466.61,1231.08l-2.9-7.271a.277.277,0,0,1,.155-.36h0a.277.277,0,0,1,.36.155l2.9,7.271a.277.277,0,0,1-.155.36h0a.277.277,0,0,1-.36-.155Z" transform="translate(-2450.959 -1221.129)" fill="#466eb6"/>
        <path id="Path_10140" data-name="Path 10140" d="M2457.2,1236.66l-3.53-8.856a.277.277,0,0,1,.155-.36h0a.277.277,0,0,1,.36.155l3.53,8.856a.277.277,0,0,1-.155.36h0a.278.278,0,0,1-.36-.155Z" transform="translate(-2441.974 -1224.711)" fill="#466eb6"/>
        <path id="Path_10141" data-name="Path 10141" d="M2446.36,1238.64l-2.724-6.835a.277.277,0,0,1,.155-.36h0a.277.277,0,0,1,.36.155l2.725,6.835a.277.277,0,0,1-.155.36h0a.277.277,0,0,1-.361-.155Z" transform="translate(-2432.989 -1228.292)" fill="#466eb6"/>
        <g id="Group_6673" data-name="Group 6673" transform="translate(15.59 1.054)">
          <path id="Path_10142" data-name="Path 10142" d="M2492.66,1211.8l-.071-.178a.124.124,0,0,0-.159-.074l-1.341.535a.124.124,0,0,0-.064.163l.071.178a.124.124,0,0,0,.159.074l1.342-.535a.124.124,0,0,0,.063-.163Z" transform="translate(-2491.012 -1211.543)" fill="#355389"/>
          <path id="Path_10143" data-name="Path 10143" d="M2495.56,1219.09l-.071-.178a.125.125,0,0,0-.064-.07.124.124,0,0,0-.095,0l-1.342.535a.124.124,0,0,0-.065.164l.071.178a.124.124,0,0,0,.159.074l1.342-.535a.124.124,0,0,0,.065-.164Z" transform="translate(-2493.613 -1218.069)" fill="#355389"/>
          <path id="Path_10144" data-name="Path 10144" d="M2498.47,1226.38l-.071-.178a.124.124,0,0,0-.159-.074l-1.342.535a.124.124,0,0,0-.065.163l.071.178a.125.125,0,0,0,.064.07.124.124,0,0,0,.095,0l1.342-.535a.125.125,0,0,0,.066-.068.123.123,0,0,0,0-.095Z" transform="translate(-2496.214 -1224.596)" fill="#355389"/>
          <path id="Path_10145" data-name="Path 10145" d="M2501.37,1233.67l-.071-.178a.125.125,0,0,0-.16-.074l-1.341.535a.124.124,0,0,0-.064.163l.071.178a.124.124,0,0,0,.159.074l1.342-.535A.125.125,0,0,0,2501.37,1233.67Z" transform="translate(-2498.816 -1231.122)" fill="#355389"/>
          <path id="Path_10146" data-name="Path 10146" d="M2504.28,1240.96l-.071-.178a.124.124,0,0,0-.159-.074l-1.342.535a.124.124,0,0,0-.064.163l.071.178a.125.125,0,0,0,.159.074l1.342-.535A.124.124,0,0,0,2504.28,1240.96Z" transform="translate(-2501.417 -1237.649)" fill="#355389"/>
          <path id="Path_10147" data-name="Path 10147" d="M2507.19,1248.25l-.071-.178a.125.125,0,0,0-.159-.074l-1.341.535a.124.124,0,0,0-.065.163l.071.178a.124.124,0,0,0,.159.074l1.341-.535A.125.125,0,0,0,2507.19,1248.25Z" transform="translate(-2504.019 -1244.176)" fill="#355389"/>
          <path id="Path_10148" data-name="Path 10148" d="M2510.09,1255.54l-.071-.178a.124.124,0,0,0-.159-.074l-1.342.535a.124.124,0,0,0-.064.163l.071.178a.125.125,0,0,0,.159.074l1.342-.535a.124.124,0,0,0,.064-.163Z" transform="translate(-2506.62 -1250.703)" fill="#355389"/>
          <path id="Path_10149" data-name="Path 10149" d="M2513,1262.83l-.071-.178a.124.124,0,0,0-.159-.074l-1.342.535a.125.125,0,0,0-.065.163l.071.178a.124.124,0,0,0,.159.074l1.342-.535a.124.124,0,0,0,.065-.163Z" transform="translate(-2509.221 -1257.229)" fill="#355389"/>
          <path id="Path_10150" data-name="Path 10150" d="M2515.9,1270.12l-.071-.178a.125.125,0,0,0-.159-.074l-1.342.535a.125.125,0,0,0-.064.163l.071.178a.125.125,0,0,0,.159.074l1.341-.535a.124.124,0,0,0,.065-.163Z" transform="translate(-2511.823 -1263.757)" fill="#355389"/>
          <path id="Path_10151" data-name="Path 10151" d="M2518.81,1277.41l-.072-.178a.124.124,0,0,0-.159-.074l-1.342.535a.124.124,0,0,0-.064.163l.071.178a.124.124,0,0,0,.159.074l1.341-.535A.125.125,0,0,0,2518.81,1277.41Z" transform="translate(-2514.424 -1270.283)" fill="#355389"/>
          <path id="Path_10152" data-name="Path 10152" d="M2521.71,1284.7l-.071-.178a.124.124,0,0,0-.159-.074l-1.342.535a.125.125,0,0,0-.065.163l.071.178a.124.124,0,0,0,.159.074l1.342-.535a.124.124,0,0,0,.065-.163Z" transform="translate(-2517.025 -1276.81)" fill="#355389"/>
          <path id="Path_10153" data-name="Path 10153" d="M2524.62,1291.99l-.071-.178a.124.124,0,0,0-.159-.074l-1.342.535a.124.124,0,0,0-.064.163l.071.178a.124.124,0,0,0,.159.074l1.342-.535a.124.124,0,0,0,.064-.163Z" transform="translate(-2519.628 -1283.337)" fill="#355389"/>
        </g>
      </g>
      <g id="Group_6675" data-name="Group 6675" transform="translate(18.064 8.827)">
        <path id="Path_10154" data-name="Path 10154" d="M2520.88,1285.92l-5.61,7.988a.208.208,0,0,0-.029.058l-.572,1.755a.219.219,0,0,0,.341.243l1.5-1.132a.226.226,0,0,0,.047-.049l5.625-8.009a.22.22,0,0,0-.062-.312l-.944-.6a.22.22,0,0,0-.3.058Z" transform="translate(-2514.654 -1285.823)" fill="#b75742"/>
        <path id="Path_10155" data-name="Path 10155" d="M2516.88,1364.53l-.014.02-1.449,1.092-.4-.264.542-1.664A6.758,6.758,0,0,1,2516.88,1364.53Z" transform="translate(-2514.98 -1355.563)" fill="#f7cc7f"/>
      </g>
    </g>
    <g id="Group_6677" data-name="Group 6677" transform="translate(112.055 1.945)">
      <path id="Path_10156" data-name="Path 10156" d="M1998.05,460.248c.807.644,2.212,2.718,4,4.174,1.049.852,1.856.635,3.194.8,6.35.768,4.629,2.065,5.39,2.193-.216.5-2.194,4.7-2.564,5.553a1.549,1.549,0,0,1-1.784,1.017c-1.313-.182-2.638-.317-3.931-.6-3.314-.719-5.158-2.376-7.533-4.389a1.553,1.553,0,0,1-.459-1.955,53.87,53.87,0,0,1,3.687-6.793Z" transform="translate(-1992.984 -458.879)" fill="#466eb6"/>
      <path id="Path_10157" data-name="Path 10157" d="M2000.93,460.76c-.029,1.384.077,1.661-.517,1.452a8.353,8.353,0,0,1-1.042-.465c-.239-.123-.248-.285-.054-.48.282-.283.571-.559.854-.833a1.225,1.225,0,0,1,.537-1.471c.1-.061.028.068.912-1.967-2.924-.361-4.987-.6-8.555-1.041a4.8,4.8,0,0,1-2.54-1.1q-3.823-3.2-7.642-6.4a.7.7,0,0,1-.115-1.04.8.8,0,0,1,.787-.224c.814.1,8.8,1.094,9.607,1.189a5.249,5.249,0,0,1,2.826,1.215q3.755,3.144,7.52,6.277c.344.287.437.551.316.87a.672.672,0,0,1-.86.424c-.317-.068-.456.027-.565.32-.492,1.324-.835,1.617-.716,2.1a1.334,1.334,0,0,1-.753,1.179Z" transform="translate(-1982.584 -447.169)" fill="#86b1f2"/>
    </g>
    <g id="Group_6679" data-name="Group 6679" transform="translate(143.609 105.794)">
      <path id="Path_10158" data-name="Path 10158" d="M2284.43,1443.96l1.455,1.387a38.663,38.663,0,0,1,8.278,11.47l.223.472s3.81.337,4.342-3.108h0a57.566,57.566,0,0,1-8.365-12.285l-.688-1.611Z" transform="translate(-2284.399 -1440.222)" fill="#466eb6"/>
      <path id="Path_10159" data-name="Path 10159" d="M2289.42,1439.7c.187.268-.835,1.3-2.282,2.313s-2.779,1.623-2.966,1.355.841-1.316,2.289-2.326S2289.23,1439.43,2289.42,1439.7Z" transform="translate(-2284.147 -1439.636)" fill="#86b1f2"/>
      <path id="Path_10160" data-name="Path 10160" d="M2299.49,1440.29v-.005s-2.9,2.455-4.1,2.7l.369.5a15.249,15.249,0,0,0,1.443-.9C2298.63,1441.6,2299.65,1440.58,2299.49,1440.29Z" transform="translate(-2294.213 -1440.221)" fill="#355389"/>
      <g id="Group_6678" data-name="Group 6678" transform="translate(1.756 7.2)">
        <path id="Path_10161" data-name="Path 10161" d="M2344.26,1508.45c0,.423-.157,2.249-3.2,3.012q.3.409.589.824a4.881,4.881,0,0,0,3.177-2.308c.061-.119.136-.279.185-.4Q2344.63,1509.02,2344.26,1508.45Z" transform="translate(-2336.863 -1508.449)" fill="#b75742"/>
        <path id="Path_10162" data-name="Path 10162" d="M2305.4,1530.7l-4.472-.16,1.06.9-.633,1.149,4.233-1.079Z" transform="translate(-2300.93 -1528.231)" fill="#b75742"/>
        <path id="Path_10163" data-name="Path 10163" d="M2333.97,1542.01l-1.589,2.768,1.117-.426.43.879.747-2.911Z" transform="translate(-2329.086 -1538.498)" fill="#b75742"/>
        <path id="Path_10164" data-name="Path 10164" d="M2340.27,1524.08a1.469,1.469,0,1,1,1.318-1.566,1.447,1.447,0,0,1-1.318,1.566Z" transform="translate(-2334.787 -1519.817)" fill="#f47458"/>
      </g>
    </g>
    <g id="Group_6681" data-name="Group 6681" transform="translate(150.589 39.461)">
      <path id="Path_10165" data-name="Path 10165" d="M2360.61,820.7l-9.417-8.4a1.391,1.391,0,0,1,.487-2.148l7.516-4.256a1.174,1.174,0,0,1,1.372.064l9.417,8.4a1.39,1.39,0,0,1-.487,2.148l-7.516,4.256a1.175,1.175,0,0,1-1.372-.064Z" transform="translate(-2350.852 -805.706)" fill="#9bc1f9"/>
      <g id="Group_6680" data-name="Group 6680" transform="translate(8.52 1.241)">
        <path id="Path_10166" data-name="Path 10166" d="M2433.07,824.638l-.785-6.457a.579.579,0,0,1,.4-.59.373.373,0,0,1,.511.3l.723,5.941,7.141,1.727a.394.394,0,0,1,.239.561.553.553,0,0,1-.6.357Z" transform="translate(-2432.28 -817.569)" fill="#fff"/>
      </g>
    </g>
    <g id="Group_6682" data-name="Group 6682" transform="translate(0 135.22)">
      <path id="Path_10167" data-name="Path 10167" d="M912.61,1720.85a.992.992,0,0,0-.913,1.056c0,.583.409,1.056,1.022.347H1098.2c.238,0,.43-.311.432-.7h0c0-.389-.192-.706-.432-.706Z" transform="translate(-911.697 -1720.853)" fill="#184655"/>
    </g>
    <path id="Path_10168" data-name="Path 10168" d="M1245.88,602.494l.973,1.926,2.2-.071.938,2.236,2.319-.8,1.173,2.482,2.226-.471,1.519,2.2-.834.575-1.136-1.647-2.349.5-1.127-2.385-2.358.811-1.035-2.467-2.148.069-.9-1.785-1.4.341-.239-.984Z" transform="translate(-1208.96 -584.296)" fill="#f7cc7f"/>
    <path id="Path_10169" data-name="Path 10169" d="M2379.01,1052.23l2,.812,1.611-1.5,2.176,1.069,1.224-2.125,2.514,1.1,1.369-1.818,2.592.664-.251.981-1.938-.5-1.444,1.918-2.417-1.058-1.245,2.161-2.4-1.18-1.574,1.463-1.853-.753-.833,1.177-.827-.585Z" transform="translate(-2224.311 -984.768)" fill="#50bfa5"/>
  </g>
</svg>
