<svg xmlns="http://www.w3.org/2000/svg" xmlns:xlink="http://www.w3.org/1999/xlink" width="95.757" height="84.291" viewBox="0 0 95.757 84.291">
  <defs>
    <clipPath id="clip-path">
      <rect id="Rectangle_2744" data-name="Rectangle 2744" width="95.757" height="84.291" fill="none"/>
    </clipPath>
    <clipPath id="clip-path-3">
      <rect id="Rectangle_2734" data-name="Rectangle 2734" width="22.383" height="22.383" fill="none"/>
    </clipPath>
    <clipPath id="clip-path-4">
      <rect id="Rectangle_2735" data-name="Rectangle 2735" width="11.557" height="37.094" fill="none"/>
    </clipPath>
    <clipPath id="clip-path-5">
      <rect id="Rectangle_2736" data-name="Rectangle 2736" width="14.119" height="26.411" fill="none"/>
    </clipPath>
    <clipPath id="clip-path-6">
      <rect id="Rectangle_2737" data-name="Rectangle 2737" width="18.478" height="14.908" fill="none"/>
    </clipPath>
    <clipPath id="clip-path-7">
      <rect id="Rectangle_2738" data-name="Rectangle 2738" width="6.267" height="17.395" fill="none"/>
    </clipPath>
    <clipPath id="clip-path-8">
      <rect id="Rectangle_2739" data-name="Rectangle 2739" width="8.533" height="8.533" fill="none"/>
    </clipPath>
    <clipPath id="clip-path-10">
      <rect id="Rectangle_2741" data-name="Rectangle 2741" width="29.695" height="11.181" fill="none"/>
    </clipPath>
    <clipPath id="clip-path-11">
      <rect id="Rectangle_2742" data-name="Rectangle 2742" width="10.687" height="30.935" fill="none"/>
    </clipPath>
  </defs>
  <g id="submission-files" clip-path="url(#clip-path)">
    <g id="Group_8298" data-name="Group 8298" transform="translate(0 0)">
      <g id="Group_8297" data-name="Group 8297" clip-path="url(#clip-path)">
        <path id="Path_12307" data-name="Path 12307" d="M331.045,147.6c-18.075-8.053-24.171-33.371-16.882-51.723,8.084-20.353,30.125-25.826,33.912-26.685,13.178-2.991,36.19-2.53,45.3,12.67C403.511,98.76,389,121.4,379,131.606c-2.623,2.676-25.94,25.8-47.951,16" transform="translate(-301.889 -65.722)" fill="#ecf3fe"/>
        <path id="Path_12308" data-name="Path 12308" d="M1273.877,398.258,1233.906,386l10.072-36.5,41.412,7.045Zm-39.557-12.488,39.324,12.062,11.322-41.02-40.742-6.931Z" transform="translate(-1197.154 -339.087)" fill="#444"/>
        <path id="Path_12309" data-name="Path 12309" d="M131.984,1678.461l-.08-.149-13.776-25.7,16.095-8.629,2.688,5.013,11.168,20.833-.149.08Zm-13.4-25.707L132.123,1678l15.5-8.309-11.008-20.535-2.528-4.715-2.009,1.077Z" transform="translate(-114.609 -1595.02)" fill="#444"/>
        <g id="Group_8272" data-name="Group 8272" transform="translate(73.373 31.236)" opacity="0.2" style="mix-blend-mode: multiply;isolation: isolate">
          <g id="Group_8271" data-name="Group 8271">
            <g id="Group_8270" data-name="Group 8270" clip-path="url(#clip-path-3)">
              <path id="Path_12310" data-name="Path 12310" d="M2485.327,1063.066a11.189,11.189,0,1,1-7.583-13.888,11.189,11.189,0,0,1,7.583,13.888" transform="translate(-2463.4 -1048.722)" fill="#3a7ec1"/>
            </g>
          </g>
        </g>
        <path id="Path_12311" data-name="Path 12311" d="M2448.133,1063.066a11.189,11.189,0,1,1-7.583-13.888,11.189,11.189,0,0,1,7.583,13.888" transform="translate(-2353.94 -1017.485)" fill="#f9c067"/>
        <g id="Group_8275" data-name="Group 8275" transform="translate(74.029 19.738)" opacity="0.2" style="mix-blend-mode: multiply;isolation: isolate">
          <g id="Group_8274" data-name="Group 8274">
            <g id="Group_8273" data-name="Group 8273" clip-path="url(#clip-path-4)">
              <path id="Path_12312" data-name="Path 12312" d="M2485.417,699.781s11.889-36.418,11.551-36.418-3.974-.676-3.974-.676Z" transform="translate(-2485.417 -662.687)" fill="#3a7ec1"/>
            </g>
          </g>
        </g>
        <g id="Group_8278" data-name="Group 8278" transform="translate(52.099 50.513)" opacity="0.2" style="mix-blend-mode: multiply;isolation: isolate">
          <g id="Group_8277" data-name="Group 8277">
            <g id="Group_8276" data-name="Group 8276" clip-path="url(#clip-path-5)">
              <path id="Path_12313" data-name="Path 12313" d="M1749.148,1722.317l14.119-22.457-14.119-3.953Z" transform="translate(-1749.148 -1695.906)" fill="#3a7ec1"/>
            </g>
          </g>
        </g>
        <g id="Group_8281" data-name="Group 8281" transform="translate(48.707 58.022)" opacity="0.2" style="mix-blend-mode: multiply;isolation: isolate">
          <g id="Group_8280" data-name="Group 8280">
            <g id="Group_8279" data-name="Group 8279" clip-path="url(#clip-path-6)">
              <path id="Path_12314" data-name="Path 12314" d="M1649.024,1955.109a5.438,5.438,0,0,0-2.583.636l-2.351-1.88a3.384,3.384,0,0,0,.631-1.949c0-2.157-2.116-3.9-4.725-3.9s-4.725,1.748-4.725,3.9,2.116,3.9,4.725,3.9a5.261,5.261,0,0,0,3.3-1.111l2.17,1.736a3.529,3.529,0,0,0-1.168,2.569c0,2.156,2.116,3.9,4.725,3.9s4.725-1.748,4.725-3.9-2.116-3.9-4.725-3.9" transform="translate(-1635.271 -1948.011)" fill="#3a7ec1"/>
            </g>
          </g>
        </g>
        <path id="Path_12315" data-name="Path 12315" d="M29.494,1653.9l-15.8,8.469L0,1636.819l13.638-7.312,2.158-1.157,2.608,4.864Z" transform="translate(0 -1579.849)" fill="#3b82f4"/>
        <path id="Path_12316" data-name="Path 12316" d="M136.107,1898.422l.629-.337-.27-.5-1.864,1,.269.5.633-.339,1.092,2.038.6-.323Z" transform="translate(-130.593 -1841.062)" fill="#b3cef6"/>
        <path id="Path_12317" data-name="Path 12317" d="M219.005,1869.964a1.792,1.792,0,0,0-.758-.764,1.029,1.029,0,0,0-1.015.033,1.089,1.089,0,0,0-.611.807,1.685,1.685,0,0,0,.214,1.081,1.748,1.748,0,0,0,.78.782,1.048,1.048,0,0,0,1-.04,1.074,1.074,0,0,0,.611-.817,1.738,1.738,0,0,0-.221-1.082m-.634,1.4q-.468.251-.91-.573t.027-1.074q.453-.242.9.582t-.013,1.065" transform="translate(-210.15 -1813.41)" fill="#b3cef6"/>
        <path id="Path_12318" data-name="Path 12318" d="M322.292,1810.538a1.472,1.472,0,0,0-.569-.619,1.389,1.389,0,0,0-.639-.192,1.679,1.679,0,0,0-.777.248l-.775.416,1.362,2.54.874-.468a1.273,1.273,0,0,0,.691-.841,1.509,1.509,0,0,0-.167-1.083m-.473.968a.608.608,0,0,1-.353.5l-.245.132-.855-1.594.25-.134a.7.7,0,0,1,.364-.094.679.679,0,0,1,.372.156,1.152,1.152,0,0,1,.319.379,1.164,1.164,0,0,1,.148.655" transform="translate(-310.015 -1755.823)" fill="#b3cef6"/>
        <path id="Path_12319" data-name="Path 12319" d="M415.767,1764.483a1.79,1.79,0,0,0-.758-.764.978.978,0,0,0-.586-.111,1.227,1.227,0,0,0-.43.143,1.091,1.091,0,0,0-.611.807,1.687,1.687,0,0,0,.213,1.081,1.829,1.829,0,0,0,.579.665,1.528,1.528,0,0,0,.2.116,1.048,1.048,0,0,0,1-.041,1.076,1.076,0,0,0,.611-.816,1.741,1.741,0,0,0-.222-1.082m-.633,1.4q-.449.241-.873-.508c-.013-.021-.025-.043-.036-.065q-.441-.823.027-1.074a.457.457,0,0,1,.118-.045q.392-.09.776.626.441.823-.012,1.065" transform="translate(-401.052 -1711.072)" fill="#b3cef6"/>
        <path id="Path_12320" data-name="Path 12320" d="M191.911,2068.774a1.606,1.606,0,1,1-2.175-.657,1.606,1.606,0,0,1,2.175.657" transform="translate(-183.263 -2006.332)" fill="#b3cef6"/>
        <path id="Path_12321" data-name="Path 12321" d="M319.662,1910.31l-7.884,4.227a.668.668,0,0,1-.632-1.178l7.884-4.227a.668.668,0,0,1,.632,1.178" transform="translate(-301.537 -1852.191)" fill="#b3cef6"/>
        <path id="Path_12322" data-name="Path 12322" d="M269.574,2213.636a1.606,1.606,0,1,1-2.175-.657,1.606,1.606,0,0,1,2.175.657" transform="translate(-258.612 -2146.88)" fill="#b3cef6"/>
        <path id="Path_12323" data-name="Path 12323" d="M397.325,2055.171l-7.884,4.227a.668.668,0,0,1-.9-.273h0a.668.668,0,0,1,.273-.9l7.884-4.227a.668.668,0,1,1,.632,1.178" transform="translate(-376.886 -1992.737)" fill="#b3cef6"/>
        <path id="Path_12324" data-name="Path 12324" d="M347.237,2358.5a1.606,1.606,0,1,1-2.175-.656,1.606,1.606,0,0,1,2.175.656" transform="translate(-333.962 -2287.427)" fill="#b3cef6"/>
        <path id="Path_12325" data-name="Path 12325" d="M474.988,2200.033l-7.884,4.227a.669.669,0,0,1-.632-1.178l7.884-4.227a.668.668,0,1,1,.632,1.178" transform="translate(-452.236 -2133.284)" fill="#b3cef6"/>
        <path id="Path_12326" data-name="Path 12326" d="M424.9,2503.36a1.606,1.606,0,1,1-2.175-.657,1.606,1.606,0,0,1,2.175.657" transform="translate(-409.311 -2427.974)" fill="#b3cef6"/>
        <path id="Path_12327" data-name="Path 12327" d="M552.65,2344.9l-7.884,4.227a.668.668,0,0,1-.632-1.178l7.884-4.227a.668.668,0,1,1,.632,1.178" transform="translate(-527.585 -2273.832)" fill="#b3cef6"/>
        <g id="Group_8284" data-name="Group 8284" transform="translate(12.138 48.501)" opacity="0.2" style="mix-blend-mode: multiply;isolation: isolate">
          <g id="Group_8283" data-name="Group 8283">
            <g id="Group_8282" data-name="Group 8282" clip-path="url(#clip-path-7)">
              <path id="Path_12328" data-name="Path 12328" d="M413.792,1633.215l-2.109,4.219-1.037,2.073-2.759,5.517-.362.723.052-.556.392-4.249.147-1.6.394-4.262.085-.927.109-1.184.054-.586.266-2.879,2.159-1.157Z" transform="translate(-407.526 -1628.351)" fill="#3a7ec1"/>
            </g>
          </g>
        </g>
        <path id="Path_12329" data-name="Path 12329" d="M2556.547,1301.607a1.573,1.573,0,0,1-1.065-.569l-3.022-3.678a1.578,1.578,0,1,1,2.438-2l2.02,2.459,6.29-5.168a1.578,1.578,0,1,1,2,2.438l-7.51,6.17a1.574,1.574,0,0,1-1.156.351" transform="translate(-2476.085 -1253.797)" fill="#fff"/>
        <path id="Path_12330" data-name="Path 12330" d="M1682.6,1876.062a.573.573,0,0,1-.04-.808c.549-.606-.372-1.56-.382-1.57l-13.434-12.171a.572.572,0,1,1,.768-.848l13.458,12.194c.61.62,1.45,2.045.437,3.162a.573.573,0,0,1-.808.04" transform="translate(-1618.857 -1805.101)" fill="#636466"/>
        <path id="Path_12331" data-name="Path 12331" d="M1685.615,1930.443a.572.572,0,0,0,.808-.04c.549-.606,1.589.218,1.6.226l13.432,12.172a.572.572,0,1,0,.768-.848l-13.458-12.194c-.677-.546-2.178-1.241-3.19-.124a.572.572,0,0,0,.04.808" transform="translate(-1635.226 -1871.581)" fill="#636466"/>
        <g id="Group_8287" data-name="Group 8287" transform="translate(49.166 54.586)" opacity="0.28">
          <g id="Group_8286" data-name="Group 8286">
            <g id="Group_8285" data-name="Group 8285" clip-path="url(#clip-path-8)">
              <path id="Path_12332" data-name="Path 12332" d="M1658.1,1839.788a4.266,4.266,0,1,1-.3-6.027,4.267,4.267,0,0,1,.3,6.027" transform="translate(-1650.671 -1832.657)" fill="#f2f2f2"/>
            </g>
          </g>
        </g>
        <g id="Group_8290" data-name="Group 8290" transform="translate(59.244 63.718)" opacity="0.28">
          <g id="Group_8289" data-name="Group 8289">
            <g id="Group_8288" data-name="Group 8288" clip-path="url(#clip-path-8)">
              <path id="Path_12333" data-name="Path 12333" d="M1996.442,2146.353a4.266,4.266,0,1,1-.3-6.026,4.267,4.267,0,0,1,.3,6.026" transform="translate(-1989.013 -2139.222)" fill="#f2f2f2"/>
            </g>
          </g>
        </g>
        <path id="Path_12334" data-name="Path 12334" d="M1645.895,1819.962a4.967,4.967,0,0,0-5.881-.574,3.773,3.773,0,0,0-3.046-2.76,4.94,4.94,0,1,0-.8,1.206c.036-.04.074-.082.107-.124.116,0,.23.008.344.019a2.6,2.6,0,0,1,2.34,2.12,2.979,2.979,0,0,1,.049.343c-.039.037-.074.077-.11.116a5.006,5.006,0,0,0-1.2,4.206,5,5,0,0,0,.152.622,4.957,4.957,0,1,0,8.053-5.173m-13.583-1.65a3.813,3.813,0,1,1,2.738-6.634,3.82,3.82,0,0,1,.623,4.924l0,0a3.6,3.6,0,0,1-.355.46c-.077.084-.157.167-.239.241a3.728,3.728,0,0,1-1.82.929,3.829,3.829,0,0,1-.944.076m7.694,8.15a3.783,3.783,0,0,1-1.211-2.276,3.822,3.822,0,0,1-.017-.947,3.731,3.731,0,0,1,.746-1.9,3.307,3.307,0,0,1,.217-.262,3.6,3.6,0,0,1,.423-.4l0,0a3.813,3.813,0,1,1-.16,5.788" transform="translate(-1579.056 -1755.652)" fill="#636466"/>
        <path id="Path_12335" data-name="Path 12335" d="M1259.249,401l-10.431,37.791a3.351,3.351,0,1,1-6.46-1.783l1.889-6.844-33.5-9.245,7.425-26.907Z" transform="translate(-1174.683 -382.274)" fill="#fff"/>
        <g id="Group_8293" data-name="Group 8293" transform="translate(41.501 15.886)" opacity="0.2" style="mix-blend-mode: multiply;isolation: isolate">
          <g id="Group_8292" data-name="Group 8292">
            <g id="Group_8291" data-name="Group 8291" clip-path="url(#clip-path-10)">
              <path id="Path_12336" data-name="Path 12336" d="M1423.019,543.672l-.233.845-29.462-8.13.842-3.05c5.028,1.781,28.853,10.335,28.853,10.335" transform="translate(-1393.324 -533.337)" fill="#3a7ec1"/>
            </g>
          </g>
        </g>
        <g id="Group_8296" data-name="Group 8296" transform="translate(65.797 26.961)" opacity="0.2" style="mix-blend-mode: multiply;isolation: isolate">
          <g id="Group_8295" data-name="Group 8295">
            <g id="Group_8294" data-name="Group 8294" clip-path="url(#clip-path-11)">
              <path id="Path_12337" data-name="Path 12337" d="M2216.368,905.336a4.535,4.535,0,0,0-2.969.189l-4.374,15.849,4.711,1.3-2.833,10.268a3.728,3.728,0,0,0,.407,3.163,3.841,3.841,0,0,0,2-2.575l2.814-10.2,3.365-12.2.055-.2a4.555,4.555,0,0,0-3.179-5.6" transform="translate(-2209.025 -905.171)" fill="#3a7ec1"/>
            </g>
          </g>
        </g>
        <path id="Path_12338" data-name="Path 12338" d="M1083.877,619.129l-35.456-9.784a4.674,4.674,0,0,1-3.262-5.749l7.208-26.12,27.949,7.713-1.212,4.391a4.534,4.534,0,0,1,1.817-2.546c.105-.073.214-.141.326-.2a4.556,4.556,0,0,1,6.64,5.174l-6.348,23a3.351,3.351,0,0,0,2.338,4.122" transform="translate(-1013.864 -560.275)" fill="#5b97ef"/>
        <path id="Path_12339" data-name="Path 12339" d="M1953.816,928.968l-6.538-1.8,7.267-26.336a3.132,3.132,0,1,1,4.72,3.08l-6.085,22.049a3.349,3.349,0,0,0,.635,3.011" transform="translate(-1889.278 -871.624)" fill="#3b82f4"/>
        <path id="Path_12340" data-name="Path 12340" d="M447.475,563.039l13.141-47.62a4.556,4.556,0,0,1,5.6-3.18L426.225,501.2a4.522,4.522,0,0,0-5.561,3.156l-13.15,47.653Z" transform="translate(-395.376 -486.115)" fill="#fff"/>
        <path id="Path_12341" data-name="Path 12341" d="M925.8,766.823a2.153,2.153,0,1,1-1.5-2.648,2.152,2.152,0,0,1,1.5,2.648" transform="translate(-894.127 -741.338)" fill="#e4ecf9"/>
        <path id="Path_12342" data-name="Path 12342" d="M1143.971,853.417l-24.723-6.822a1.056,1.056,0,0,1-.735-1.3l.012-.045a1.056,1.056,0,0,1,1.3-.735l24.722,6.822a1.056,1.056,0,0,1,.735,1.3l-.012.045a1.056,1.056,0,0,1-1.3.735" transform="translate(-1085.161 -819.329)" fill="#e4ecf9"/>
        <path id="Path_12343" data-name="Path 12343" d="M859.894,1005.67a2.153,2.153,0,1,1-1.5-2.648,2.153,2.153,0,0,1,1.5,2.648" transform="translate(-830.179 -973.071)" fill="#e4ecf9"/>
        <path id="Path_12344" data-name="Path 12344" d="M1078.06,1092.264l-24.722-6.822a1.056,1.056,0,0,1-.735-1.3l.012-.045a1.056,1.056,0,0,1,1.3-.735l24.722,6.822a1.056,1.056,0,0,1,.735,1.3l-.012.045a1.056,1.056,0,0,1-1.3.735" transform="translate(-1021.214 -1051.062)" fill="#e4ecf9"/>
        <path id="Path_12345" data-name="Path 12345" d="M793.984,1244.516a2.153,2.153,0,1,1-1.5-2.648,2.153,2.153,0,0,1,1.5,2.648" transform="translate(-766.232 -1204.803)" fill="#e4ecf9"/>
        <path id="Path_12346" data-name="Path 12346" d="M1012.15,1331.111l-24.722-6.822a1.056,1.056,0,0,1-.735-1.3l.012-.045a1.056,1.056,0,0,1,1.3-.735l24.722,6.822a1.056,1.056,0,0,1,.735,1.3l-.012.044a1.056,1.056,0,0,1-1.3.735" transform="translate(-957.267 -1282.795)" fill="#e4ecf9"/>
        <path id="Path_12347" data-name="Path 12347" d="M728.073,1483.364a2.153,2.153,0,1,1-1.5-2.648,2.153,2.153,0,0,1,1.5,2.648" transform="translate(-702.285 -1436.536)" fill="#e4ecf9"/>
        <path id="Path_12348" data-name="Path 12348" d="M946.239,1569.959l-24.722-6.822a1.056,1.056,0,0,1-.735-1.3l.012-.045a1.056,1.056,0,0,1,1.3-.735l24.722,6.823a1.056,1.056,0,0,1,.735,1.3l-.012.045a1.056,1.056,0,0,1-1.3.735" transform="translate(-893.319 -1514.528)" fill="#e4ecf9"/>
        <path id="Path_12349" data-name="Path 12349" d="M662.162,1722.21a2.153,2.153,0,1,1-1.5-2.648,2.152,2.152,0,0,1,1.5,2.648" transform="translate(-638.337 -1668.269)" fill="#e4ecf9"/>
        <path id="Path_12350" data-name="Path 12350" d="M880.328,1808.805l-24.723-6.822a1.056,1.056,0,0,1-.735-1.3l.012-.045a1.056,1.056,0,0,1,1.3-.735l24.722,6.822a1.056,1.056,0,0,1,.735,1.3l-.012.045a1.056,1.056,0,0,1-1.3.735" transform="translate(-829.371 -1746.26)" fill="#e4ecf9"/>
        <path id="Path_12351" data-name="Path 12351" d="M596.251,1961.058a2.153,2.153,0,1,1-1.5-2.648,2.153,2.153,0,0,1,1.5,2.648" transform="translate(-574.389 -1900.002)" fill="#e4ecf9"/>
        <path id="Path_12352" data-name="Path 12352" d="M814.417,2047.653l-24.722-6.822a1.057,1.057,0,0,1-.735-1.3l.012-.045a1.057,1.057,0,0,1,1.3-.735l24.722,6.822a1.057,1.057,0,0,1,.735,1.3l-.012.045a1.057,1.057,0,0,1-1.3.735" transform="translate(-765.423 -1977.994)" fill="#e4ecf9"/>
        <path id="Path_12353" data-name="Path 12353" d="M851.963,1024.458a.574.574,0,0,1-.348-.271l-.859-1.513a.577.577,0,1,1,1-.569l.574,1.011,2.588-1.468a.577.577,0,0,1,.569,1L852.4,1024.4a.575.575,0,0,1-.438.054" transform="translate(-825.343 -991.145)" fill="#f9c067"/>
        <path id="Path_12354" data-name="Path 12354" d="M724.031,1488.053a.576.576,0,0,1-.348-.271l-.859-1.513a.577.577,0,0,1,1-.569l.574,1.011,2.588-1.468a.577.577,0,0,1,.569,1L724.469,1488a.576.576,0,0,1-.438.054" transform="translate(-701.222 -1440.931)" fill="#f9c067"/>
        <path id="Path_12355" data-name="Path 12355" d="M656.175,1733.948a.574.574,0,0,1-.348-.271l-.859-1.513a.577.577,0,1,1,1-.569l.574,1.011,2.587-1.468a.577.577,0,1,1,.569,1l-3.089,1.753a.575.575,0,0,1-.438.054" transform="translate(-635.387 -1679.503)" fill="#f9c067"/>
        <path id="Path_12356" data-name="Path 12356" d="M592.21,1965.747a.575.575,0,0,1-.348-.271l-.859-1.513a.577.577,0,1,1,1-.569l.574,1.011,2.588-1.469a.577.577,0,0,1,.569,1l-3.089,1.753a.576.576,0,0,1-.438.054" transform="translate(-573.327 -1904.397)" fill="#f9c067"/>
        <path id="Path_12357" data-name="Path 12357" d="M1686.344,2.587A2.582,2.582,0,1,1,1683.762,0a2.582,2.582,0,0,1,2.582,2.582" transform="translate(-1631.105 -0.005)" fill="#4786d1"/>
        <path id="Path_12358" data-name="Path 12358" d="M35.334,1172.806a2.118,2.118,0,1,1-2.118-2.118,2.118,2.118,0,0,1,2.118,2.118" transform="translate(-30.172 -1135.819)" fill="#4786d1"/>
        <path id="Path_12359" data-name="Path 12359" d="M2597.906,2326.375a2.582,2.582,0,1,1-2.582-2.582,2.582,2.582,0,0,1,2.582,2.582" transform="translate(-2515.516 -2254.578)" fill="#4786d1"/>
      </g>
    </g>
  </g>
</svg>
