<svg xmlns="http://www.w3.org/2000/svg" xmlns:xlink="http://www.w3.org/1999/xlink" width="282.594" height="236.86" viewBox="0 0 282.594 236.86">
  <defs>
    <linearGradient id="linear-gradient" x1="0.5" y1="-0.227" x2="0.5" y2="0.559" gradientUnits="objectBoundingBox">
      <stop offset="0" stop-color="#e5e5e5"/>
      <stop offset="0" stop-color="#dcdada"/>
      <stop offset="1" stop-color="#fff" stop-opacity="0"/>
    </linearGradient>
    <linearGradient id="crash-screen-linear-gradient-2" x1="86.402" y1="0.412" x2="87.007" y2="0.823" gradientUnits="objectBoundingBox">
      <stop offset="0" stop-color="#4e9cff"/>
      <stop offset="0.984" stop-color="#176ad4"/>
    </linearGradient>
    <linearGradient id="linear-gradient-3" x1="1.154" y1="0.568" x2="0.42" y2="0.49" gradientUnits="objectBoundingBox">
      <stop offset="0" stop-color="#f2bfad"/>
      <stop offset="1" stop-color="#f2dad4"/>
    </linearGradient>
    <linearGradient id="linear-gradient-4" x1="0.202" y1="0.241" x2="1.023" y2="0.87" xlink:href="#crash-screen-linear-gradient-2"/>
    <linearGradient id="linear-gradient-5" x1="0.51" y1="0.622" x2="0.569" y2="1.822" gradientUnits="objectBoundingBox">
      <stop offset="0" stop-color="#f2bfad"/>
      <stop offset="0.704" stop-color="#f2dad4"/>
    </linearGradient>
    <linearGradient id="linear-gradient-6" x1="0.404" y1="0.306" x2="0.835" y2="1.076" xlink:href="#linear-gradient-3"/>
    <linearGradient id="linear-gradient-7" x1="0.386" y1="0.075" x2="0.681" y2="1.17" gradientUnits="objectBoundingBox">
      <stop offset="0" stop-color="#f6dbdb"/>
      <stop offset="1" stop-color="#eb9a99"/>
    </linearGradient>
    <linearGradient id="linear-gradient-8" x1="0.314" y1="0.412" x2="0.919" y2="0.823" xlink:href="#crash-screen-linear-gradient-2"/>
  </defs>
  <g id="crash-screen-image" transform="translate(0 -0.002)">
    <g id="Group_6481" data-name="Group 6481" transform="translate(0 111.993)">
      <path id="Path_9914" data-name="Path 9914" d="M1753.94,907.678a1.964,1.964,0,1,0-3.88.607c.282,1.829.64,7.558-1.336,9.863a2.639,2.639,0,0,1-1.594.917l.18-10.912a2.838,2.838,0,1,0-5.676.023l.513,20.708a2.649,2.649,0,0,1-1.661-.925c-1.977-2.3-1.618-8.035-1.337-9.863a1.963,1.963,0,1,0-3.879-.607c-.141.9-1.276,8.923,2.23,13.021a6.648,6.648,0,0,0,4.745,2.332l.223,9.013h4.285l.311-18.832a6.635,6.635,0,0,0,4.645-2.325C1755.21,916.6,1754.08,908.58,1753.94,907.678Z" transform="translate(-1521.352 -905.268)" fill="#bdbdbd"/>
      <path id="Path_9915" data-name="Path 9915" d="M1199.39,964.126a1.252,1.252,0,0,0-2.473.387c.179,1.166.408,4.818-.852,6.287a1.682,1.682,0,0,1-1.016.584l.115-6.956a1.809,1.809,0,1,0-3.618.015l.327,13.2a1.687,1.687,0,0,1-1.058-.59c-1.26-1.469-1.032-5.122-.852-6.288a1.252,1.252,0,0,0-2.473-.387c-.09.574-.814,5.688,1.422,8.3a4.238,4.238,0,0,0,3.025,1.487l.142,5.746h2.731l.2-12a4.232,4.232,0,0,0,2.961-1.482C1200.2,969.814,1199.48,964.7,1199.39,964.126Z" transform="translate(-1149.751 -944.161)" fill="#bdbdbd"/>
      <ellipse id="Ellipse_240" data-name="Ellipse 240" cx="141.297" cy="50.022" rx="141.297" ry="50.022" transform="translate(0 24.825)" fill="url(#linear-gradient)"/>
    </g>
    <g id="Group_6482" data-name="Group 6482" transform="translate(117.116)">
      <path id="Path_9916" data-name="Path 9916" d="M1568.59,948.807s-.082,4.814,0,5.3-1.884,3.3-2.688,3.178a8.8,8.8,0,0,1-2.643-.661c-.232-.268-.13-.9-.047-1.476s.684-5.819.684-6.087S1567.7,948.075,1568.59,948.807Z" transform="translate(-1521.857 -822.599)" fill="#ffd3bc"/>
      <path id="Path_9917" data-name="Path 9917" d="M1564.28,964.282c-1.005.543-1.569,2.2-1.712,2.216s-.409-.02-.409-.184.041-.715-.143-.715-.388.9-.429,2.205-.506,4.423,0,4.819c.317.249,3.227,1.777,3.308,1.981s-.062,1.634.184,1.858.817.776,1.266.8a19.533,19.533,0,0,0,4.268,0,9.4,9.4,0,0,0,2.818-1.042c.041-.163-.306-3.635-.694-4.064s-3.186-4.268-3.41-4.615a3.958,3.958,0,0,1-.388-1.675,2.158,2.158,0,0,0-1.268-1.817,5.769,5.769,0,0,0-3.391.233Z" transform="translate(-1520.659 -833.055)" fill="url(#crash-screen-linear-gradient-2)"/>
      <path id="Path_9918" data-name="Path 9918" d="M1488.71,957.465s0,2.8-.081,3.286,1.885,3.3,2.688,3.178a8.8,8.8,0,0,0,2.643-.66c.232-.268.13-.9.047-1.477s-.6-3.809-.6-4.077S1489.6,956.733,1488.71,957.465Z" transform="translate(-1471.314 -828.473)" fill="#ffd3bc"/>
      <path id="Path_9919" data-name="Path 9919" d="M1488.42,764.272c-1.137,4.136-3.288,18.3-3.288,25.189s-.689,24.441-.689,27.109-.287,9.287.4,9.632a6.892,6.892,0,0,0,4.482,1.034,2.949,2.949,0,0,0,2.815-2.988c.057-1.264.575-10.342,1.092-13.847s2.356-10.265,3.563-14.613,4.022-13.091,4.769-13.058,5.4,19.188,5.787,20.274,1.126,16.51,1.174,17.8,0,2.541.815,3.068a14.317,14.317,0,0,0,4.6,1.917c1.294.1,2.157-1.965,2.4-2.589s.665-21.253.511-26.912.294-16.212.033-19.654-1.1-10.816-1.639-12.367S1488.42,764.272,1488.42,764.272Z" transform="translate(-1468.432 -697.14)" fill="#192b59"/>
      <path id="Path_9920" data-name="Path 9920" d="M1460.26,577.774c1.085-1.206,6.151-6.916,7.157-7.117s3.452-.643,4-1.206,2.853-7.807,1.94-9.125-4.438-.944-5.506,1.3-1.015,3.418-2.777,4.967-9.441,7.827-10.156,8.461.7,3.715,1.825,4.25S1460.26,577.774,1460.26,577.774Z" transform="translate(-1448.308 -558.713)" fill="url(#linear-gradient-3)"/>
      <path id="Path_9921" data-name="Path 9921" d="M1460.73,610.92c-2.588.543-6.889,1-8.308,1.461s-7.014,2.422-6.972,1.587,2.589-4.509,2.129-4.885-3.215-.835-3.674-1.419-1.086-1.962-1.712-1.8-7.887,6.93-7.39,9.519c1.172,6.1,18.331,10.551,18.722,13.214s-1.331,28.188-.392,29.127,10.884,4.541,15.9,4.855,13.8-1.433,14.282-2.752-2.445-26.681-2.106-26.681.435,7.984,4.252,10.048c2.519,1.363,5.986-.041,6.649-.793s-2.368-11.366-3.74-14.945-2.684-10.976-5.786-13.6-7.48-2.178-8.988-2.795-6.565-.175-7.841-.308A46.4,46.4,0,0,0,1460.73,610.92Z" transform="translate(-1434.776 -590.12)" fill="url(#crash-screen-linear-gradient-2)"/>
      <path id="Path_9922" data-name="Path 9922" d="M1604.81,695.932s-4.462,1.349-4.811,1.813-.967,2.321,0,3.095,2.027,1.352,3.175.46,2.193-2.094,2.856-2.246,2.646.133,3.479-.194,2.412-6.639,1.774-7.021S1604.81,695.932,1604.81,695.932Z" transform="translate(-1546.531 -648.445)" fill="url(#linear-gradient-5)"/>
      <path id="Path_9923" data-name="Path 9923" d="M1505.16,576.859c-1.44-.3-4.22-3.018-4.476-5.78-.249-2.692-2.228-10.257,4.663-13.094,6.465-2.662,13.118.077,14.075,3.36.893,3.066-6.7,3.2-9.479,5.2s-2.971,3.323-3.666,3.007S1505.16,576.859,1505.16,576.859Z" transform="translate(-1479.188 -556.911)" fill="#e64d4e"/>
      <path id="Path_9924" data-name="Path 9924" d="M1514.82,599.508c-.092,1.233-.4,7.2.115,8.074.474.806,1.316,3.15,4.621,3.046s5.447-3.408,5.628-3.795-.207-5.164-.207-5.964-4.44-2.685-6.222-2.633S1514.91,598.349,1514.82,599.508Z" transform="translate(-1488.97 -584.95)" fill="url(#linear-gradient-3)"/>
      <path id="Path_9925" data-name="Path 9925" d="M1509.7,581.862c.373-.011-.068,2.262.608,3s3.613,4.616,6.723,4.237c2.689-.327,2.3-2.644,2.691-4.552.352-1.732,1.47-1.881,1.862-6.4.152-1.75.979-4.49-.54-5s-7.225-1.857-8.642,0-1.553,6.313-2.3,5.739-2.3-3.376-3.207-1.857S1507.7,581.919,1509.7,581.862Z" transform="translate(-1483.54 -567.286)" fill="#f2dad4"/>
      <path id="Path_9926" data-name="Path 9926" d="M1571.29,673.183l-9.049,11.441a.9.9,0,0,0,.72,1.456l16.727-.284a.9.9,0,0,0,.7-.36l8.549-11.424a.816.816,0,0,0-.66-1.3l-16.293.135a.9.9,0,0,0-.694.341Z" transform="translate(-1521.13 -635.48)" fill="url(#linear-gradient-7)"/>
      <path id="Path_9927" data-name="Path 9927" d="M1620.51,688.507c-.88.089-2.159.584-2.159,1.044s1.027.587,1.31.63.655.131.549.273-.319.85-.885.726a34.608,34.608,0,0,0-3.523-.159c-.478,0-1.044.337-1.079.69s-.142.425-.425.443-.8.283-.8.743,1.137.875,1.137,1.037a20.338,20.338,0,0,0,2.668,1.779c.437.253,1.254.9,1.714.9a1.394,1.394,0,0,0,1.288-1.07c.058-.633.966-1.093.978-1.4s-.288-.541-.253-.736.828-.472.828-.966a5.619,5.619,0,0,0-.356-1.369c-.046-.207-.23-.656-.046-.714s.828-.656.713-1.208S1620.92,688.466,1620.51,688.507Z" transform="translate(-1556.045 -646.195)" fill="#ffd3bc"/>
      <path id="Path_9928" data-name="Path 9928" d="M1479,966.688c1.005.543,1.569,2.2,1.712,2.216s.408-.021.408-.184-.041-.715.143-.715.388.9.429,2.205.505,4.423,0,4.819c-.317.249-3.226,1.777-3.308,1.981s.061,1.633-.184,1.858-.817.776-1.266.8a19.5,19.5,0,0,1-4.268,0,9.4,9.4,0,0,1-2.818-1.041c-.041-.164.306-3.635.694-4.064s3.186-4.268,3.41-4.615a3.963,3.963,0,0,0,.388-1.674,2.158,2.158,0,0,1,1.269-1.817,5.771,5.771,0,0,1,3.391.231Z" transform="translate(-1458.57 -834.687)" fill="url(#crash-screen-linear-gradient-2)"/>
    </g>
  </g>
</svg>
