<svg xmlns="http://www.w3.org/2000/svg" width="15.143" height="20.19" viewBox="0 0 15.143 20.19">
  <path id="Icon_awesome-hourglass-start" data-name="Icon awesome-hourglass-start" d="M14.2,0H.946A.946.946,0,0,0,0,.946v.631a.946.946,0,0,0,.946.946c0,3.587,2.012,6.614,4.765,7.571C2.958,11.052.946,14.079.946,17.666A.946.946,0,0,0,0,18.613v.631a.946.946,0,0,0,.946.946H14.2a.946.946,0,0,0,.946-.946v-.631a.946.946,0,0,0-.946-.946c0-3.587-2.012-6.614-4.765-7.571C12.184,9.138,14.2,6.111,14.2,2.524a.946.946,0,0,0,.946-.946V.946A.946.946,0,0,0,14.2,0ZM11.672,17.666H3.47c0-3.054,1.822-5.678,4.1-5.678S11.672,14.611,11.672,17.666Z" fill="#fff"/>
</svg>