<svg xmlns="http://www.w3.org/2000/svg" width="18.208" height="17.368" viewBox="0 0 18.208 17.368">
  <path id="path" d="M5.811,5.811V4.155A1.66,1.66,0,0,1,7.466,2.5H19.053a1.66,1.66,0,0,1,1.655,1.655v7.863a1.66,1.66,0,0,1-1.655,1.655h-.828v2.9a.828.828,0,0,1-1.407.579l-.993-.993H9.866L6.39,19.632a.828.828,0,0,1-1.407-.579v-2.9H4.155A1.66,1.66,0,0,1,2.5,14.5V7.466A1.66,1.66,0,0,1,4.155,5.811ZM16.57,12.845a.782.782,0,0,1,.828-.828h1.655V4.155H7.466v7.863h6.207a.751.751,0,0,1,.579.248l2.317,2.317V12.845ZM5.811,7.466H4.155V14.5H5.811a.782.782,0,0,1,.828.828v1.738l2.317-2.317a.751.751,0,0,1,.579-.248H14.17l-.828-.828H7.466a1.66,1.66,0,0,1-1.655-1.655V7.466Z" transform="translate(-2.5 -2.5)" fill="#17c8af"/>
</svg>
