<svg xmlns="http://www.w3.org/2000/svg" width="67.836" height="71.025" viewBox="0 0 67.836 71.025">
  <g id="bookIcon" transform="translate(-11.497)">
    <path id="Path_1627" data-name="Path 1627" d="M31.985,0a9.133,9.133,0,0,0-9.122,9.122V51.484h-1.6a9.764,9.764,0,0,0,0,19.529l58.071.012V0ZM27.02,9.122a4.97,4.97,0,0,1,4.965-4.965h2.028V51.484H27.02ZM15.655,61.248a5.613,5.613,0,0,1,5.607-5.607H57.939a9.715,9.715,0,0,0-1.548,3.509H21.3v4.158H56.383a9.716,9.716,0,0,0,1.562,3.555l-36.684-.008a5.613,5.613,0,0,1-5.607-5.607Zm59.52,5.618-9.248,0v-.009a5.607,5.607,0,1,1,0-11.213V51.484c-.059,0-.118,0-.177,0v0H38.17V4.158h37Z" transform="translate(0)" fill="#78849e"/>
    <path id="Path_1628" data-name="Path 1628" d="M258.536,84.956h21.415v4.158H258.536Z" transform="translate(-212.769 -73.171)" fill="#78849e"/>
    <path id="Path_1629" data-name="Path 1629" d="M258.536,144.9h21.415v4.158H258.536Z" transform="translate(-212.769 -124.803)" fill="#78849e"/>
  </g>
</svg>
