<svg xmlns="http://www.w3.org/2000/svg" width="29" height="31" viewBox="0 0 29 31">
  <path id="Icon_awesome-clipboard-list" data-name="Icon awesome-clipboard-list" d="M24.5,3.75H18.667C18.667,1.682,16.574,0,14,0S9.333,1.682,9.333,3.75H3.5C1.568,3.75,0,5.01,0,6.563V27.188C0,28.74,1.568,30,3.5,30h21c1.932,0,3.5-1.26,3.5-2.812V6.563C28,5.01,26.432,3.75,24.5,3.75ZM7,24.844a1.6,1.6,0,0,1-1.75-1.406A1.6,1.6,0,0,1,7,22.031a1.6,1.6,0,0,1,1.75,1.406A1.6,1.6,0,0,1,7,24.844Zm0-5.625a1.6,1.6,0,0,1-1.75-1.406A1.6,1.6,0,0,1,7,16.406a1.6,1.6,0,0,1,1.75,1.406A1.6,1.6,0,0,1,7,19.219Zm0-5.625a1.6,1.6,0,0,1-1.75-1.406A1.6,1.6,0,0,1,7,10.781a1.6,1.6,0,0,1,1.75,1.406A1.6,1.6,0,0,1,7,13.594Zm7-11.25A1.6,1.6,0,0,1,15.75,3.75,1.6,1.6,0,0,1,14,5.156,1.6,1.6,0,0,1,12.25,3.75,1.6,1.6,0,0,1,14,2.344Zm9.333,21.563a.537.537,0,0,1-.583.469H12.25a.537.537,0,0,1-.583-.469v-.937a.537.537,0,0,1,.583-.469h10.5a.537.537,0,0,1,.583.469Zm0-5.625a.537.537,0,0,1-.583.469H12.25a.537.537,0,0,1-.583-.469v-.937a.537.537,0,0,1,.583-.469h10.5a.537.537,0,0,1,.583.469Zm0-5.625a.537.537,0,0,1-.583.469H12.25a.537.537,0,0,1-.583-.469v-.937a.537.537,0,0,1,.583-.469h10.5a.537.537,0,0,1,.583.469Z" transform="translate(0.5 0.5)" stroke="#fff" stroke-width="1"/>
</svg>
