<svg xmlns="http://www.w3.org/2000/svg" width="20" height="13.333" viewBox="0 0 20 13.333">
  <path id="Icon_awesome-folder-open" data-name="Icon awesome-folder-open" d="M19.885,12.42,17.37,16.731a2.222,2.222,0,0,1-1.919,1.1H1.563a.833.833,0,0,1-.72-1.253l2.515-4.311a2.222,2.222,0,0,1,1.92-1.1H19.165a.833.833,0,0,1,.72,1.253ZM5.278,10.056H16.667V8.389A1.667,1.667,0,0,0,15,6.722H9.444L7.222,4.5H1.667A1.667,1.667,0,0,0,0,6.167v9.654l2.4-4.112A3.345,3.345,0,0,1,5.278,10.056Z" transform="translate(0 -4.5)" fill="#fff"/>
</svg>
