<svg xmlns="http://www.w3.org/2000/svg" width="20.641" height="20.643" viewBox="0 0 20.641 20.643">
  <path id="fullscreen_exit_FILL0_wght700_GRAD200_opsz48" d="M15.131,29.291A1.463,1.463,0,0,1,14,28.836a1.554,1.554,0,0,1-.421-1.094V24.408h-3.33a1.521,1.521,0,0,1-1.094-.438A1.437,1.437,0,0,1,8.7,22.893a1.476,1.476,0,0,1,.455-1.111,1.521,1.521,0,0,1,1.094-.438H15.1a1.5,1.5,0,0,1,1.549,1.549v4.849a1.492,1.492,0,0,1-.455,1.094,1.454,1.454,0,0,1-1.063.455ZM10.249,16.63A1.552,1.552,0,0,1,8.7,15.081a1.423,1.423,0,0,1,.455-1.094,1.554,1.554,0,0,1,1.094-.421h3.333V10.2a1.539,1.539,0,0,1,.438-1.077A1.413,1.413,0,0,1,15.1,8.65a1.45,1.45,0,0,1,1.111.471,1.539,1.539,0,0,1,.438,1.077V15.08A1.5,1.5,0,0,1,15.1,16.63Zm12.66,12.66a1.476,1.476,0,0,1-1.111-.455,1.521,1.521,0,0,1-.438-1.094V22.893a1.5,1.5,0,0,1,1.549-1.549h4.882a1.536,1.536,0,0,1,1.077,2.644,1.572,1.572,0,0,1-1.077.421H24.425v3.333A1.554,1.554,0,0,1,24,28.836a1.423,1.423,0,0,1-1.091.455Zm0-12.66a1.5,1.5,0,0,1-1.549-1.549V10.2a1.51,1.51,0,0,1,.455-1.077,1.466,1.466,0,0,1,1.094-.471A1.4,1.4,0,0,1,24,9.121a1.572,1.572,0,0,1,.421,1.077v3.367h3.367a1.572,1.572,0,0,1,1.077.421,1.4,1.4,0,0,1,.471,1.094,1.45,1.45,0,0,1-.471,1.111,1.539,1.539,0,0,1-1.077.438Z" transform="translate(-8.699 -8.649)" fill="#fff"/>
</svg>
