<svg xmlns="http://www.w3.org/2000/svg" width="19.577" height="19.579" viewBox="0 0 19.577 19.579">
  <path id="fullscreen_FILL0_wght700_GRAD200_opsz48_1_" data-name="fullscreen_FILL0_wght700_GRAD200_opsz48 (1)" d="M10.169,28.225A1.42,1.42,0,0,1,8.7,26.756v-4.63a1.379,1.379,0,0,1,.431-1.006,1.415,1.415,0,0,1,1.038-.431,1.349,1.349,0,0,1,1.038.431,1.434,1.434,0,0,1,.4,1.006v3.193H14.8a1.434,1.434,0,0,1,1.006.4,1.349,1.349,0,0,1,.431,1.038A1.445,1.445,0,0,1,14.8,28.225Zm0-12.007a1.4,1.4,0,0,1-1.054-.431A1.442,1.442,0,0,1,8.7,14.749v-4.6a1.482,1.482,0,0,1,.415-1.07,1.4,1.4,0,0,1,1.054-.431H14.8a1.355,1.355,0,0,1,1.006.447,1.432,1.432,0,0,1,.431,1.022,1.388,1.388,0,0,1-.431,1.07,1.434,1.434,0,0,1-1.006.4H11.606v3.161a1.474,1.474,0,0,1-.4,1.038,1.349,1.349,0,0,1-1.037.432ZM22.176,28.225a1.472,1.472,0,0,1-1.469-1.469,1.349,1.349,0,0,1,.431-1.038,1.474,1.474,0,0,1,1.038-.4h3.161V22.126a1.4,1.4,0,0,1,.415-1.006,1.363,1.363,0,0,1,1.022-.431,1.453,1.453,0,0,1,1.07.431,1.379,1.379,0,0,1,.431,1.006v4.63a1.4,1.4,0,0,1-.431,1.054,1.482,1.482,0,0,1-1.07.415Zm4.63-12.007a1.388,1.388,0,0,1-1.07-.431,1.474,1.474,0,0,1-.4-1.038V11.588h-3.16a1.443,1.443,0,0,1-1.038-.415,1.363,1.363,0,0,1-.431-1.022,1.453,1.453,0,0,1,.431-1.07,1.415,1.415,0,0,1,1.038-.431h4.6a1.473,1.473,0,0,1,1.5,1.5v4.6a1.39,1.39,0,0,1-.447,1.038,1.432,1.432,0,0,1-1.023.43Z" transform="translate(-8.699 -8.647)" fill="#fff"/>
</svg>
