<svg width="30" height="30" viewBox="0 0 30 30" fill="none" xmlns="http://www.w3.org/2000/svg">
<rect width="30" height="30" rx="5" fill="#2A2E43"/>
<path d="M11 6H8C7.46957 6 6.96086 6.21071 6.58579 6.58579C6.21071 6.96086 6 7.46957 6 8V11M24 11V8C24 7.46957 23.7893 6.96086 23.4142 6.58579C23.0391 6.21071 22.5304 6 22 6H19M19 24H22C22.5304 24 23.0391 23.7893 23.4142 23.4142C23.7893 23.0391 24 22.5304 24 22V19M6 19V22C6 22.5304 6.21071 23.0391 6.58579 23.4142C6.96086 23.7893 7.46957 24 8 24H11" stroke="white" stroke-width="2" stroke-linecap="round" stroke-linejoin="round"/>
</svg>
