<svg xmlns="http://www.w3.org/2000/svg" width="41.04" height="27.769" viewBox="0 0 41.04 27.769">
  <g id="Group_5487" data-name="Group 5487" transform="translate(-18.565 -16)">
    <path id="Path_7619" data-name="Path 7619" d="M50.819,16H21.748a4.005,4.005,0,0,0-4.272,3.67,3.16,3.16,0,0,0,.038.494.84.84,0,0,0,.958.636.948.948,0,0,0,.323-.1,2.728,2.728,0,0,1,1.243-.283h6.088a2.58,2.58,0,0,1,2.432,1.5l.145.4a4.293,4.293,0,0,0,4.058,2.517H52.529a2.887,2.887,0,0,1,1.277.295.964.964,0,0,0,.433.1.8.8,0,0,0,.855-.737V19.684A4.013,4.013,0,0,0,50.819,16Z" transform="translate(2.803)" fill="#23b0b0"/>
    <path id="Path_7620" data-name="Path 7620" d="M54.908,23.866a4.783,4.783,0,0,0-2.143-.5H33a2.58,2.58,0,0,1-2.432-1.5l-.145-.4a4.293,4.293,0,0,0-4.058-2.517H20.275a4.609,4.609,0,0,0-2.093.476A3.627,3.627,0,0,0,16,22.631V40.316A4.013,4.013,0,0,0,20.275,44h32.49a4.013,4.013,0,0,0,4.275-3.684V27.053A3.6,3.6,0,0,0,54.908,23.866Z" transform="translate(2.565 -0.231)" fill="#34dede"/>
  </g>
</svg>
