<svg xmlns="http://www.w3.org/2000/svg" width="20.154" height="20.154" viewBox="0 0 20.154 20.154">
  <g id="Group_7706" data-name="Group 7706" transform="translate(0.5 0.5)">
    <g id="Group_1596" data-name="Group 1596">
      <g id="Group_1595" data-name="Group 1595">
        <path id="Path_1823" data-name="Path 1823" d="M16.706,0H2.448A2.45,2.45,0,0,0,0,2.448V16.706a2.45,2.45,0,0,0,2.448,2.448H16.706a2.45,2.45,0,0,0,2.448-2.448V2.448A2.45,2.45,0,0,0,16.706,0Zm1.319,16.706a1.321,1.321,0,0,1-1.319,1.319H2.448a1.321,1.321,0,0,1-1.319-1.319V14.648l3.713-3.159a.365.365,0,0,1,.47,0l2.326,1.931a.564.564,0,0,0,.76-.035l5.527-5.535a.365.365,0,0,1,.542.028l3.561,4.384v4.447Zm0-6.237L15.341,7.164a1.493,1.493,0,0,0-2.216-.114L7.962,12.221l-1.93-1.6a1.491,1.491,0,0,0-1.922.012L1.128,13.167V2.448A1.321,1.321,0,0,1,2.448,1.128H16.706a1.321,1.321,0,0,1,1.319,1.319Z" fill="#78849e" stroke="#78849e" stroke-width="1"/>
      </g>
    </g>
    <g id="Group_1598" data-name="Group 1598" transform="translate(3.309 2.357)">
      <g id="Group_1597" data-name="Group 1597">
        <path id="Path_1824" data-name="Path 1824" d="M91.181,63a2.72,2.72,0,1,0,2.72,2.72A2.723,2.723,0,0,0,91.181,63Zm0,4.312a1.592,1.592,0,1,1,1.592-1.592A1.594,1.594,0,0,1,91.181,67.307Z" transform="translate(-88.461 -62.995)" fill="#78849e" stroke="#78849e" stroke-width="1"/>
      </g>
    </g>
  </g>
</svg>
