<svg xmlns="http://www.w3.org/2000/svg" width="25.531" height="12.477" viewBox="0 0 25.531 12.477">
  <g id="icon-arrow-long-solid" transform="translate(126.036 62.944)">
    <g id="Group_8887" data-name="Group 8887" transform="translate(-126.036 -61.59)">
      <path id="Path_14866" data-name="Path 14866" d="M18.547,76.922a.568.568,0,0,1-.567-.567V73.907H5.72A8.177,8.177,0,0,0,.9,75.436a.567.567,0,0,1-.9-.457,7.548,7.548,0,0,1,7.561-7.518H17.98V65.013a.567.567,0,0,1,.943-.425l6.416,5.671a.567.567,0,0,1,0,.85L18.923,76.78a.566.566,0,0,1-.376.142Z" transform="translate(0 -65.799)" fill="#fff"/>
    </g>
  </g>
</svg>
