<svg width="21" height="21" viewBox="0 0 21 21" fill="none" xmlns="http://www.w3.org/2000/svg">
<path d="M8.272 14.688L9.917 16.333L15.75 10.5L9.917 4.667L8.272 6.312L11.282 9.334H0V11.667H11.282L8.272 14.688ZM18.667 0H2.333C1.71425 0 1.12084 0.245798 0.68332 0.68332C0.245798 1.12084 0 1.71425 0 2.333V7H2.333V2.333H18.667V18.667H2.333V14H0V18.667C0 19.2857 0.245798 19.8792 0.68332 20.3167C1.12084 20.7542 1.71425 21 2.333 21H18.667C19.2852 20.9982 19.8775 20.7518 20.3146 20.3146C20.7518 19.8775 20.9982 19.2852 21 18.667V2.333C20.9982 1.71482 20.7518 1.12248 20.3146 0.685359C19.8775 0.248237 19.2852 0.00184651 18.667 0Z" fill="white"/>
</svg>
