<svg xmlns="http://www.w3.org/2000/svg" width="27.006" height="27" viewBox="0 0 27.006 27">
  <g id="Group_7612" data-name="Group 7612" transform="translate(-296.5 -378.5)">
    <path id="Icon_feather-thumbs-up" data-name="Icon feather-thumbs-up" d="M18.242,11.75v-5A3.781,3.781,0,0,0,14.431,3L9.351,14.25V28H23.678a2.529,2.529,0,0,0,2.54-2.125l1.753-11.25a2.473,2.473,0,0,0-.595-2.016,2.558,2.558,0,0,0-1.946-.859ZM9.351,28H5.54A2.52,2.52,0,0,1,3,25.5V16.75a2.52,2.52,0,0,1,2.54-2.5h3.81" transform="translate(294.5 376.5)" fill="none" stroke="#8592ad" stroke-linecap="round" stroke-linejoin="round" stroke-width="2"/>
  </g>
</svg>
