<svg id="logo" xmlns="http://www.w3.org/2000/svg" width="40" height="40" viewBox="0 0 40 40">
  <rect id="placeholder" width="40" height="40" rx="12" fill="#3acce1"/>
  <g id="instructor" transform="translate(7.032 10.565)">
    <path id="Path_786" data-name="Path 786" d="M23.657,50H2.28A2.282,2.282,0,0,0,0,52.28v11.55a2.282,2.282,0,0,0,2.28,2.28H3.293v3.242a1.521,1.521,0,0,0,1.52,1.52h5.775a1.521,1.521,0,0,0,1.52-1.52V66.109h11.55a2.282,2.282,0,0,0,2.28-2.28V52.28A2.282,2.282,0,0,0,23.657,50ZM10.587,69.351H4.812V64.944A3.09,3.09,0,0,1,7.7,61.651a3.09,3.09,0,0,1,2.887,3.293Zm-4.964-11.3A2.077,2.077,0,1,1,7.7,60.131,2.079,2.079,0,0,1,5.623,58.054Zm18.794,5.775a.761.761,0,0,1-.76.76H12.093a5.17,5.17,0,0,0-1.146-2.917A4.379,4.379,0,0,0,10,60.818a3.6,3.6,0,1,0-4.6,0,4.378,4.378,0,0,0-.948.854,5.17,5.17,0,0,0-1.147,2.917H2.28a.761.761,0,0,1-.76-.76V52.28a.761.761,0,0,1,.76-.76H23.657a.761.761,0,0,1,.76.76Z" transform="translate(0 -50)" fill="#f5f5f5"/>
    <path id="Path_787" data-name="Path 787" d="M343.2,130h-5.222a.784.784,0,1,0,0,1.52H343.2a.784.784,0,1,0,0-1.52Z" transform="translate(-321.536 -125.234)" fill="#f5f5f5"/>
    <path id="Path_789" data-name="Path 789" d="M343.2,258h-5.222a.784.784,0,1,0,0,1.52H343.2a.784.784,0,1,0,0-1.52Z" transform="translate(-321.536 -248.176)" fill="#f5f5f5"/>
  </g>
</svg>
