<svg xmlns="http://www.w3.org/2000/svg" width="9.819" height="7.978" viewBox="0 0 9.819 7.978">
  <path id="Icon_awesome-list-ul" data-name="Icon awesome-list-ul" d="M.921,3.375a.921.921,0,1,0,.921.921.921.921,0,0,0-.921-.921Zm0,3.068a.921.921,0,1,0,.921.921.921.921,0,0,0-.921-.921Zm0,3.068a.921.921,0,1,0,.921.921.921.921,0,0,0-.921-.921Zm8.592.307H3.375a.307.307,0,0,0-.307.307v.614a.307.307,0,0,0,.307.307H9.512a.307.307,0,0,0,.307-.307v-.614A.307.307,0,0,0,9.512,9.819Zm0-6.137H3.375a.307.307,0,0,0-.307.307V4.6a.307.307,0,0,0,.307.307H9.512A.307.307,0,0,0,9.819,4.6V3.989A.307.307,0,0,0,9.512,3.682Zm0,3.068H3.375a.307.307,0,0,0-.307.307v.614a.307.307,0,0,0,.307.307H9.512a.307.307,0,0,0,.307-.307V7.057A.307.307,0,0,0,9.512,6.75Z" transform="translate(0 -3.375)" fill="currentColor"/>
</svg>