<svg width="144" height="40" viewBox="0 0 144 40" fill="none" xmlns="http://www.w3.org/2000/svg" xmlns:xlink="http://www.w3.org/1999/xlink">
<rect width="54.052" height="35.2275" fill="transparent"/>
<rect x="89.4995" width="54.1626" height="35.2275" fill="transparent"/>
<rect x="2.75226" y="5.50455" width="48.5475" height="29.7229" fill="transparent"/>
<path d="M9.67411 8.28051C9.43927 8.25086 9.20081 8.28724 8.98546 8.38547C8.7701 8.4837 8.58635 8.63991 8.45478 8.83668C8.32322 9.03345 8.24905 9.26299 8.24056 9.49954C8.23208 9.73609 8.28963 9.97037 8.40677 10.1761L14.5726 25.0608C14.8308 25.6034 15.2309 26.066 15.7306 26.3997C16.2302 26.7334 16.8109 26.9258 17.4109 26.9564H44.3841C44.6188 26.9855 44.857 26.9489 45.072 26.8505C45.2871 26.7521 45.4707 26.5959 45.6021 26.3993C45.7336 26.2027 45.8078 25.9734 45.8165 25.737C45.8252 25.5007 45.768 25.2666 45.6514 25.0608L39.4855 10.1761C39.2277 9.63404 38.8281 9.17176 38.3292 8.83811C37.8302 8.50445 37.2504 8.31177 36.6509 8.28051H9.67411Z" fill="transparent"/>
<path d="M36.6509 8.51504C37.205 8.54754 37.7404 8.72716 38.202 9.0355C38.6635 9.34383 39.0344 9.76972 39.2766 10.2692L45.4424 25.154C45.5451 25.3246 45.5972 25.5209 45.5925 25.7199C45.5878 25.919 45.5266 26.1127 45.416 26.2783C45.3055 26.4439 45.1501 26.5746 44.968 26.6552C44.7859 26.7358 44.5847 26.763 44.3877 26.7335H17.4109C16.8568 26.701 16.3214 26.5213 15.8599 26.213C15.3984 25.9047 15.0274 25.4789 14.7853 24.9794L8.62434 10.0934C8.52201 9.92279 8.47027 9.72661 8.47512 9.52775C8.47997 9.32889 8.54122 9.13554 8.65174 8.97015C8.76226 8.80476 8.91749 8.67416 9.09937 8.59359C9.28124 8.51302 9.48227 8.48577 9.67902 8.51504H36.6509ZM36.6509 8.28516H9.67411C9.43927 8.25551 9.20081 8.29181 8.98546 8.39004C8.7701 8.48827 8.58635 8.64456 8.45478 8.84133C8.32322 9.0381 8.24905 9.26764 8.24056 9.50419C8.23208 9.74074 8.28963 9.97494 8.40677 10.1806L14.5726 25.0655C14.8308 25.608 15.2309 26.0706 15.7306 26.4043C16.2302 26.738 16.8109 26.9303 17.4109 26.9609H44.3841C44.6188 26.9901 44.857 26.9534 45.072 26.8551C45.2871 26.7567 45.4707 26.6006 45.6021 26.4039C45.7336 26.2073 45.8078 25.978 45.8165 25.7417C45.8252 25.5053 45.768 25.2712 45.6514 25.0655L39.4855 10.1806C39.2283 9.63769 38.8291 9.17445 38.3301 8.8399C37.8311 8.50535 37.2509 8.31192 36.6509 8.2802V8.28516Z" fill="transparent"/>
<path d="M9.67411 8.28051C9.43927 8.25086 9.20081 8.28724 8.98546 8.38547C8.7701 8.4837 8.58635 8.63991 8.45478 8.83668C8.32322 9.03345 8.24905 9.26299 8.24056 9.49954C8.23208 9.73609 8.28963 9.97037 8.40677 10.1761L14.5726 25.0608C14.8308 25.6034 15.2309 26.066 15.7306 26.3997C16.2302 26.7334 16.8109 26.9258 17.4109 26.9564H44.3841C44.6188 26.9855 44.857 26.9489 45.072 26.8505C45.2871 26.7521 45.4707 26.5959 45.6021 26.3993C45.7336 26.2027 45.8078 25.9734 45.8165 25.737C45.8252 25.5007 45.768 25.2666 45.6514 25.0608L39.4855 10.1761C39.2277 9.63404 38.8281 9.17176 38.3292 8.83811C37.8302 8.50445 37.2504 8.31177 36.6509 8.28051H9.67411Z" fill="url(#paint2_linear_299_8276)"/>
<path d="M36.6509 8.51504C37.205 8.54754 37.7404 8.72716 38.202 9.0355C38.6635 9.34383 39.0344 9.76972 39.2766 10.2692L45.4424 25.154C45.5451 25.3246 45.5972 25.5209 45.5925 25.7199C45.5878 25.919 45.5266 26.1127 45.416 26.2783C45.3055 26.4439 45.1501 26.5746 44.968 26.6552C44.7859 26.7358 44.5847 26.763 44.3877 26.7335H17.4109C16.8568 26.701 16.3214 26.5213 15.8599 26.213C15.3984 25.9047 15.0274 25.4789 14.7853 24.9794L8.62434 10.0934C8.52201 9.92279 8.47027 9.72661 8.47512 9.52775C8.47997 9.32889 8.54122 9.13554 8.65174 8.97015C8.76226 8.80476 8.91749 8.67416 9.09937 8.59359C9.28124 8.51302 9.48227 8.48577 9.67902 8.51504H36.6509ZM36.6509 8.28516H9.67411C9.43927 8.25551 9.20081 8.29181 8.98546 8.39004C8.7701 8.48827 8.58635 8.64456 8.45478 8.84133C8.32322 9.0381 8.24905 9.26764 8.24056 9.50419C8.23208 9.74074 8.28963 9.97494 8.40677 10.1806L14.5726 25.0655C14.8308 25.608 15.2309 26.0706 15.7306 26.4043C16.2302 26.738 16.8109 26.9303 17.4109 26.9609H44.3841C44.6188 26.9901 44.857 26.9534 45.072 26.8551C45.2871 26.7567 45.4707 26.6006 45.6021 26.4039C45.7336 26.2073 45.8078 25.978 45.8165 25.7417C45.8252 25.5053 45.768 25.2712 45.6514 25.0655L39.4855 10.1806C39.2283 9.63769 38.8291 9.17445 38.3301 8.8399C37.8311 8.50535 37.2509 8.31192 36.6509 8.2802V8.28516Z" fill="url(#paint3_linear_299_8276)"/>
<rect x="92.2517" y="5.50455" width="48.6581" height="29.7229" fill="transparent"/>
<path d="M133.951 8.28051C134.186 8.25086 134.424 8.28724 134.64 8.38547C134.855 8.4837 135.039 8.63991 135.17 8.83668C135.302 9.03345 135.376 9.26299 135.385 9.49954C135.393 9.73609 135.335 9.97037 135.218 10.1761L129.053 25.0608C128.794 25.6034 128.394 26.066 127.895 26.3997C127.395 26.7334 126.814 26.9258 126.214 26.9564H99.2423C99.0076 26.9855 98.7694 26.9489 98.5543 26.8505C98.3393 26.7521 98.1557 26.5959 98.0243 26.3993C97.8928 26.2027 97.8186 25.9734 97.8099 25.737C97.8012 25.5007 97.8583 25.2666 97.975 25.0608L104.141 10.1761C104.399 9.63369 104.799 9.17118 105.298 8.83751C105.798 8.50383 106.378 8.31133 106.978 8.28051H133.951Z" fill="url(#paint4_linear_299_8276)"/>
<path d="M133.951 8.28051C134.186 8.25086 134.424 8.28724 134.64 8.38547C134.855 8.4837 135.039 8.63991 135.17 8.83668C135.302 9.03345 135.376 9.26299 135.385 9.49954C135.393 9.73609 135.335 9.97037 135.218 10.1761L129.053 25.0608C128.794 25.6034 128.394 26.066 127.895 26.3997C127.395 26.7334 126.814 26.9258 126.214 26.9564H99.2423C99.0076 26.9855 98.7694 26.9489 98.5543 26.8505C98.3393 26.7521 98.1557 26.5959 98.0243 26.3993C97.8928 26.2027 97.8186 25.9734 97.8099 25.737C97.8012 25.5007 97.8583 25.2666 97.975 25.0608L104.141 10.1761C104.399 9.63369 104.799 9.17118 105.298 8.83751C105.798 8.50383 106.378 8.31133 106.978 8.28051H133.951Z" fill="url(#paint5_linear_299_8276)"/>
<path d="M133.951 8.51502C134.148 8.48575 134.349 8.513 134.531 8.59357C134.713 8.67414 134.868 8.80474 134.978 8.97013C135.089 9.13552 135.15 9.32886 135.155 9.52773C135.16 9.72659 135.108 9.92277 135.006 10.0934L128.84 24.9782C128.598 25.4776 128.227 25.9034 127.765 26.2118C127.304 26.5201 126.768 26.6998 126.214 26.7323H99.2424C99.0454 26.7618 98.8442 26.7346 98.6621 26.654C98.48 26.5734 98.3246 26.4426 98.2141 26.277C98.1035 26.1114 98.0423 25.9178 98.0376 25.7187C98.0329 25.5196 98.085 25.3233 98.1876 25.1527L104.353 10.2679C104.596 9.76842 104.967 9.34261 105.428 9.03428C105.89 8.72594 106.425 8.54624 106.979 8.51374H133.952M133.952 8.28394H106.978C106.378 8.31476 105.798 8.50718 105.298 8.84086C104.799 9.17453 104.399 9.63704 104.141 10.1794L97.975 25.0642C97.8584 25.27 97.8012 25.5041 97.8099 25.7405C97.8186 25.9768 97.8929 26.2061 98.0243 26.4027C98.1558 26.5993 98.3393 26.7555 98.5544 26.8539C98.7695 26.9522 99.0077 26.9889 99.2424 26.9597H126.215C126.816 26.9291 127.396 26.7368 127.896 26.4031C128.395 26.0694 128.796 25.6068 129.054 25.0642L135.22 10.1794C135.337 9.97372 135.394 9.73944 135.386 9.50289C135.377 9.26634 135.303 9.03688 135.172 8.84011C135.04 8.64334 134.856 8.48705 134.641 8.38882C134.426 8.29059 134.187 8.25429 133.952 8.28394Z" fill="transparent"/>
<g opacity="0.1" style="mix-blend-mode:multiply">
<rect x="19.4858" y="9.90771" width="104.581" height="29.8336" fill="transparent"/>
<path d="M26.4863 12.7018C26.2516 12.6727 26.0134 12.7093 25.7984 12.8077C25.5833 12.9061 25.3997 13.0622 25.2683 13.2588C25.1368 13.4555 25.0626 13.6848 25.0539 13.9211C25.0452 14.1575 25.1024 14.3916 25.219 14.5973L31.3849 29.4822C31.6428 30.0246 32.0427 30.4872 32.5422 30.8209C33.0416 31.1545 33.622 31.3469 34.2219 31.3776H109.407C110.007 31.3468 110.587 31.1544 111.087 30.8207C111.586 30.487 111.986 30.0245 112.244 29.4822L118.41 14.5973C118.526 14.3916 118.584 14.1575 118.575 13.9211C118.566 13.6848 118.492 13.4555 118.361 13.2588C118.229 13.0622 118.046 12.9061 117.83 12.8077C117.615 12.7093 117.377 12.6727 117.143 12.7018H26.4863Z" fill="#E0E8F3"/>
<path d="M26.4863 12.7018C26.2516 12.6727 26.0134 12.7093 25.7984 12.8077C25.5833 12.9061 25.3997 13.0622 25.2683 13.2588C25.1368 13.4555 25.0626 13.6848 25.0539 13.9211C25.0452 14.1575 25.1024 14.3916 25.219 14.5973L31.3849 29.4822C31.6428 30.0246 32.0427 30.4872 32.5422 30.8209C33.0416 31.1545 33.622 31.3469 34.2219 31.3776H109.407C110.007 31.3468 110.587 31.1544 111.087 30.8207C111.586 30.487 111.986 30.0245 112.244 29.4822L118.41 14.5973C118.526 14.3916 118.584 14.1575 118.575 13.9211C118.566 13.6848 118.492 13.4555 118.361 13.2588C118.229 13.0622 118.046 12.9061 117.83 12.8077C117.615 12.7093 117.377 12.6727 117.143 12.7018H26.4863Z" fill="#E0E8F3"/>
</g>
<g opacity="0.3">
<path d="M109.406 30.7642H34.221C33.3465 30.7642 32.2859 30.0556 31.9513 29.2477L25.7856 14.3625C25.6578 14.054 25.6547 13.7832 25.777 13.6002C25.8993 13.4172 26.1506 13.3164 26.4846 13.3164H117.142C117.476 13.3164 117.727 13.4172 117.85 13.6002C117.972 13.7833 117.969 14.054 117.841 14.3626L111.675 29.2476C111.341 30.0555 110.28 30.7642 109.406 30.7642Z" fill="#E0E8F3"/>
<path d="M26.4846 13.931C26.3997 13.931 26.3404 13.9418 26.304 13.9523C26.3081 13.9899 26.3209 14.0489 26.3533 14.1273L32.5192 29.0124C32.7612 29.597 33.5882 30.1495 34.2209 30.1495H109.406C110.038 30.1495 110.865 29.5969 111.108 29.0124L117.273 14.1274C117.306 14.049 117.319 13.9899 117.323 13.9523C117.286 13.9418 117.227 13.931 117.142 13.931H26.4846ZM26.4846 12.7017H117.142C118.271 12.7017 118.841 13.5549 118.409 14.5977L112.243 29.4828C111.811 30.5256 110.534 31.3788 109.406 31.3788H34.2209C33.0923 31.3788 31.8153 30.5256 31.3835 29.4828L25.2177 14.5977C24.7858 13.5549 25.356 12.7017 26.4846 12.7017Z" fill="#707070"/>
<path d="M109.406 30.7642H34.221C33.3465 30.7642 32.2859 30.0556 31.9513 29.2477L25.7856 14.3625C25.6578 14.054 25.6547 13.7832 25.777 13.6002C25.8993 13.4172 26.1506 13.3164 26.4846 13.3164H117.142C117.476 13.3164 117.727 13.4172 117.85 13.6002C117.972 13.7833 117.969 14.054 117.841 14.3626L111.675 29.2476C111.341 30.0555 110.28 30.7642 109.406 30.7642Z" fill="#E0E8F3"/>
<path d="M26.4846 13.931C26.3997 13.931 26.3404 13.9418 26.304 13.9523C26.3081 13.9899 26.3209 14.0489 26.3533 14.1273L32.5192 29.0124C32.7612 29.597 33.5882 30.1495 34.2209 30.1495H109.406C110.038 30.1495 110.865 29.5969 111.108 29.0124L117.273 14.1274C117.306 14.049 117.319 13.9899 117.323 13.9523C117.286 13.9418 117.227 13.931 117.142 13.931H26.4846ZM26.4846 12.7017H117.142C118.271 12.7017 118.841 13.5549 118.409 14.5977L112.243 29.4828C111.811 30.5256 110.534 31.3788 109.406 31.3788H34.2209C33.0923 31.3788 31.8153 30.5256 31.3835 29.4828L25.2177 14.5977C24.7858 13.5549 25.356 12.7017 26.4846 12.7017Z" fill="#707070"/>
</g>
<g opacity="1" filter="url(#filter0_d_299_8276)">
<path d="M36.1002 23.9659C36.1002 23.1136 36.2846 22.3556 36.6534 21.6918C37.0222 21.0198 37.5343 20.4995 38.1899 20.1307C38.8537 19.7537 39.6036 19.5652 40.4394 19.5652C41.4638 19.5652 42.3407 19.8357 43.07 20.3765C43.7993 20.9174 44.2869 21.6549 44.5328 22.5892H42.2218C42.0497 22.2286 41.8039 21.9541 41.4843 21.7656C41.1729 21.5771 40.8164 21.4828 40.4148 21.4828C39.7674 21.4828 39.243 21.7082 38.8414 22.1589C38.4399 22.6096 38.2391 23.212 38.2391 23.9659C38.2391 24.7198 38.4399 25.3222 38.8414 25.7729C39.243 26.2236 39.7674 26.449 40.4148 26.449C40.8164 26.449 41.1729 26.3547 41.4843 26.1662C41.8039 25.9778 42.0497 25.7032 42.2218 25.3426H44.5328C44.2869 26.2769 43.7993 27.0144 43.07 27.5553C42.3407 28.0879 41.4638 28.3543 40.4394 28.3543C39.6036 28.3543 38.8537 28.1699 38.1899 27.8011C37.5343 27.4242 37.0222 26.9038 36.6534 26.24C36.2846 25.5762 36.1002 24.8182 36.1002 23.9659ZM49.9011 28.3789C49.0898 28.3789 48.3441 28.1904 47.6639 27.8134C46.9919 27.4364 46.4551 26.912 46.0536 26.24C45.6602 25.5598 45.4636 24.7977 45.4636 23.9536C45.4636 23.1095 45.6602 22.3515 46.0536 21.6795C46.4551 21.0075 46.9919 20.4831 47.6639 20.1061C48.3441 19.7291 49.0898 19.5407 49.9011 19.5407C50.7124 19.5407 51.454 19.7291 52.126 20.1061C52.8062 20.4831 53.3389 21.0075 53.724 21.6795C54.1174 22.3515 54.3141 23.1095 54.3141 23.9536C54.3141 24.7977 54.1174 25.5598 53.724 26.24C53.3307 26.912 52.798 27.4364 52.126 27.8134C51.454 28.1904 50.7124 28.3789 49.9011 28.3789ZM49.9011 26.4613C50.5895 26.4613 51.1385 26.2318 51.5483 25.7729C51.9662 25.314 52.1752 24.7075 52.1752 23.9536C52.1752 23.1915 51.9662 22.5851 51.5483 22.1343C51.1385 21.6754 50.5895 21.446 49.9011 21.446C49.2045 21.446 48.6473 21.6713 48.2293 22.122C47.8196 22.5728 47.6147 23.1833 47.6147 23.9536C47.6147 24.7157 47.8196 25.3263 48.2293 25.7852C48.6473 26.2359 49.2045 26.4613 49.9011 26.4613ZM65.2559 19.6636V28.2928H63.1539V23.1177L61.224 28.2928H59.5276L57.5855 23.1054V28.2928H55.4835V19.6636H57.9665L60.3881 25.6377L62.7851 19.6636H65.2559ZM73.3439 22.4417C73.3439 22.9415 73.2291 23.4005 72.9997 23.8184C72.7702 24.2281 72.4179 24.56 71.9425 24.8141C71.4672 25.0681 70.8772 25.1951 70.1724 25.1951H68.8695V28.2928H66.7675V19.6636H70.1724C70.8608 19.6636 71.4427 19.7824 71.918 20.0201C72.3933 20.2577 72.7497 20.5855 72.9874 21.0034C73.2251 21.4214 73.3439 21.9008 73.3439 22.4417ZM70.0126 23.5234C70.4142 23.5234 70.7133 23.4291 70.91 23.2407C71.1067 23.0522 71.205 22.7858 71.205 22.4417C71.205 22.0975 71.1067 21.8311 70.91 21.6426C70.7133 21.4542 70.4142 21.3599 70.0126 21.3599H68.8695V23.5234H70.0126ZM76.5402 26.6702H79.2937V28.2928H74.4382V19.6636H76.5402V26.6702ZM82.3983 21.3476V23.0931H85.2132V24.7157H82.3983V26.6088H85.582V28.2928H80.2963V19.6636H85.582V21.3476H82.3983ZM93.1543 19.6636V21.3476H90.8679V28.2928H88.7659V21.3476H86.4795V19.6636H93.1543ZM96.3112 21.3476V23.0931H99.1261V24.7157H96.3112V26.6088H99.4949V28.2928H94.2092V19.6636H99.4949V21.3476H96.3112ZM104.092 19.6636C105.002 19.6636 105.797 19.8439 106.477 20.2044C107.157 20.565 107.682 21.0731 108.051 21.7287C108.428 22.3761 108.616 23.1259 108.616 23.9782C108.616 24.8223 108.428 25.5721 108.051 26.2277C107.682 26.8833 107.153 27.3914 106.465 27.752C105.785 28.1125 104.994 28.2928 104.092 28.2928H100.86V19.6636H104.092ZM103.957 26.4735C104.752 26.4735 105.371 26.2564 105.813 25.8221C106.256 25.3877 106.477 24.7731 106.477 23.9782C106.477 23.1833 106.256 22.5646 105.813 22.122C105.371 21.6795 104.752 21.4583 103.957 21.4583H102.962V26.4735H103.957Z" fill="white"/>
</g>
<defs>
<pattern id="pattern0" patternContentUnits="objectBoundingBox" width="1" height="1">
<use xlink:href="#image0_299_8276" transform="scale(0.00203666 0.003125)"/>
</pattern>
<pattern id="pattern1" patternContentUnits="objectBoundingBox" width="1" height="1">
<use xlink:href="#image1_299_8276" transform="scale(0.00203252 0.003125)"/>
</pattern>
<pattern id="pattern2" patternContentUnits="objectBoundingBox" width="1" height="1">
<use xlink:href="#image2_299_8276" transform="scale(0.00226757 0.0037037)"/>
</pattern>
<pattern id="pattern3" patternContentUnits="objectBoundingBox" width="1" height="1">
<use xlink:href="#image3_299_8276" transform="scale(0.00226244 0.0037037)"/>
</pattern>
<pattern id="pattern4" patternContentUnits="objectBoundingBox" width="1" height="1">
<use xlink:href="#image4_299_8276" transform="scale(0.00105263 0.00369004)"/>
</pattern>
<filter id="filter0_d_299_8276" x="32.4125" y="19.5406" width="79.8913" height="16.2136" filterUnits="userSpaceOnUse" color-interpolation-filters="sRGB">
<feFlood flood-opacity="0" result="BackgroundImageFix"/>
<feColorMatrix in="SourceAlpha" type="matrix" values="0 0 0 0 0 0 0 0 0 0 0 0 0 0 0 0 0 0 127 0" result="hardAlpha"/>
<feOffset dy="3.68771"/>
<feGaussianBlur stdDeviation="1.84385"/>
<feColorMatrix type="matrix" values="0 0 0 0 0 0 0 0 0 0 0 0 0 0 0 0 0 0 0.749 0"/>
<feBlend mode="normal" in2="BackgroundImageFix" result="effect1_dropShadow_299_8276"/>
<feBlend mode="normal" in="SourceGraphic" in2="effect1_dropShadow_299_8276" result="shape"/>
</filter>
<linearGradient id="paint0_linear_299_8276" x1="27.0286" y1="8.27048" x2="27.0286" y2="26.9661" gradientUnits="userSpaceOnUse">
<stop stop-color="#F8AC3F"/>
<stop offset="1" stop-color="#FA4143"/>
</linearGradient>
<linearGradient id="paint1_linear_299_8276" x1="8.23975" y1="17.6229" x2="45.8174" y2="17.6229" gradientUnits="userSpaceOnUse">
<stop stop-color="#F8C257"/>
<stop offset="1" stop-color="#DE3A3B"/>
</linearGradient>
<linearGradient id="paint2_linear_299_8276" x1="27.0286" y1="8.27048" x2="27.0286" y2="26.9661" gradientUnits="userSpaceOnUse">
<stop stop-color="#F8AC3F"/>
<stop offset="1" stop-color="#FA4143"/>
</linearGradient>
<linearGradient id="paint3_linear_299_8276" x1="27.0286" y1="8.27512" x2="27.0286" y2="26.9707" gradientUnits="userSpaceOnUse">
<stop stop-color="#F8C257"/>
<stop offset="1" stop-color="#DE3A3B"/>
</linearGradient>
<linearGradient id="paint4_linear_299_8276" x1="26.94" y1="8.27048" x2="26.94" y2="26.9661" gradientUnits="userSpaceOnUse">
<stop stop-color="#A033FF"/>
<stop offset="1" stop-color="#3900D6"/>
</linearGradient>
<linearGradient id="paint5_linear_299_8276" x1="26.94" y1="8.27048" x2="26.94" y2="26.9661" gradientUnits="userSpaceOnUse">
<stop stop-color="#F8AC3F"/>
<stop offset="1" stop-color="#FA4143"/>
</linearGradient>
<linearGradient id="paint6_linear_299_8276" x1="116.598" y1="8.2739" x2="116.598" y2="26.9695" gradientUnits="userSpaceOnUse">
<stop stop-color="#F8C257"/>
<stop offset="1" stop-color="#DE3A3B"/>
</linearGradient>
</defs>
</svg>
