<svg width="14" height="15" viewBox="0 0 14 15" fill="none" xmlns="http://www.w3.org/2000/svg">
<path d="M7.07941 0.375C8.12428 0.375 8.97132 1.22204 8.97132 2.26691V12.2347C8.97132 13.2795 8.12428 14.1266 7.07941 14.1266C6.03454 14.1266 5.1875 13.2795 5.1875 12.2347V2.26691C5.1875 1.22204 6.03454 0.375 7.07941 0.375ZM11.8919 3.8125C12.9368 3.8125 13.7838 4.65954 13.7838 5.70441V12.2347C13.7838 13.2795 12.9368 14.1266 11.8919 14.1266C10.847 14.1266 10 13.2795 10 12.2347V5.70441C10 4.65954 10.847 3.8125 11.8919 3.8125ZM2.26691 7.25C3.31178 7.25 4.15882 8.09704 4.15882 9.14191V12.2347C4.15882 13.2795 3.31178 14.1266 2.26691 14.1266C1.22204 14.1266 0.375 13.2795 0.375 12.2347V9.14191C0.375 8.09704 1.22204 7.25 2.26691 7.25Z" fill="white"/>
</svg>