<svg width="23" height="20" viewBox="0 0 23 20" fill="none" xmlns="http://www.w3.org/2000/svg">
<path d="M8.40506 9.94763C10.7429 9.94763 12.6381 7.91031 12.6381 5.39716C12.6381 2.884 10.7429 0.84668 8.40506 0.84668C6.06724 0.84668 4.17206 2.884 4.17206 5.39716C4.17206 7.91031 6.06724 9.94763 8.40506 9.94763Z" stroke="#FB963C" stroke-width="1.42857" stroke-miterlimit="10" stroke-linecap="round" stroke-linejoin="round"/>
<path d="M1.69056 16.2763C1.68955 15.9564 1.75619 15.6405 1.88547 15.3525C2.17971 14.9234 2.55362 14.5648 2.98353 14.2992C3.41343 14.0336 3.88996 13.8669 4.38292 13.8096C5.06719 13.6538 5.76082 13.55 6.45867 13.4991C7.75112 13.3771 9.05104 13.3771 10.3435 13.4991C11.0414 13.5519 11.735 13.6569 12.4192 13.8134C13.3681 14.0229 14.5118 14.441 14.9167 15.3563C15.0451 15.6464 15.1117 15.9636 15.1117 16.2849C15.1117 16.6061 15.0451 16.9233 14.9167 17.2134C14.5109 18.1287 13.3681 18.5468 12.4192 18.7477C11.7359 18.9113 11.042 19.0192 10.3435 19.0706C9.2924 19.1647 8.2365 19.1806 7.18336 19.1182C6.94166 19.1268 6.69976 19.1093 6.46133 19.0658C5.76541 19.0151 5.07414 18.9071 4.39355 18.7429C3.43408 18.5468 2.2992 18.1249 1.88547 17.2134C1.75623 16.9206 1.68963 16.6004 1.69056 16.2763V16.2763Z" stroke="#FB963C" stroke-width="1.42857" stroke-miterlimit="10" stroke-linecap="round" stroke-linejoin="round"/>
<path d="M17.5541 9.38362C19.0675 9.38362 20.2943 8.06477 20.2943 6.4379C20.2943 4.81103 19.0675 3.49219 17.5541 3.49219C16.0407 3.49219 14.8139 4.81103 14.8139 6.4379C14.8139 8.06477 16.0407 9.38362 17.5541 9.38362Z" stroke="#FB963C" stroke-width="1.42857" stroke-miterlimit="10" stroke-linecap="round" stroke-linejoin="round"/>
<path d="M13.2077 13.4816C13.2069 13.2746 13.25 13.0701 13.3335 12.8835C13.524 12.6057 13.7661 12.3735 14.0444 12.2015C14.3227 12.0296 14.6312 11.9216 14.9504 11.8845C15.3936 11.7826 15.843 11.7145 16.2952 11.6807C17.132 11.6016 17.9736 11.6016 18.8104 11.6807C19.2619 11.715 19.7107 11.7831 20.1535 11.8845C20.474 11.9156 20.7844 12.021 21.0635 12.1932C21.3426 12.3655 21.5837 12.6007 21.7703 12.8826C21.8533 13.0703 21.8964 13.2756 21.8964 13.4835C21.8964 13.6914 21.8533 13.8967 21.7703 14.0845C21.5844 14.3668 21.3434 14.6021 21.0642 14.7738C20.7849 14.9456 20.4741 15.0496 20.1535 15.0788C19.711 15.1845 19.2617 15.2542 18.8095 15.2873C18.1286 15.3495 17.4445 15.361 16.7621 15.3216C16.6058 15.3271 16.4494 15.3156 16.2952 15.2873C15.8444 15.2547 15.3966 15.185 14.9557 15.0788C14.6344 15.0498 14.3229 14.9459 14.0427 14.7744C13.7626 14.6028 13.5206 14.3677 13.3335 14.0854C13.2504 13.8967 13.2074 13.6904 13.2077 13.4816V13.4816Z" stroke="#FB963C" stroke-width="1.42857" stroke-miterlimit="10" stroke-linecap="round" stroke-linejoin="round"/>
</svg>
