<svg width="10" height="11" viewBox="0 0 10 11" fill="none" xmlns="http://www.w3.org/2000/svg">
<path d="M4.02984 4.2696L4.29426 4.42788C4.32274 4.44312 4.35599 4.44684 4.38714 4.43825C4.41828 4.42966 4.44493 4.40944 4.46155 4.38176C4.47817 4.35408 4.4835 4.32107 4.47643 4.28958C4.46935 4.25808 4.45042 4.23051 4.42356 4.21258L4.19059 4.07292C4.30332 3.88152 4.36171 3.66304 4.35949 3.44097C4.35949 2.88701 4.02169 2.43661 3.60468 2.43661C3.18766 2.43661 2.84985 2.88701 2.84985 3.44097C2.84985 3.99494 3.18766 4.44533 3.60468 4.44533C3.76353 4.4425 3.91542 4.37972 4.02984 4.2696ZM3.09796 3.44097C3.09796 3.03248 3.33093 2.68684 3.60117 2.68684C3.87142 2.68684 4.1044 3.03597 4.1044 3.44097C4.10625 3.61745 4.06037 3.79115 3.9716 3.94374L3.79221 3.83551C3.76373 3.82027 3.73048 3.81655 3.69933 3.82514C3.66819 3.83373 3.64155 3.85395 3.62493 3.88163C3.60831 3.90931 3.60298 3.94231 3.61005 3.97381C3.61712 4.00531 3.63605 4.03288 3.66291 4.05081L3.79804 4.13228C3.74026 4.17257 3.67164 4.19448 3.60117 4.19512C3.3321 4.19396 3.10146 3.84947 3.10146 3.44097H3.09796Z" fill="#78849E" stroke="#78849E" stroke-width="0.2"/>
<path d="M6.52264 6.32836C6.5132 6.30524 6.49707 6.28546 6.47632 6.27153C6.45557 6.2576 6.43114 6.25015 6.40615 6.25015C6.38115 6.25015 6.35672 6.2576 6.33597 6.27153C6.31523 6.28546 6.2991 6.30524 6.28965 6.32836L5.66063 8.08688C5.65154 8.10277 5.64603 8.12043 5.64449 8.13867C5.64295 8.1569 5.64541 8.17525 5.65171 8.19244C5.658 8.20963 5.66797 8.22525 5.68093 8.23818C5.69388 8.25112 5.70951 8.26107 5.72671 8.26734C5.74392 8.27362 5.76228 8.27607 5.78053 8.27452C5.79878 8.27296 5.81647 8.26742 5.83236 8.25832C5.84826 8.24923 5.86199 8.23679 5.87257 8.22185C5.88314 8.20691 5.89032 8.18984 5.89361 8.17184L6.08813 7.62716H6.71947L6.91402 8.17184C6.92876 8.19759 6.95212 8.2173 6.98 8.22749C7.00788 8.23768 7.03846 8.23766 7.06635 8.22749C7.09424 8.21732 7.11764 8.19765 7.1324 8.17191C7.14715 8.14617 7.1523 8.11606 7.14697 8.08688L6.52264 6.32836ZM6.17316 7.37577L6.39914 6.74383L6.62512 7.37577H6.17316Z" fill="#78849E" stroke="#78849E" stroke-width="0.2"/>
<path d="M8.90476 8.43136C9.28672 7.99353 9.49803 7.43288 9.5 6.85208C9.44961 6.14669 9.14167 5.48437 8.63466 4.9909C8.12765 4.49743 7.4569 4.2072 6.7498 4.17534C6.78286 4.01921 6.79964 3.86009 6.79989 3.70051C6.73361 2.92761 6.36555 2.21183 5.77528 1.70789C5.185 1.20396 4.41995 0.952351 3.64549 1.00747C2.87184 0.954952 2.10852 1.20835 1.52017 1.71301C0.931812 2.21767 0.565564 2.93316 0.50041 3.70516C0.502976 4.23913 0.68329 4.75707 1.01294 5.17737L0.509728 6.49945C0.499273 6.52705 0.497191 6.55712 0.503744 6.58589C0.510297 6.61467 0.525193 6.64088 0.546571 6.66125C0.567949 6.68161 0.59486 6.69523 0.623942 6.7004C0.653023 6.70557 0.682985 6.70206 0.710082 6.69031L2.13119 6.06768C2.48518 6.23384 2.86492 6.33853 3.2541 6.37725C3.22098 6.53376 3.2042 6.69328 3.20401 6.85325C3.26917 7.62525 3.63542 8.34073 4.22377 8.8454C4.81213 9.35006 5.57544 9.60345 6.34909 9.55094C6.82911 9.55175 7.30442 9.45638 7.74691 9.27046L9.28334 9.9862C9.31083 9.99887 9.34152 10.0029 9.37137 9.99789C9.40122 9.99284 9.42885 9.97889 9.45063 9.95788C9.47241 9.93688 9.48734 9.90978 9.49345 9.88015C9.49955 9.85052 9.49656 9.81974 9.48486 9.79185L8.90476 8.43136ZM2.06946 5.76509L0.916259 6.27134L1.32163 5.20414C1.33086 5.17952 1.33346 5.15291 1.32916 5.12697C1.32487 5.10103 1.31384 5.07667 1.29716 5.05634C0.978812 4.67763 0.802881 4.19971 0.799775 3.70516C0.864948 3.01256 1.19963 2.37319 1.73183 1.92461C2.26402 1.47604 2.95119 1.2541 3.64549 1.30657C4.34133 1.25155 5.03089 1.47231 5.56513 1.92114C6.09937 2.36997 6.43538 3.01082 6.50052 3.70516C6.50045 3.89662 6.47299 4.08708 6.41899 4.27077C6.21514 4.83346 5.83532 5.31558 5.33578 5.64573C4.83623 5.97587 4.24354 6.13648 3.64549 6.10376C3.57793 6.10376 3.51153 6.10376 3.44048 6.09677C3.00657 6.07444 2.58191 5.96312 2.19293 5.76975C2.17289 5.76031 2.15101 5.75542 2.12886 5.75542C2.10671 5.75542 2.08483 5.76031 2.0648 5.76975L2.06946 5.76509ZM7.81563 8.96904C7.79591 8.95995 7.77445 8.95525 7.75273 8.95525C7.73101 8.95525 7.70955 8.95995 7.68983 8.96904C7.26776 9.15623 6.81087 9.2522 6.34909 9.25068C5.65422 9.3041 4.96615 9.0826 4.43319 8.63393C3.90023 8.18526 3.56505 7.54534 3.49988 6.85208C3.49999 6.7005 3.51718 6.54942 3.55114 6.40169H3.64549C3.7348 6.40169 3.82332 6.39859 3.91108 6.39238L3.9996 6.38307C4.05668 6.38307 4.11609 6.3726 4.172 6.36445L4.27567 6.34583C4.32576 6.33768 4.37701 6.32954 4.42594 6.3179C4.47486 6.30626 4.49816 6.29928 4.53427 6.29113C4.57038 6.28298 4.62629 6.26902 4.67172 6.25505C4.71715 6.24109 4.74394 6.23178 4.78121 6.21897C4.81849 6.20617 4.86741 6.19104 4.90935 6.17591C4.95128 6.16078 4.98157 6.14682 5.01651 6.13169C5.05146 6.11656 5.09805 6.0991 5.133 6.08048C5.16794 6.06186 5.20289 6.04557 5.23783 6.02811C5.27278 6.01065 5.31355 5.99087 5.35432 5.96992C5.39509 5.94897 5.42188 5.93035 5.45566 5.9094C5.48944 5.88845 5.52671 5.86751 5.56049 5.84539C5.59428 5.82328 5.62573 5.8 5.65718 5.77789C5.68863 5.75578 5.72241 5.73134 5.75386 5.7069C5.78531 5.68246 5.8156 5.65686 5.84472 5.63242C5.87384 5.60798 5.90529 5.58237 5.93441 5.55561C5.96353 5.52884 5.99149 5.50207 6.01944 5.47414C6.0474 5.44621 6.07419 5.41944 6.10098 5.39151C6.12777 5.36358 6.1534 5.33332 6.17903 5.30422C6.20465 5.27513 6.22912 5.24604 6.25241 5.21578C6.27571 5.18552 6.29901 5.15409 6.3223 5.12267C6.3456 5.09125 6.36773 5.06099 6.38753 5.0284C6.40734 4.99582 6.4283 4.9644 6.44811 4.93064C6.46791 4.89689 6.48655 4.86431 6.50518 4.83056C6.52382 4.79681 6.54013 4.76306 6.55644 4.72931C6.57274 4.69556 6.58905 4.65832 6.6042 4.6234C6.61934 4.58849 6.63215 4.55474 6.64497 4.51866C6.65195 4.5012 6.66011 4.48374 6.66593 4.46512C7.30899 4.47966 7.92387 4.73163 8.39195 5.17242C8.86002 5.61321 9.14811 6.21158 9.20063 6.85208C9.1968 7.3916 8.98872 7.90967 8.61821 8.30218C8.59899 8.32343 8.58625 8.34974 8.5815 8.37799C8.57675 8.40624 8.5802 8.43526 8.59142 8.46162L9.05736 9.54628L7.81563 8.96904Z" fill="#78849E" stroke="#78849E" stroke-width="0.2"/>
</svg>
