<svg xmlns="http://www.w3.org/2000/svg" width="16.375" height="26.359" viewBox="0 0 16.375 26.359">
  <path id="Icon_open-question-mark" data-name="Icon open-question-mark" d="M8.138,0A8.514,8.514,0,0,0,1.944,2.175,7.189,7.189,0,0,0,0,6.392l3.295.428A3.993,3.993,0,0,1,4.316,4.547c.626-.626,1.614-1.252,3.822-1.252,2.175,0,3.361.527,4.02,1.12A2.754,2.754,0,0,1,13.08,6.59c0,2.735-1.12,3.493-2.768,4.942S6.491,15.09,6.491,18.945v.824H9.786v-.824c0-2.735,1.021-3.493,2.669-4.942s3.921-3.558,3.921-7.413a6.33,6.33,0,0,0-1.944-4.646C13.015.659,10.906,0,8.138,0ZM6.491,23.064v3.295H9.786V23.064Z" fill="#fff"/>
</svg>
