<svg id="Group_6995" data-name="Group 6995" xmlns="http://www.w3.org/2000/svg" width="36" height="36" viewBox="0 0 36 36">
  <g id="avatar" fill="#fff" stroke="#ff5e99" stroke-width="2">
    <rect width="36" height="36" rx="12" stroke="none"/>
    <rect x="1" y="1" width="34" height="34" rx="11" fill="none"/>
  </g>
  <g id="Chat" transform="translate(8.564 6.162)">
    <path id="Path_10488" data-name="Path 10488" d="M277.9,350.161h-4.184a.713.713,0,1,0,0,1.426H277.9a.713.713,0,0,0,0-1.426Z" transform="translate(-262.731 -333.513)" fill="#ff5e99" stroke="#ff5e99" stroke-width="0.5"/>
    <path id="Path_10489" data-name="Path 10489" d="M277.9,232.95h-4.184a.713.713,0,1,0,0,1.426H277.9a.713.713,0,0,0,0-1.426Z" transform="translate(-262.731 -221.876)" fill="#ff5e99" stroke="#ff5e99" stroke-width="0.5"/>
    <path id="Path_10490" data-name="Path 10490" d="M124.83,209.165a.713.713,0,0,0-1,.09l-1.2,1.442-.273-.545a.713.713,0,0,0-1.275.639l.761,1.518a.713.713,0,0,0,.555.389.723.723,0,0,0,.082,0,.713.713,0,0,0,.547-.256l1.9-2.277A.713.713,0,0,0,124.83,209.165Z" transform="translate(-117.955 -199.063)" fill="#ff5e99" stroke="#ff5e99" stroke-width="0.5"/>
    <path id="Path_10491" data-name="Path 10491" d="M124.028,321.032a.713.713,0,0,0-.995.166l-.371.519-.371-.519a.713.713,0,0,0-1.161.829l.655.917-.655.917a.713.713,0,1,0,1.161.829l.371-.519.371.519a.713.713,0,0,0,1.161-.829l-.655-.917.655-.917A.713.713,0,0,0,124.028,321.032Z" transform="translate(-117.576 -305.643)" fill="#ff5e99" stroke="#ff5e99" stroke-width="0.5"/>
    <path id="Path_10492" data-name="Path 10492" d="M73.259,2.446V2.139A2.142,2.142,0,0,0,71.12,0H61.8a2.142,2.142,0,0,0-2.139,2.139v.307A3.575,3.575,0,0,0,57,5.9V20.776a3.57,3.57,0,0,0,3.566,3.566h11.79a3.57,3.57,0,0,0,3.566-3.566V5.9a3.575,3.575,0,0,0-2.662-3.449ZM61.089,2.139a.714.714,0,0,1,.713-.713H71.12a.714.714,0,0,1,.713.713V3.9a.714.714,0,0,1-.713.713H61.8a.714.714,0,0,1-.713-.713ZM74.5,20.776a2.142,2.142,0,0,1-2.139,2.139H60.566a2.142,2.142,0,0,1-2.139-2.139V5.9a2.145,2.145,0,0,1,1.238-1.939A2.141,2.141,0,0,0,61.8,6.038H71.12a2.141,2.141,0,0,0,2.138-2.082A2.145,2.145,0,0,1,74.5,5.9Z" transform="translate(-57 0)" fill="#ff5e99" stroke="#ff5e99" stroke-width="0.5"/>
  </g>
</svg>
