<svg xmlns="http://www.w3.org/2000/svg" width="40" height="40" viewBox="0 0 40 40">
  <g id="Group_6992" data-name="Group 6992" transform="translate(50)">
    <g id="logo" transform="translate(-60)">
      <rect id="placeholder" width="40" height="40" rx="12" transform="translate(10)" fill="#ff4f67"/>
      <g id="instructor" transform="translate(18 11)">
        <path id="Path_786" data-name="Path 786" d="M21.005,50H2.024A2.026,2.026,0,0,0,0,52.024V62.279A2.026,2.026,0,0,0,2.024,64.3h1.3v2.879a1.351,1.351,0,0,0,1.349,1.349H9.8a1.351,1.351,0,0,0,1.349-1.349V64.3h9.857a2.026,2.026,0,0,0,2.024-2.024V52.024A2.026,2.026,0,0,0,21.005,50ZM9.8,67.182H4.671V63.269a2.744,2.744,0,0,1,2.564-2.924A2.744,2.744,0,0,1,9.8,63.269ZM5.391,57.152A1.844,1.844,0,1,1,7.235,59,1.846,1.846,0,0,1,5.391,57.152ZM21.68,62.279a.675.675,0,0,1-.675.675H11.136a4.59,4.59,0,0,0-1.018-2.59,3.888,3.888,0,0,0-.841-.758,3.194,3.194,0,1,0-4.083,0,3.887,3.887,0,0,0-.841.758,4.591,4.591,0,0,0-1.018,2.59H2.024a.675.675,0,0,1-.675-.675V52.024a.675.675,0,0,1,.675-.675H21.005a.675.675,0,0,1,.675.675Z" transform="translate(0 -50)" fill="#f5f5f5"/>
        <path id="Path_787" data-name="Path 787" d="M5.506,0H.869A.791.791,0,0,0,0,.675a.791.791,0,0,0,.869.675H5.506A.791.791,0,0,0,6.375.675.791.791,0,0,0,5.506,0Z" transform="translate(14.245 3.347) rotate(30)" fill="#f5f5f5"/>
        <path id="Path_14568" data-name="Path 14568" d="M5.506,0H.869A.791.791,0,0,0,0,.675a.791.791,0,0,0,.869.675H5.506A.791.791,0,0,0,6.375.675.791.791,0,0,0,5.506,0Z" transform="translate(14.92 3.347) rotate(90)" fill="#f5f5f5"/>
        <path id="Path_789" data-name="Path 789" d="M5.506,0H.869A.791.791,0,0,0,0,.675a.791.791,0,0,0,.869.675H5.506A.791.791,0,0,0,6.375.675.791.791,0,0,0,5.506,0Z" transform="translate(13.571 9.027) rotate(-30)" fill="#f5f5f5"/>
      </g>
    </g>
  </g>
</svg>
