<svg xmlns="http://www.w3.org/2000/svg" width="20.076" height="20.124" viewBox="0 0 20.076 20.124">
  <path id="path" d="M4.327,11.1l1.1,9.147c0,.274.366.549.64.549H19.055c.274,0,.64-.274.64-.549l1.1-9.147a.335.335,0,0,0-.366-.366H4.693c-.274,0-.366.091-.366.366ZM2.5,11.281A2.093,2.093,0,0,1,4.6,8.9H20.427a2.093,2.093,0,0,1,2.1,2.378l-1.1,9.147a2.553,2.553,0,0,1-2.47,2.2H6.065a2.543,2.543,0,0,1-2.47-2.2L2.5,11.281Zm3.659-3.75a.864.864,0,0,1-.915-.915A.864.864,0,0,1,6.157,5.7H18.963a.864.864,0,0,1,.915.915.864.864,0,0,1-.915.915Zm2.287-3.2a.864.864,0,0,1-.915-.915A.864.864,0,0,1,8.444,2.5h8.233a.864.864,0,0,1,.915.915.864.864,0,0,1-.915.915Z" transform="translate(-2.476 -2.5)" fill="#78849E"/>
</svg>
