<svg xmlns="http://www.w3.org/2000/svg" width="28.687" height="30.663" viewBox="0 0 28.687 30.663">
  <g id="test" transform="translate(-16.5 0)">
    <path id="Path_10501" data-name="Path 10501" d="M86.189,145H81.4a.9.9,0,0,0,0,1.8h4.791a.9.9,0,0,0,0-1.8Z" transform="translate(-60.167 -136.316)" fill="#fff"/>
    <path id="Path_10502" data-name="Path 10502" d="M86.189,225H81.4a.9.9,0,1,0,0,1.8h4.791a.9.9,0,1,0,0-1.8Z" transform="translate(-60.167 -211.525)" fill="#fff"/>
    <path id="Path_10503" data-name="Path 10503" d="M86.189,305H81.4a.9.9,0,1,0,0,1.8h4.791a.9.9,0,1,0,0-1.8Z" transform="translate(-60.167 -286.734)" fill="#fff"/>
    <path id="Path_10504" data-name="Path 10504" d="M38.9,16.465v-8.2a4.466,4.466,0,0,0-1.286-3.146L33.968,1.348l-.005-.005A4.521,4.521,0,0,0,30.759,0H19.195A2.7,2.7,0,0,0,16.5,2.695v23.3a2.7,2.7,0,0,0,2.695,2.695H33.079A7.141,7.141,0,1,0,38.9,16.465ZM18.3,25.992V2.695a.9.9,0,0,1,.9-.9H30.759a2.713,2.713,0,0,1,1.92.8l3.644,3.769.005.005A2.679,2.679,0,0,1,37.1,8.263v8.2A7.124,7.124,0,0,0,31.713,26.89H19.195a.9.9,0,0,1-.9-.9ZM38,28.866a5.33,5.33,0,1,1,5.39-5.33A5.336,5.336,0,0,1,38,28.866Z" fill="#fff"/>
    <path id="Path_10505" data-name="Path 10505" d="M334.324,354.21a.9.9,0,0,0-1.265.115l-1.516,1.819-.344-.688a.9.9,0,0,0-1.607.8l.958,1.916a.9.9,0,0,0,.7.491.911.911,0,0,0,.1.006.9.9,0,0,0,.69-.323l2.4-2.875A.9.9,0,0,0,334.324,354.21Z" transform="translate(-294.252 -332.801)" fill="#fff"/>
    <path id="Path_10506" data-name="Path 10506" d="M241.4,146.8h.958a.9.9,0,0,0,0-1.8H241.4a.9.9,0,0,0,0,1.8Z" transform="translate(-210.585 -136.316)" fill="#fff"/>
    <path id="Path_10507" data-name="Path 10507" d="M243.255,225.9a.9.9,0,0,0-.9-.9H241.4a.9.9,0,0,0,0,1.8h.958A.9.9,0,0,0,243.255,225.9Z" transform="translate(-210.585 -211.525)" fill="#fff"/>
  </g>
</svg>
