<svg id="clock_time" data-name="clock/time" xmlns="http://www.w3.org/2000/svg" width="31" height="31.006" viewBox="0 0 31 31.006">
  <path id="clock" d="M82.4,362.666a15.5,15.5,0,1,1,15.5-15.542A15.548,15.548,0,0,1,82.4,362.666Zm0-27.913a12.41,12.41,0,1,0,12.4,12.372A12.386,12.386,0,0,0,82.4,334.753Zm6.82,14.266h-6.2l-1.24.039s-1.24-.494-1.24-1.2v-8.738a1.241,1.241,0,1,1,2.48,0v7.423h6.2a1.214,1.214,0,0,1,1.279,1.2A1.277,1.277,0,0,1,89.22,349.019Z" transform="translate(-66.9 -331.66)" fill="currentColor" fill-rule="evenodd"/>
</svg>
