<svg width="374" height="254" viewBox="0 0 374 254" fill="none" xmlns="http://www.w3.org/2000/svg">
<path d="M91.9418 89.6228C91.9418 89.6228 88.6676 86.9533 83.534 94.8804C78.3946 102.813 76.2781 107.471 76.2781 107.471C76.2781 107.471 74.9684 109.108 73.875 107.838C72.7875 106.567 71.4661 103.146 69.3496 103.524C67.157 103.915 66.2157 106.211 66.2624 109.738C66.3092 113.258 66.1338 120.982 66.1163 121.681C66.0987 122.369 65.6017 123.331 64.7247 122.584C63.8418 121.838 59.0065 115.223 55.9953 117.7C52.9842 120.177 54.7383 129.97 54.9078 131.042C55.0774 132.115 54.826 132.54 54.3056 132.75C53.7794 132.96 52.3644 130.582 50.9144 128.757C49.4644 126.933 47.4589 125.068 45.8394 126.641C44.2198 128.215 43.027 135.303 48.6517 147.596L51.6336 153.121L57.9482 153.413C71.4954 153.22 77.4182 149.111 78.1491 146.978C78.8858 144.85 76.3366 143.836 74.0621 143.312C71.7877 142.787 69.028 142.525 68.9929 141.965C68.9578 141.406 69.2326 140.998 70.2851 140.689C71.3316 140.386 80.9614 137.774 81.9145 133.997C82.8675 130.226 74.8047 128.699 73.7522 128.227C72.6998 127.749 73.3605 126.898 73.9744 126.583C74.6 126.268 81.5227 122.8 84.7385 121.337C87.9543 119.874 89.6323 118.038 89.0476 115.899C88.4863 113.836 84.8204 114.109 83.2008 113.666C81.5812 113.229 82.505 111.347 82.505 111.347C82.505 111.347 85.826 107.447 90.8134 99.421C95.8066 91.4006 91.8775 89.5645 91.8775 89.5645" fill="#FFA015"/>
<path d="M50.511 154.142C54.2004 148.266 60.9359 137.926 66.6658 129.02C72.3958 120.119 77.5819 112.052 81.3005 106.194C83.154 103.268 84.6566 100.896 85.6974 99.252C86.2119 98.436 86.6153 97.8007 86.896 97.3635C87.0305 97.1537 87.1357 96.9905 87.2117 96.8739C87.2819 96.7632 87.3228 96.7107 87.3228 96.7107C87.3228 96.7107 87.2936 96.769 87.2292 96.8856C87.1591 97.0021 87.0597 97.1712 86.9311 97.381C86.6621 97.824 86.2704 98.4651 85.7675 99.287C84.756 100.942 83.2709 103.326 81.4233 106.264C77.7339 112.139 72.5712 120.218 66.8354 129.119C61.0996 138.025 54.3524 148.348 50.6279 154.206" fill="#1C1C36"/>
<path d="M71.0042 108.386C71.0042 108.386 71.0568 108.537 71.1212 108.823C71.1855 109.108 71.2615 109.522 71.355 110.035C71.5363 111.061 71.7526 112.483 71.9573 114.063C72.156 115.619 72.3373 117.024 72.4718 118.096C72.5361 118.58 72.5946 118.988 72.6355 119.32C72.6764 119.606 72.694 119.769 72.6764 119.769C72.6647 119.769 72.6238 119.618 72.5595 119.332C72.4952 119.046 72.4192 118.633 72.3315 118.12C72.1619 117.094 71.9631 115.666 71.7585 114.086C71.548 112.536 71.3609 111.131 71.2147 110.053C71.1445 109.569 71.0919 109.161 71.0451 108.829C71.0101 108.537 70.9925 108.38 71.0042 108.374V108.386Z" fill="#1C1C36"/>
<path d="M73.2377 119.944C73.226 119.891 76.1553 119.32 79.7745 118.673C83.3937 118.026 86.3347 117.542 86.3464 117.595C86.3581 117.647 83.4288 118.219 79.8096 118.866C76.1904 119.513 73.2494 119.996 73.2377 119.944Z" fill="#1C1C36"/>
<path d="M63.8184 133.222C63.8184 133.222 63.988 133.222 64.2803 133.245C64.6195 133.28 65.0346 133.327 65.5374 133.379C66.5957 133.49 68.0633 133.636 69.6828 133.741C71.3083 133.846 72.7758 133.892 73.84 133.916C74.3428 133.927 74.7638 133.939 75.1029 133.945C75.4011 133.951 75.5648 133.962 75.5648 133.98C75.5648 133.991 75.4011 134.009 75.1029 134.02C74.8047 134.032 74.372 134.05 73.84 134.055C72.77 134.067 71.2966 134.044 69.6711 133.939C68.0457 133.834 66.5782 133.671 65.5199 133.525C64.9937 133.449 64.5668 133.385 64.2686 133.333C63.9763 133.28 63.8126 133.245 63.8126 133.234L63.8184 133.222Z" fill="#1C1C36"/>
<path d="M59.4859 123.208C59.4859 123.208 59.5736 123.336 59.6964 123.581C59.8309 123.867 60.0004 124.217 60.1992 124.63C60.6144 125.522 61.1815 126.758 61.7954 128.122C62.4094 129.492 62.9531 130.733 63.339 131.637C63.5144 132.062 63.6664 132.418 63.7892 132.709C63.8886 132.966 63.9412 133.111 63.9295 133.111C63.9178 133.111 63.8418 132.983 63.719 132.738C63.5846 132.453 63.415 132.103 63.2162 131.689C62.8011 130.797 62.2339 129.562 61.62 128.192C61.0061 126.822 60.4623 125.581 60.0765 124.677C59.901 124.252 59.749 123.896 59.6262 123.605C59.5269 123.348 59.4742 123.202 59.4859 123.202V123.208Z" fill="#1C1C36"/>
<path d="M49.6749 133.875C49.6749 133.875 49.7801 134.038 49.938 134.359C50.1076 134.708 50.3239 135.157 50.587 135.699C51.1308 136.836 51.8675 138.415 52.6685 140.158C53.4695 141.907 54.1887 143.492 54.6973 144.646C54.9371 145.2 55.1359 145.66 55.2937 146.016C55.4282 146.342 55.4984 146.523 55.4867 146.529C55.475 146.529 55.3814 146.366 55.2236 146.045C55.054 145.695 54.8377 145.247 54.5746 144.705C54.0308 143.568 53.2941 141.988 52.4931 140.24C51.6921 138.491 50.9729 136.906 50.4642 135.752C50.2245 135.198 50.0257 134.737 49.8678 134.382C49.7334 134.055 49.6632 133.875 49.6749 133.869V133.875Z" fill="#1C1C36"/>
<path d="M55.4341 146.191C55.4341 146.191 55.6445 146.185 56.0246 146.208C56.4397 146.238 56.9718 146.272 57.6208 146.319C58.9714 146.412 60.8365 146.529 62.8946 146.605C64.9586 146.681 66.8237 146.704 68.1802 146.71C68.8292 146.71 69.3671 146.715 69.7822 146.715C70.1623 146.715 70.3728 146.727 70.3728 146.739C70.3728 146.75 70.1623 146.768 69.7881 146.791C69.408 146.809 68.8643 146.832 68.186 146.844C66.8296 146.873 64.9586 146.873 62.8946 146.797C60.8307 146.721 58.9656 146.581 57.6149 146.453C56.9425 146.389 56.3988 146.331 56.0187 146.278C55.6445 146.232 55.4341 146.197 55.4399 146.185L55.4341 146.191Z" fill="#1C1C36"/>
<path d="M40.4193 111.854C40.4193 111.854 40.4895 112.856 40.2556 114.727C40.0042 116.581 39.4078 119.356 37.6304 122.439L37.5719 122.334H37.6947L37.6362 122.439C33.8241 129.177 28.1058 139.29 21.2592 151.39L21.1539 151.571L21.0428 151.396C15.8333 143.108 9.9455 133.747 3.73029 123.867C3.43795 123.401 3.14561 122.94 2.87665 122.515L2.74218 122.305H2.99359L2.87665 122.509C1.54942 120.241 0.678235 117.753 0.268955 115.235C0.0760088 113.976 -0.0350814 112.705 0.0116934 111.452C0.0467745 110.822 0.0818557 110.199 0.11109 109.581C0.20464 108.963 0.298189 108.351 0.391739 107.739C1.33893 102.878 3.9934 98.6168 7.46059 95.6907C9.2088 94.2394 11.1558 93.1319 13.1554 92.3567L13.9097 92.0769L14.2839 91.937L14.6698 91.8321C15.1843 91.698 15.693 91.564 16.1958 91.4357C17.2248 91.2784 18.2363 91.0685 19.2479 91.0685C20.2535 90.9753 21.2475 91.0685 22.2181 91.121C22.7033 91.1618 23.1769 91.2609 23.6447 91.3308C23.8786 91.3716 24.1124 91.4066 24.3463 91.4416C24.5802 91.4882 24.8024 91.5581 25.0304 91.6164C25.4806 91.7388 25.9308 91.8613 26.3693 91.9778C26.7961 92.141 27.223 92.3042 27.6381 92.4616C27.8486 92.5432 28.0591 92.6132 28.2579 92.7064C28.4567 92.8055 28.6554 92.9046 28.8484 93.0037C29.2401 93.2019 29.626 93.3942 30.0061 93.5866C32.9704 95.306 35.1981 97.5501 36.73 99.7767C38.2735 102.009 39.133 104.207 39.6592 106.025C39.8814 106.952 40.1094 107.762 40.1738 108.497C40.2731 109.219 40.3725 109.831 40.3725 110.333C40.3901 110.828 40.4018 111.201 40.4135 111.469C40.4193 111.726 40.4135 111.854 40.4135 111.854C40.4135 111.854 40.3959 111.726 40.3842 111.469C40.3667 111.207 40.3492 110.828 40.3199 110.338C40.3199 109.837 40.2088 109.231 40.0977 108.508C40.0217 107.78 39.7879 106.975 39.5598 106.054C39.0161 104.247 38.1507 102.067 36.6072 99.8641C35.0753 97.6667 32.8535 95.4518 29.9125 93.7556C29.5325 93.5691 29.1524 93.3767 28.7607 93.1786C28.5677 93.0795 28.3689 92.9862 28.176 92.8871C27.9772 92.7997 27.7667 92.7297 27.5621 92.6481C27.147 92.4908 26.726 92.3334 26.305 92.176C25.8665 92.0594 25.4221 91.9429 24.9778 91.8204C24.7556 91.7622 24.5334 91.6922 24.2995 91.6456C24.0715 91.6106 23.8376 91.5698 23.6038 91.5348C23.136 91.4707 22.6683 91.3658 22.1888 91.3308C21.2299 91.2842 20.2477 91.1909 19.2537 91.2842C18.2539 91.2842 17.2541 91.4999 16.2367 91.6572C15.7397 91.7855 15.2369 91.9195 14.7282 92.0536L14.3482 92.1527L13.9798 92.2926L13.2373 92.5724C11.261 93.3418 9.33743 94.4434 7.61845 95.8773C4.19804 98.7683 1.5845 102.983 0.654848 107.785C0.561298 108.386 0.473595 108.992 0.380045 109.604C0.344964 110.216 0.31573 110.834 0.280649 111.452C0.233874 112.693 0.344964 113.946 0.537911 115.188C0.941344 117.677 1.80668 120.131 3.11637 122.363L3.23916 122.567H2.99944L3.11637 122.357C3.38533 122.783 3.67767 123.249 3.97002 123.71C10.1735 133.595 16.0555 142.962 21.2592 151.256H21.0428C27.9304 139.179 33.6779 129.084 37.5134 122.357L37.5777 122.462H37.4491L37.5134 122.357C39.2967 119.303 39.9165 116.552 40.1913 114.704C40.3258 113.777 40.3667 113.055 40.3959 112.571C40.4018 112.332 40.4135 112.151 40.4135 112.023C40.4135 111.901 40.4252 111.836 40.4252 111.836L40.4193 111.854Z" fill="#FFA015"/>
<path d="M33.0698 111.621C33.0698 111.621 33.0581 111.551 33.0464 111.417C33.0347 111.265 33.0231 111.067 33.0055 110.811C32.9997 110.676 32.988 110.531 32.9763 110.368C32.9587 110.204 32.9237 110.029 32.8944 109.837C32.8301 109.452 32.7775 109.009 32.6255 108.526C32.3974 107.541 31.9355 106.381 31.2105 105.151C30.4797 103.927 29.4214 102.644 27.9831 101.554C26.5506 100.476 24.7381 99.561 22.6449 99.1821C20.5692 98.8207 18.2247 98.879 15.9853 99.7242C15.4182 99.9049 14.8803 100.185 14.3307 100.447C13.8103 100.762 13.2607 101.047 12.7754 101.438C12.2609 101.788 11.8107 102.231 11.3371 102.65C10.9102 103.117 10.46 103.577 10.0917 104.113C9.33744 105.157 8.67674 106.311 8.27331 107.587C7.85818 108.852 7.63015 110.198 7.61261 111.568C7.63015 112.938 7.84649 114.284 8.25577 115.555C8.64751 116.832 9.3082 117.992 10.0566 119.041C10.425 119.577 10.8693 120.037 11.2961 120.51C11.7639 120.935 12.2141 121.378 12.7286 121.734C13.2139 122.13 13.7577 122.416 14.278 122.736C14.8276 122.998 15.3597 123.284 15.9268 123.465C18.1603 124.316 20.5049 124.386 22.5806 124.036C24.6737 123.675 26.4921 122.765 27.9304 121.693C29.3746 120.614 30.4387 119.338 31.1754 118.114C31.9063 116.884 32.3741 115.724 32.6079 114.745C32.7599 114.261 32.8184 113.818 32.8827 113.433C32.912 113.241 32.947 113.066 32.9704 112.903C32.9821 112.74 32.9938 112.594 32.9997 112.46C33.0172 112.204 33.0347 112.005 33.0464 111.854C33.0581 111.72 33.064 111.65 33.0698 111.65C33.0757 111.65 33.0698 111.72 33.0698 111.854C33.0698 112.005 33.0581 112.204 33.0523 112.46C33.0523 112.594 33.0406 112.746 33.0347 112.909C33.0231 113.072 32.988 113.253 32.9646 113.445C32.912 113.83 32.8593 114.284 32.7132 114.774C32.4968 115.771 32.0408 116.948 31.3099 118.196C30.5732 119.443 29.5091 120.743 28.0474 121.85C26.5915 122.946 24.7497 123.884 22.6215 124.263C20.5049 124.631 18.1194 124.566 15.8391 123.704C15.2603 123.517 14.7165 123.232 14.1552 122.963C13.6232 122.643 13.0677 122.346 12.5707 121.949C12.0445 121.588 11.5885 121.139 11.1032 120.702C10.6705 120.224 10.2145 119.752 9.84027 119.204C9.07433 118.137 8.40194 116.954 7.99851 115.648C7.57753 114.354 7.35535 112.979 7.34366 111.58C7.36705 110.181 7.59507 108.805 8.02189 107.511C8.43117 106.212 9.10941 105.028 9.88119 103.968C10.2612 103.425 10.7173 102.953 11.1558 102.481C11.6411 102.05 12.103 101.601 12.6292 101.246C13.1262 100.849 13.6875 100.552 14.2196 100.237C14.7809 99.969 15.3305 99.6892 15.9093 99.5085C18.1954 98.6575 20.5809 98.6051 22.6975 98.9839C24.8258 99.3745 26.6617 100.319 28.1117 101.42C29.5676 102.534 30.6258 103.845 31.3567 105.092C32.0817 106.346 32.5319 107.529 32.7424 108.52C32.8827 109.009 32.9353 109.458 32.988 109.849C33.0114 110.041 33.0464 110.222 33.0581 110.385C33.0581 110.548 33.0698 110.7 33.0757 110.834C33.0815 111.09 33.0874 111.294 33.0932 111.44C33.0932 111.574 33.0932 111.644 33.0932 111.644L33.0698 111.621Z" fill="#FFA015"/>
<path d="M20.0196 117.56L12.5824 112.384L14.395 109.802L19.3823 113.27L25.8314 105.093L28.3222 107.045L20.0196 117.56Z" fill="#FFA015"/>
<path fill-rule="evenodd" clip-rule="evenodd" d="M209.561 12.4376C211.759 12.7115 213.888 13.2769 215.887 14.1046L220.536 10.2168L228.522 16.2787L226.008 21.7811C227.335 23.4831 228.452 25.3774 229.306 27.4175L235.346 27.9479L236.696 37.8626L231.013 39.9785C230.738 42.1701 230.165 44.2917 229.341 46.2852L233.241 50.919L227.16 58.8811L221.641 56.3748C219.933 57.6979 218.033 58.8112 215.987 59.6622L215.455 65.6833L205.503 67.0298L203.381 61.3642C201.183 61.0902 199.054 60.5249 197.055 59.6972L192.401 63.585L184.414 57.523L186.934 52.0207C185.606 50.3187 184.49 48.4243 183.636 46.3843L177.596 45.8539L176.246 35.9391L181.929 33.8233C182.204 31.6317 182.771 29.51 183.601 27.5166L179.701 22.8827L185.782 14.9206L191.301 17.4328C193.009 16.1097 194.909 14.9964 196.955 14.1454L197.487 8.12428L207.433 6.77783L209.555 12.4434L209.561 12.4376ZM206.579 26.1118C199.738 26.3566 194.868 32.7275 196.458 39.3664C197.633 44.2801 202.223 47.7599 207.281 47.5733C214.122 47.3227 218.98 40.9577 217.396 34.3246C216.226 29.4109 211.637 25.9311 206.579 26.1118Z" fill="#FFA015"/>
<path fill-rule="evenodd" clip-rule="evenodd" d="M137.612 53.4614C139.038 53.6421 140.418 54.0093 141.716 54.5455L144.733 52.0217L149.919 55.9561L148.288 59.5291C149.153 60.6366 149.872 61.8606 150.428 63.1896L154.351 63.5335L155.228 69.9685L151.539 71.344C151.358 72.7663 150.989 74.1418 150.451 75.4417L152.983 78.4493L149.036 83.6194L145.452 81.9932C144.341 82.8558 143.114 83.5728 141.78 84.1265L141.435 88.0376L134.975 88.9119L133.595 85.234C132.168 85.0533 130.788 84.6861 129.49 84.1498L126.473 86.6737L121.287 82.7393L122.924 79.1662C122.059 78.0588 121.34 76.8347 120.784 75.5058L116.861 75.1619L115.984 68.7269L119.673 67.3513C119.855 65.9291 120.223 64.5535 120.761 63.2537L118.229 60.2461L122.176 55.076L125.76 56.7022C126.871 55.8395 128.099 55.1226 129.432 54.5689L129.777 50.6578L136.232 49.7834L137.612 53.4614ZM135.676 62.3386C131.233 62.496 128.075 66.6344 129.104 70.9419C129.865 74.1302 132.846 76.3918 136.132 76.2693C140.57 76.1061 143.727 71.9735 142.698 67.6661C141.938 64.4778 138.962 62.2162 135.676 62.3328V62.3386Z" fill="#FFA015"/>
<path d="M191.794 100.517C191.794 100.517 192.753 100.867 194.127 102.056C195.472 103.227 197.214 105.43 197.747 108.689C197.998 110.297 197.951 112.139 197.349 113.975C196.741 115.794 195.665 117.642 194.01 119.07C193.204 119.804 192.256 120.416 191.221 120.888C190.192 121.378 189.058 121.716 187.883 121.862C185.532 122.206 182.995 121.739 180.773 120.55C178.575 119.326 176.815 117.438 175.844 115.275C175.336 114.209 175.014 113.072 174.874 111.947C174.716 110.822 174.727 109.691 174.915 108.625C175.23 106.468 176.218 104.574 177.429 103.081C178.657 101.584 180.194 100.558 181.685 99.9048C184.726 98.5992 187.532 98.8789 189.239 99.3861C190.982 99.9048 191.794 100.523 191.794 100.523C191.759 100.593 190.9 100.062 189.175 99.6309C187.479 99.2112 184.767 99.0188 181.872 100.324C180.452 100.977 178.996 101.98 177.844 103.42C176.71 104.853 175.786 106.666 175.505 108.718C175.336 109.732 175.336 110.799 175.488 111.865C175.622 112.932 175.938 114.005 176.423 115.013C177.353 117.053 179.013 118.825 181.089 119.985C183.188 121.104 185.579 121.553 187.801 121.232C188.918 121.098 189.988 120.783 190.964 120.329C191.946 119.886 192.853 119.309 193.619 118.621C195.203 117.286 196.238 115.532 196.84 113.806C197.442 112.064 197.507 110.303 197.296 108.759C196.846 105.623 195.221 103.443 193.958 102.242C192.666 101.024 191.754 100.587 191.794 100.517Z" fill="#FFA015"/>
<path d="M203.856 91.4415C203.856 91.4415 203.88 91.3132 203.944 91.0568C204.02 90.7712 204.12 90.3923 204.254 89.8969C204.546 88.836 204.967 87.3031 205.511 85.3154L205.564 85.432C203.19 84.1555 200.074 82.471 196.302 80.4368L196.507 80.4018C195.238 81.8473 193.823 83.4502 192.309 85.1697L192.233 85.2572L192.122 85.228C190.04 84.7267 187.754 84.447 185.345 84.5111H185.217L185.152 84.4003C184.188 82.675 183.135 80.804 182.048 78.8572L182.317 78.9679C179.136 79.9005 175.762 80.8914 172.213 81.9289L172.395 81.6666C172.517 83.6251 172.658 85.7876 172.792 88.0025L172.804 88.1657L172.664 88.2473C170.857 89.3373 169.009 90.7712 167.372 92.4906L167.255 92.6131L167.091 92.5664C165.197 92.0302 163.104 91.4356 160.976 90.8295L161.309 90.6896C159.724 93.5806 158.011 96.7048 156.257 99.899L156.193 99.5318C157.678 100.837 159.309 102.277 160.958 103.729L161.098 103.851L161.052 104.032C160.543 106.089 160.262 108.409 160.321 110.752V110.939L160.157 111.032C158.415 112 156.514 113.049 154.591 114.115L154.743 113.748C155.678 116.936 156.678 120.358 157.696 123.826L157.368 123.593C159.374 123.471 161.543 123.336 163.724 123.208L163.922 123.197L164.022 123.366C165.133 125.207 166.571 127.032 168.261 128.635C168.302 128.781 168.173 128.314 168.349 128.961V128.979V129.002L168.325 129.049L168.296 129.148L168.243 129.34L168.132 129.725L167.91 130.494L167.472 132.021C167.179 133.041 166.887 134.05 166.6 135.064L166.442 134.691C169.565 136.399 172.64 138.083 175.675 139.744L175.283 139.814C176.704 138.217 178.107 136.632 179.498 135.064L179.627 134.918L179.814 134.965C182.042 135.513 184.316 135.758 186.556 135.705H186.749L186.842 135.868C187.883 137.745 188.912 139.593 189.923 141.417L189.567 141.272C193.016 140.269 196.39 139.296 199.676 138.346L199.46 138.649C199.331 136.498 199.202 134.388 199.08 132.313L199.068 132.138L199.22 132.05C201.208 130.861 202.991 129.422 204.523 127.825L204.64 127.702L204.804 127.749C206.903 128.349 208.932 128.938 210.919 129.503L210.61 129.632C212.399 126.397 214.088 123.342 215.696 120.44L215.749 120.743C214.077 119.262 212.51 117.869 210.996 116.528L210.89 116.435L210.925 116.301C211.51 113.952 211.726 111.696 211.685 109.557V109.429L211.797 109.365C213.825 108.252 215.65 107.249 217.374 106.305L217.281 106.526C216.158 102.615 215.199 99.287 214.381 96.4367L214.527 96.5416C211.989 96.6815 209.908 96.7923 208.171 96.8855H208.107L208.078 96.8331C206.891 94.8513 205.78 93.534 205.026 92.6888C204.652 92.2866 204.365 91.9777 204.155 91.7562C203.95 91.5464 203.862 91.4473 203.868 91.4415C203.874 91.4415 203.985 91.5347 204.19 91.7154C204.394 91.9078 204.704 92.1992 205.096 92.6131C205.88 93.4407 207.026 94.7464 208.247 96.7223L208.154 96.6699C209.885 96.5533 211.966 96.4134 214.504 96.2444H214.621L214.656 96.3493C215.503 99.1937 216.486 102.516 217.649 106.416L217.69 106.561L217.556 106.637C215.837 107.593 214.018 108.607 212.001 109.732L212.112 109.54C212.171 111.714 211.966 114.01 211.381 116.406L211.311 116.179C212.831 117.514 214.404 118.895 216.088 120.37L216.234 120.498L216.141 120.673C214.545 123.587 212.867 126.647 211.095 129.888L210.99 130.075L210.779 130.016C208.791 129.451 206.757 128.874 204.658 128.279L204.938 128.203C203.377 129.841 201.559 131.316 199.53 132.54L199.67 132.272C199.799 134.347 199.933 136.457 200.068 138.608L200.085 138.847L199.857 138.911C196.571 139.867 193.204 140.852 189.754 141.86L189.52 141.93L189.397 141.715C188.38 139.89 187.351 138.042 186.304 136.171L186.585 136.335C184.293 136.393 181.96 136.148 179.674 135.589L179.99 135.489C178.598 137.057 177.195 138.643 175.774 140.24L175.604 140.432L175.376 140.31C172.342 138.649 169.261 136.97 166.138 135.262L165.91 135.14L165.981 134.889C166.273 133.881 166.559 132.866 166.852 131.846L167.29 130.319L167.512 129.55L167.624 129.165L167.676 128.973L167.705 128.88L167.717 128.833V128.81L167.729 128.798C167.904 129.439 167.776 128.973 167.816 129.113C166.086 127.475 164.612 125.598 163.472 123.71L163.77 123.867C161.59 124.001 159.42 124.129 157.415 124.252L157.158 124.269L157.088 124.024C156.076 120.556 155.076 117.135 154.147 113.946L154.076 113.702L154.299 113.579C156.222 112.518 158.122 111.469 159.865 110.507L159.701 110.787C159.643 108.386 159.935 106.008 160.461 103.903L160.555 104.206C158.906 102.749 157.28 101.31 155.795 99.9981L155.614 99.8407L155.731 99.6309C157.491 96.4367 159.21 93.3242 160.806 90.4331L160.917 90.2291L161.139 90.2932C163.268 90.9052 165.355 91.5056 167.255 92.0477L166.975 92.1234C168.653 90.369 170.541 88.9118 172.395 87.8043L172.266 88.0491C172.137 85.8342 172.009 83.6776 171.892 81.7133L171.88 81.5093L172.073 81.451C175.622 80.4309 179.002 79.4517 182.188 78.5366L182.363 78.4841L182.451 78.6473C183.527 80.6 184.568 82.471 185.521 84.208L185.328 84.0972C187.778 84.0448 190.099 84.342 192.204 84.8666L192.017 84.9249C193.543 83.2171 194.969 81.6258 196.25 80.192L196.337 80.0929L196.454 80.157C200.202 82.232 203.301 83.9515 205.657 85.2572L205.733 85.298L205.71 85.3737C205.125 87.3322 204.675 88.836 204.359 89.8794C204.207 90.3748 204.09 90.7595 203.997 91.0451C203.915 91.3074 203.868 91.4415 203.856 91.4415Z" fill="#FFA015"/>
<path d="M228.612 101.98L219.433 65.6083L256.765 64.9905L228.612 101.98Z" fill="#FFA015"/>
<path d="M245.499 72.0478L232.677 88.894L301.017 140.587L313.839 123.741L245.499 72.0478Z" fill="#FFA015"/>
<path d="M295.395 194.96L300.137 205.68C300.137 205.68 290.799 214.085 291.483 216.148L312.661 207.731L305.96 190.729L295.395 194.96Z" fill="#E8505B"/>
<path opacity="0.5" d="M295.395 194.96L300.137 205.68C300.137 205.68 290.799 214.085 291.483 216.148L312.661 207.731L305.96 190.729L295.395 194.96Z" fill="black"/>
<path d="M312.661 207.731L311.918 206.047L291.893 214.749C291.893 214.749 291.115 215.53 291.483 216.154L312.661 207.737V207.731Z" fill="#263238"/>
<path d="M332.686 210.144L338.621 220.252C338.621 220.252 330.306 229.659 331.219 231.635L351.297 220.864L342.696 204.735L332.686 210.139V210.144Z" fill="#E8505B"/>
<path opacity="0.5" d="M332.686 210.144L338.621 220.252C338.621 220.252 330.306 229.659 331.219 231.635L351.297 220.864L342.696 204.735L332.686 210.139V210.144Z" fill="black"/>
<path d="M351.297 220.869L350.367 219.278L331.464 230.201C331.464 230.201 330.78 231.07 331.219 231.641L351.297 220.869Z" fill="#263238"/>
<path d="M306.779 68.3306L293.764 69.339L293.331 62.0763C293.331 62.0763 288.08 62.0006 287.297 56.8887C286.513 51.7769 285.742 39.8979 285.742 39.8979C291.325 36.5172 298.312 36.4181 303.996 39.6298L304.838 40.1077L306.773 68.3306H306.779Z" fill="#FFBE9D"/>
<path d="M293.313 62.0064C293.313 62.0064 296.599 61.814 299.739 59.1736C299.739 59.1736 298.599 63.1954 293.413 63.4519L293.313 62.0122V62.0064Z" fill="#EB996E"/>
<path d="M304.96 45.5051C305.042 45.4526 308.34 43.9721 308.726 47.4869C309.106 51.0016 305.487 50.6577 305.469 50.5586C305.451 50.4595 304.96 45.5051 304.96 45.5051Z" fill="#FFBE9D"/>
<path d="M306.399 49.1073C306.399 49.1073 306.463 49.1423 306.574 49.1772C306.679 49.2122 306.861 49.2239 307.036 49.1364C307.393 48.9616 307.644 48.3379 307.591 47.7026C307.568 47.382 307.463 47.0847 307.322 46.8457C307.188 46.6009 307.001 46.4377 306.808 46.4261C306.615 46.4028 306.498 46.531 306.463 46.6359C306.428 46.7408 306.457 46.8049 306.44 46.8166C306.428 46.8283 306.358 46.7641 306.369 46.6184C306.375 46.5485 306.41 46.461 306.486 46.3853C306.562 46.3095 306.685 46.257 306.814 46.257C307.089 46.2454 307.358 46.4669 307.515 46.735C307.685 46.9973 307.808 47.3295 307.837 47.6909C307.89 48.402 307.597 49.1015 307.106 49.3055C306.866 49.3987 306.65 49.3463 306.533 49.2705C306.416 49.1947 306.387 49.119 306.399 49.1131V49.1073Z" fill="#EB996E"/>
<path d="M287.964 47.9474C288.004 48.3379 288.367 48.6235 288.776 48.5885C289.185 48.5536 289.478 48.2097 289.437 47.825C289.396 47.4344 289.033 47.1488 288.624 47.1838C288.215 47.2188 287.923 47.5627 287.958 47.9474H287.964Z" fill="#263238"/>
<path d="M287.735 46.9683C287.841 47.0499 288.338 46.5602 289.127 46.4553C289.916 46.3329 290.548 46.6593 290.624 46.5486C290.659 46.502 290.542 46.3387 290.267 46.193C289.992 46.0473 289.542 45.9249 289.051 46.0007C288.56 46.0706 288.174 46.3096 287.958 46.5311C287.741 46.7526 287.683 46.9333 287.735 46.9683Z" fill="#263238"/>
<path d="M295.64 47.0614C295.681 47.4519 296.044 47.7375 296.453 47.7025C296.862 47.6676 297.155 47.3237 297.114 46.939C297.073 46.5485 296.71 46.2628 296.301 46.2978C295.892 46.3328 295.6 46.6767 295.635 47.0614H295.64Z" fill="#263238"/>
<path d="M295.512 46.0239C295.617 46.1055 296.114 45.6159 296.903 45.511C297.693 45.3886 298.324 45.715 298.4 45.6042C298.435 45.5576 298.318 45.3944 298.044 45.2487C297.769 45.103 297.319 44.9806 296.827 45.0563C296.336 45.1263 295.95 45.3653 295.734 45.5868C295.518 45.8082 295.459 45.9889 295.512 46.0297V46.0239Z" fill="#263238"/>
<path d="M293.471 52.2606C293.471 52.2139 292.968 52.2023 292.156 52.2081C291.951 52.2139 291.752 52.2081 291.7 52.0682C291.629 51.9283 291.688 51.701 291.752 51.4562C291.875 50.9433 291.998 50.407 292.132 49.8416C292.653 47.5451 292.998 45.6741 292.904 45.6508C292.811 45.6333 292.314 47.4752 291.793 49.7659C291.67 50.3313 291.553 50.8675 291.437 51.3863C291.39 51.6252 291.296 51.905 291.442 52.1906C291.518 52.3305 291.682 52.4238 291.817 52.4354C291.951 52.4588 292.062 52.4413 292.167 52.4354C292.974 52.3655 293.471 52.3014 293.465 52.2547L293.471 52.2606Z" fill="#263238"/>
<path d="M295.868 52.4822C295.74 52.4938 295.857 53.3448 295.208 54.0559C294.559 54.767 293.635 54.7962 293.647 54.9186C293.647 54.9711 293.875 55.0585 294.261 55.0119C294.641 54.9711 295.173 54.7729 295.57 54.3416C295.968 53.9044 296.085 53.3856 296.067 53.0301C296.05 52.6687 295.927 52.4705 295.868 52.4822Z" fill="#263238"/>
<path d="M294.875 42.9695C294.98 43.1735 295.757 42.9579 296.699 42.9404C297.64 42.9054 298.424 43.0686 298.523 42.8588C298.564 42.7597 298.406 42.579 298.073 42.41C297.745 42.2468 297.237 42.1127 296.675 42.1302C296.108 42.1477 295.617 42.3051 295.295 42.4916C294.974 42.6781 294.828 42.8705 294.875 42.9637V42.9695Z" fill="#263238"/>
<path d="M287.7 44.6483C287.864 44.8057 288.384 44.5434 289.033 44.4443C289.682 44.3219 290.255 44.3976 290.361 44.1878C290.402 44.0887 290.291 43.9197 290.027 43.7856C289.764 43.6516 289.349 43.57 288.899 43.6457C288.455 43.7215 288.086 43.9372 287.882 44.1528C287.677 44.3685 287.624 44.5609 287.7 44.6425V44.6483Z" fill="#263238"/>
<path d="M282.789 37.0185C282.643 36.389 282.789 35.6779 283.251 35.229C283.719 34.7861 284.526 34.6928 285.011 35.1125C284.648 34.2906 285.21 33.2065 286.093 33.0258C286.923 32.8567 287.724 33.3872 288.566 33.4921C289.384 33.597 290.209 33.2939 290.922 32.88C291.641 32.4662 292.29 31.9474 293.021 31.5569C294.541 30.7467 296.389 30.566 298.043 31.0556C299.698 31.5511 301.136 32.711 301.967 34.2207C303.043 33.7136 304.399 34.1041 305.223 34.9551C306.048 35.8061 306.405 37.0301 306.428 38.2134C306.445 39.0119 306.323 39.8046 306.165 40.5915C306.176 40.6556 306.188 40.7197 306.2 40.7897C306.545 43.6108 306.691 46.9623 305.487 47.1489C303.393 47.4753 303.335 43.4593 303.335 43.4593C300.616 42.8297 301.037 38.8429 300.306 38.3474C299.581 37.852 298.038 36.6862 293.033 40.1893C291.086 41.5532 288.297 41.9088 286.73 41.7747C286.683 41.7747 286.636 41.7747 286.589 41.7689C286.578 41.7689 286.566 41.7689 286.56 41.7689C286.543 41.7689 286.531 41.7573 286.513 41.7573C286.011 41.699 285.52 41.5766 285.046 41.3667C284.514 41.1278 284.011 40.7722 283.725 40.2651C283.444 39.758 283.426 39.0702 283.795 38.6214C283.327 38.1784 282.929 37.6305 282.789 37.0068V37.0185Z" fill="#263238"/>
<path d="M293.313 66.5294L293.898 86.8601L306.58 59.6281L306.264 57.1101L293.313 66.5294Z" fill="#FFA015"/>
<path d="M301.733 127.294C301.271 127.446 274.855 154.077 275.445 158.863C276.036 163.648 294.839 199.07 294.839 199.07L308.252 192.477L295.67 161.422L295.833 159.492L311.211 146.931L310.392 126.729L301.727 127.3L301.733 127.294Z" fill="#263238"/>
<path d="M307.428 132.546C307.732 133.012 312.31 174.845 313.532 177.014C314.76 179.176 333.13 214.895 333.13 214.895L346.771 209.416L330.119 170.159L332.02 133.006L330.991 122.515L310.398 126.723L307.428 132.54V132.546Z" fill="#263238"/>
<path d="M313.298 176.273C313.298 176.273 313.257 176.133 313.21 175.854C313.158 175.55 313.093 175.148 313.011 174.647C312.848 173.563 312.62 172.053 312.333 170.194C311.784 166.405 311.041 161.223 310.211 155.494C309.416 149.758 308.702 144.571 308.176 140.782C307.931 138.923 307.732 137.401 307.591 136.317C307.533 135.81 307.486 135.408 307.445 135.099C307.416 134.819 307.404 134.673 307.416 134.673C307.428 134.673 307.457 134.813 307.504 135.093C307.556 135.396 307.621 135.798 307.703 136.3C307.866 137.384 308.094 138.893 308.381 140.753C308.93 144.541 309.673 149.723 310.503 155.453C311.298 161.183 312.012 166.37 312.538 170.165C312.783 172.024 312.982 173.545 313.123 174.63C313.181 175.137 313.228 175.539 313.269 175.848C313.298 176.128 313.31 176.273 313.298 176.273Z" fill="#455A64"/>
<path d="M329.774 168.958C329.85 168.982 329.5 170.462 328.979 172.275C328.465 174.082 327.979 175.533 327.903 175.51C327.827 175.486 328.178 174.006 328.699 172.193C329.213 170.386 329.698 168.935 329.774 168.958Z" fill="#455A64"/>
<path d="M331.838 178.436C331.838 178.436 331.488 178.086 331.096 177.404C330.698 176.722 330.26 175.714 330.008 174.531C329.757 173.347 329.745 172.246 329.827 171.465C329.909 170.678 330.055 170.212 330.084 170.217C330.184 170.223 329.786 172.152 330.295 174.467C330.774 176.786 331.932 178.389 331.844 178.43L331.838 178.436Z" fill="#455A64"/>
<path d="M291.273 156.91C291.302 156.84 292.401 157.301 293.477 158.28C294.559 159.253 295.114 160.308 295.05 160.343C294.974 160.39 294.325 159.44 293.278 158.501C292.243 157.551 291.232 156.992 291.273 156.916V156.91Z" fill="#455A64"/>
<path d="M293.343 155.675C293.395 155.622 294.068 156.211 294.641 157.143C295.219 158.076 295.453 158.939 295.377 158.962C295.295 158.991 294.951 158.198 294.389 157.295C293.834 156.391 293.278 155.727 293.337 155.669L293.343 155.675Z" fill="#455A64"/>
<path d="M295.167 94.6416L298.546 111.341L301.294 134.644C301.294 134.644 312.626 133.065 317.449 131.543C323.051 129.777 335.235 128.274 335.235 128.274L333.183 130.302C337.545 129.084 340.316 124.939 340.316 124.939C332.803 117.992 326.389 103.699 326.389 103.699L320.677 75.4183C320.677 75.4183 319.811 71.4256 319.285 69.6537C318.759 67.8817 310.088 62.1579 308.884 61.4351L308.129 61.0795L307.89 58.8122L306.995 58.2817L297.605 66.7859C295.781 68.4413 294.617 70.697 294.337 73.1393C294.044 75.7156 293.781 79.411 293.927 83.7767C294.038 87.0875 295.167 94.6474 295.167 94.6474V94.6416Z" fill="#E8505B"/>
<path d="M301.616 65.7134C301.616 65.7134 296.652 68.3655 295.792 70.6154C294.933 72.8653 297.488 97.5326 297.488 97.5326L279.673 97.8649L279.614 108.45C279.614 108.45 307.913 110.676 309.012 109.155C310.503 107.092 312.228 87.8161 312.228 87.8161L312.871 73.9436C312.871 73.9436 311.228 63.3644 301.604 65.7134H301.616Z" fill="#E8505B"/>
<g opacity="0.3">
<path d="M298.546 111.341C300.944 112.116 303.165 112.239 305.68 112.005C308.188 111.772 310.743 110.403 311.69 108.077C312.415 106.293 312.111 104.288 312.222 102.365C312.316 100.698 312.731 99.0656 312.982 97.4102C313.234 95.7607 312.374 92.7239 311.83 91.1443C311.83 91.1443 311.193 102.598 309.398 107.407C309.153 108.059 308.843 108.724 308.299 109.161C307.662 109.674 306.785 109.715 305.972 109.802C303.697 110.041 298.213 109.645 298.213 109.645" fill="black"/>
</g>
<path d="M312.848 75.4416C312.848 75.4416 312.848 75.5291 312.848 75.6923C312.842 75.8729 312.83 76.1178 312.819 76.4267C312.789 77.0912 312.742 78.0412 312.684 79.2595C312.62 80.4952 312.538 81.999 312.45 83.7418C312.345 85.4904 312.286 87.4838 312.07 89.6755C311.877 91.8671 311.649 94.2685 311.374 96.8448C311.088 99.4212 310.784 102.172 310.293 105.046C310.152 105.763 310.041 106.491 309.802 107.22C309.556 107.943 309.129 108.631 308.515 109.138C307.907 109.633 307.106 109.983 306.299 109.925C305.516 109.942 304.726 109.925 303.931 109.913C300.751 109.837 297.465 109.674 294.097 109.487C289.039 109.208 284.169 108.893 279.614 108.578L279.486 108.566V108.438C279.509 104.679 279.532 101.141 279.55 97.8707V97.7483H279.673C286.788 97.5967 292.705 97.4685 296.868 97.3811C298.932 97.3461 300.552 97.317 301.68 97.2995C302.224 97.2995 302.645 97.2878 302.949 97.2878C303.236 97.2878 303.382 97.2995 303.382 97.2995C303.382 97.2995 303.236 97.317 302.949 97.3286C302.651 97.3403 302.224 97.3578 301.686 97.3811C300.563 97.4161 298.938 97.4685 296.88 97.5326C292.723 97.6492 286.8 97.8124 279.69 98.0048L279.813 97.8824C279.801 101.146 279.79 104.69 279.778 108.45L279.649 108.31C284.204 108.619 289.074 108.928 294.132 109.208C297.494 109.388 300.78 109.552 303.955 109.633C304.75 109.645 305.533 109.662 306.311 109.651C307.071 109.709 307.79 109.383 308.357 108.928C308.925 108.462 309.328 107.82 309.562 107.133C309.79 106.445 309.907 105.705 310.047 104.999C310.544 102.137 310.86 99.3862 311.158 96.8157C311.445 94.2452 311.684 91.8438 311.889 89.6521C312.117 87.4605 312.187 85.4729 312.31 83.7243C312.421 81.9815 312.514 80.4777 312.596 79.2478C312.678 78.0296 312.742 77.0795 312.789 76.4209C312.813 76.1061 312.83 75.8613 312.848 75.6864C312.859 75.5232 312.871 75.4358 312.877 75.4358L312.848 75.4416Z" fill="#263238"/>
<path d="M283.117 108.293C283.035 108.293 282.982 105.996 283 103.163C283.017 100.33 283.093 98.0339 283.175 98.0339C283.257 98.0339 283.309 100.33 283.292 103.163C283.274 105.996 283.198 108.293 283.117 108.293Z" fill="#263238"/>
<path d="M281.228 99.6369C281.193 99.6194 281.374 99.4212 281.707 99.532C281.865 99.5786 282.052 99.7535 282.07 100.004C282.087 100.237 281.976 100.511 281.707 100.639C281.438 100.756 281.158 100.669 280.988 100.505C280.807 100.342 280.778 100.103 280.813 99.9458C280.895 99.6136 281.129 99.5378 281.134 99.5728C281.164 99.6078 281.023 99.7302 281.017 99.9692C281.017 100.086 281.058 100.22 281.164 100.301C281.269 100.389 281.444 100.43 281.579 100.366C281.707 100.307 281.795 100.144 281.789 100.016C281.789 99.8817 281.707 99.7768 281.614 99.7185C281.409 99.5961 281.234 99.6719 281.216 99.6369H281.228Z" fill="#263238"/>
<path d="M320.759 77.8371C320.759 77.8371 330.026 89.9202 331.154 93.2076C332.283 96.5008 331.412 101.228 329.523 103.484C327.634 105.739 326.114 104.824 326.114 104.824L320.759 77.8313V77.8371Z" fill="#E8505B"/>
<path d="M325.781 103.863C325.793 103.944 324.752 104.189 323.46 104.411C322.162 104.632 321.104 104.749 321.086 104.667C321.068 104.586 322.109 104.341 323.407 104.119C324.705 103.898 325.763 103.781 325.781 103.863Z" fill="#263238"/>
<path d="M327.564 112.769C327.564 112.769 327.675 112.99 327.816 113.404C327.956 113.818 328.167 114.419 328.441 115.153C328.991 116.622 329.833 118.627 330.932 120.749C332.037 122.876 333.177 124.724 334.043 126.029C334.475 126.682 334.832 127.213 335.083 127.574C335.329 127.935 335.463 128.145 335.446 128.157C335.428 128.169 335.27 127.988 334.99 127.644C334.709 127.3 334.329 126.793 333.873 126.146C332.961 124.864 331.78 123.022 330.669 120.883C329.564 118.743 328.745 116.715 328.243 115.217C327.991 114.471 327.81 113.859 327.699 113.428C327.588 113.002 327.535 112.763 327.558 112.757L327.564 112.769Z" fill="#263238"/>
<g opacity="0.3">
<path d="M328.196 114.197C329.663 116.808 331.172 119.466 333.411 121.46C334.2 122.165 335.083 122.789 335.686 123.657C336.288 124.526 336.551 125.744 335.978 126.63C335.773 126.945 335.417 127.213 335.054 127.125C334.797 127.067 334.61 126.845 334.452 126.636C331.663 123.057 329.564 118.942 328.301 114.588" fill="black"/>
</g>
<g opacity="0.3">
<path d="M326.974 104.784C328.243 103.874 328.687 102.143 328.5 100.599C328.313 99.0539 327.605 97.6258 326.962 96.2036C324.968 91.7971 323.624 87.816 322.448 83.0073L321.542 79.6558L326.126 103.565L326.974 104.784Z" fill="black"/>
</g>
<path d="M304.031 64.6408C303.978 64.5709 304.808 63.8656 305.756 62.9213C306.709 61.9771 307.416 61.1494 307.48 61.2018C307.545 61.2485 306.931 62.1694 305.96 63.1311C304.995 64.0929 304.072 64.7049 304.025 64.6466L304.031 64.6408Z" fill="#263238"/>
<path d="M303.089 66.6867C303.107 66.7334 302.557 66.9024 301.733 67.3046C300.914 67.7068 299.838 68.3887 298.856 69.3738C297.88 70.3647 297.202 71.443 296.81 72.2649C296.412 73.0867 296.254 73.6346 296.208 73.623C296.19 73.623 296.208 73.4773 296.272 73.2208C296.325 72.9643 296.447 72.6088 296.623 72.1774C296.974 71.3148 297.64 70.184 298.646 69.164C299.657 68.1498 300.786 67.4736 301.645 67.1122C302.072 66.9315 302.434 66.8091 302.686 66.7509C302.937 66.6867 303.078 66.6634 303.083 66.6809L303.089 66.6867Z" fill="#263238"/>
<path d="M327.979 107.185C327.979 107.185 327.921 107.109 327.833 106.952C327.734 106.765 327.611 106.538 327.465 106.258C327.132 105.611 326.681 104.737 326.132 103.659V103.647L326.126 103.635C325.547 100.989 324.729 97.1247 323.834 92.8347C323.01 88.7896 322.267 85.1233 321.717 82.4246C321.466 81.1189 321.261 80.0522 321.109 79.2654C321.051 78.9156 320.998 78.63 320.957 78.4027C320.928 78.2045 320.916 78.0996 320.922 78.0996C320.934 78.0996 320.963 78.1987 321.016 78.391C321.068 78.6184 321.139 78.8981 321.22 79.242C321.396 80.0231 321.63 81.0898 321.922 82.3837C322.495 85.0825 323.267 88.7371 324.12 92.7764C325.009 97.0722 325.799 100.937 326.319 103.6V103.577C326.828 104.673 327.254 105.565 327.564 106.218C327.693 106.503 327.804 106.742 327.886 106.934C327.956 107.098 327.991 107.185 327.979 107.191V107.185Z" fill="#263238"/>
<path d="M297.184 97.5268C297.184 97.5268 297.114 97.2179 297.05 96.6525C296.979 96.0347 296.892 95.2303 296.786 94.2569C296.576 92.2343 296.313 89.4307 296.032 86.3356C295.757 83.2405 295.524 80.4369 295.366 78.4085C295.295 77.4351 295.243 76.6249 295.196 76.0012C295.161 75.43 295.155 75.1152 295.173 75.1152C295.19 75.1152 295.243 75.4242 295.307 75.9895C295.377 76.6074 295.465 77.4118 295.57 78.3852C295.781 80.4136 296.044 83.2114 296.325 86.3065C296.599 89.4015 296.833 92.1993 296.991 94.2336C297.061 95.207 297.114 96.0172 297.161 96.6409C297.196 97.2121 297.202 97.5268 297.184 97.5268Z" fill="#263238"/>
<path d="M279.901 99.1066C279.901 99.1066 276.059 96.2039 275.124 96.0232C274.405 95.8891 270.119 95.959 268.149 95.9998C267.388 96.0173 266.722 96.6119 266.734 97.3638C266.734 97.4104 266.734 97.457 266.745 97.5037C266.897 98.3022 267.681 98.4771 267.681 98.4771C267.681 98.4771 266.658 98.7685 266.64 99.8818C266.623 100.989 267.973 101.228 267.973 101.228C267.973 101.228 267.891 101.287 267.78 101.397C267.043 102.132 267.418 103.391 268.435 103.618L269.043 103.758C269.043 103.758 268.219 104.102 268.23 104.86C268.254 106.323 271.546 106.602 271.546 106.602C271.546 106.602 279.69 107.885 279.866 107.826C280.041 107.768 279.901 99.1066 279.901 99.1066Z" fill="#FFBE9D"/>
<path d="M268.903 94.2745C268.938 94.7583 269.055 95.7783 269.873 96.2446L274.411 96.0697C274.411 96.0697 271.031 94.9098 270.552 94.3328C270.382 94.1287 270.148 93.8839 269.903 93.7032C269.47 93.3885 268.862 93.7499 268.903 94.2803V94.2745Z" fill="#FFBE9D"/>
<path d="M272.276 96.0231C272.276 96.0989 271.353 96.1922 270.207 96.1689C269.066 96.1455 268.143 96.1047 268.137 96.0231C268.137 95.9474 269.061 95.8541 270.212 95.8774C271.353 95.9007 272.276 95.9415 272.282 96.0231H272.276Z" fill="#EB996E"/>
<path d="M271.253 98.5529C271.259 98.6287 270.458 98.7744 269.464 98.7336C268.464 98.6986 267.681 98.5004 267.692 98.4246C267.704 98.343 268.499 98.4072 269.476 98.4421C270.452 98.4771 271.247 98.4713 271.253 98.5529Z" fill="#EB996E"/>
<path d="M273.563 98.2265C273.633 98.2673 273.545 98.5121 273.288 98.6811C273.031 98.8443 272.773 98.8269 272.762 98.7453C272.75 98.6637 272.931 98.5646 273.13 98.4363C273.335 98.3081 273.498 98.1857 273.563 98.2265Z" fill="#EB996E"/>
<path d="M271.756 101.415C271.75 101.496 270.873 101.531 269.797 101.496C268.722 101.461 267.85 101.368 267.85 101.287C267.85 101.205 268.727 101.17 269.809 101.205C270.891 101.24 271.762 101.333 271.756 101.415Z" fill="#EB996E"/>
<path d="M274.352 100.208C274.387 100.197 274.457 100.29 274.481 100.465C274.504 100.64 274.463 100.902 274.288 101.123C274.112 101.345 273.867 101.45 273.691 101.467C273.51 101.491 273.405 101.444 273.411 101.403C273.411 101.322 273.802 101.275 274.06 100.943C274.323 100.616 274.282 100.22 274.358 100.202L274.352 100.208Z" fill="#EB996E"/>
<path d="M272.44 104.224C272.428 104.306 271.639 104.271 270.674 104.154C269.71 104.038 268.938 103.874 268.944 103.793C268.955 103.711 269.745 103.746 270.709 103.863C271.674 103.979 272.446 104.142 272.44 104.224Z" fill="#EB996E"/>
<path d="M274.972 102.796C275.007 102.796 275.065 102.889 275.06 103.064C275.06 103.239 274.978 103.472 274.814 103.676C274.481 104.078 274.106 104.224 274.066 104.166C274.007 104.096 274.305 103.834 274.58 103.496C274.861 103.157 274.89 102.802 274.966 102.79L274.972 102.796Z" fill="#EB996E"/>
<path d="M331.64 130.547C333.242 130.407 334.756 129.457 335.575 128.075C335.668 127.918 335.75 127.708 335.627 127.568C335.545 127.475 335.405 127.469 335.282 127.463C334.013 127.452 332.745 127.667 331.552 128.099C331.417 128.145 331.265 128.215 331.219 128.349C331.184 128.448 331.207 128.553 331.236 128.658C331.394 129.27 331.558 129.882 331.716 130.494" fill="#E8505B"/>
<g opacity="0.4">
<path d="M331.64 130.547C333.242 130.407 334.756 129.457 335.575 128.075C335.668 127.918 335.75 127.708 335.627 127.568C335.545 127.475 335.405 127.469 335.282 127.463C334.013 127.452 332.745 127.667 331.552 128.099C331.417 128.145 331.265 128.215 331.219 128.349C331.184 128.448 331.207 128.553 331.236 128.658C331.394 129.27 331.558 129.882 331.716 130.494" fill="black"/>
</g>
<path d="M293.313 66.5295C293.313 66.5295 291.442 72.7838 291.957 72.4283C292.471 72.0727 293.588 71.0876 293.588 71.0876L293.308 66.5295H293.313Z" fill="#FFA015"/>
<path d="M293.425 69.4148L292.401 71.8512C292.302 72.1077 292.238 72.37 292.203 72.6381C292.121 73.3201 292.021 74.5733 292.431 74.6549C292.992 74.7773 293.524 74.206 293.524 74.206L293.425 69.4148Z" fill="#263238"/>
<path d="M325.114 69.7994C325.114 69.7994 315.116 65.9116 309.585 69.3447C304.048 72.7779 303.043 78.2569 299.745 78.2569C293.319 78.2569 293.524 73.7338 293.524 73.7338L292.156 74.1476C292.126 75.0744 290.665 81.7134 297.441 82.5411C304.218 83.3629 307.065 74.1593 313.158 74.1476C319.25 74.136 323.875 77.4351 323.875 77.4351L328.254 74.6722L325.114 69.7994Z" fill="#263238"/>
<path d="M299.464 82.4303C299.464 82.4303 301.955 81.1596 303.323 78.0179C304.879 74.4449 308.211 70.3706 310.994 69.3447C313.777 68.3188 320.215 67.6077 324.664 70.493L327.512 74.3283L323.811 76.7181C323.811 76.7181 320.887 75.1152 317.291 74.1185C312.696 72.8361 309.901 74.2817 307.229 76.8055C307.065 76.9629 306.907 77.1203 306.779 77.266C306.106 78.0295 304.241 79.7957 302.546 81.0022C301.236 81.929 300.055 82.4361 299.464 82.4244V82.4303Z" fill="#455A64"/>
<path d="M92.4914 28.1705C86.5627 29.0798 82.2185 24.1195 80.8328 19.6955C79.5523 15.6153 78.9443 11.372 77.1493 7.49002C74.6293 2.06927 67.9756 -0.437096 62.0059 0.0641781C56.0363 0.565452 50.014 3.54978 44.7343 6.3709L46.1902 39.0236C46.1902 39.0236 57.6968 26.8124 63.2221 26.5851C72.4484 26.212 71.9456 41.3318 80.903 43.5642C80.903 43.5642 93.462 46.9566 101.952 36.0276C107.342 29.0914 107.816 20.663 107.816 20.663C107.816 20.663 103.688 26.4626 92.4856 28.1821L92.4914 28.1705Z" fill="#E8505B"/>
<path d="M44.4887 0.950195C44.5706 0.950195 46.1843 35.6197 48.0904 78.3853C50.0023 121.163 51.4816 155.832 51.3997 155.838C51.3179 155.838 49.7041 121.174 47.7981 78.397C45.892 35.6313 44.4127 0.956024 44.4887 0.950195Z" fill="#263238"/>
<g opacity="0.2">
<path d="M76.1553 17.4397C76.9739 20.494 78.8098 24.5741 80.5171 27.2378C82.2244 29.9016 84.8145 32.1457 87.9192 32.7927C88.4805 32.9092 89.0652 32.9734 89.5797 33.224C90.1001 33.4688 90.5503 33.9526 90.5678 34.5238C90.5912 35.3806 89.7025 35.9402 88.9365 36.3191C87.8432 36.8553 86.7264 37.4032 85.5278 37.6247C84.3292 37.8462 83.3879 37.9744 82.5635 37.0768C81.8677 36.3191 80.9439 35.4098 80.4177 34.518C77.7106 29.9191 76.3717 23.3442 76.1495 18.145" fill="black"/>
</g>
<path d="M84.1772 38.4057C84.1772 38.4057 84.0778 38.359 83.9083 38.2541C83.7387 38.1434 83.499 37.9743 83.2008 37.7354C82.6103 37.2516 81.8034 36.4822 81.0141 35.3689C80.213 34.2614 79.453 32.8101 78.8273 31.1256C78.1959 29.441 77.6814 27.5292 77.2078 25.5125C76.2664 21.4731 75.8513 17.7369 75.6993 15.0265C75.6233 13.6742 75.6116 12.5726 75.6116 11.8149C75.6174 11.4651 75.6233 11.1737 75.6291 10.9405C75.635 10.7424 75.6466 10.6375 75.6583 10.6375C75.67 10.6375 75.6817 10.7424 75.6876 10.9405C75.6993 11.1737 75.711 11.4593 75.7227 11.809C75.7577 12.5668 75.7987 13.6568 75.9039 15.009C76.1086 17.7019 76.5529 21.4207 77.4943 25.4425C77.9678 27.4476 78.4707 29.3536 79.0846 31.0265C79.6927 32.6993 80.4235 34.139 81.1895 35.2465C81.9496 36.3598 82.7213 37.1408 83.2826 37.6479C83.8498 38.1492 84.1948 38.3824 84.1831 38.4057H84.1772Z" fill="#263238"/>
<path d="M8.74104 162.727L87.0714 175.51V162.727H8.74104Z" fill="#1C1C36"/>
<path d="M100.005 191.609L178.335 204.391V191.609H100.005Z" fill="#1C1C36"/>
<path d="M190.637 219.231L268.967 232.014V219.231H190.637Z" fill="#1C1C36"/>
<path d="M281.152 241.218L359.482 254V241.218H281.152Z" fill="#1C1C36"/>
<path d="M87.0714 153.151H8.74104V162.727H87.0714V153.151Z" fill="#E8505B"/>
<g opacity="0.3">
<path d="M87.0772 153.151H62.6315V162.727H87.0772V153.151Z" fill="black"/>
</g>
<path d="M178.335 182.032H100.005V191.609H178.335V182.032Z" fill="#E8505B"/>
<g opacity="0.3">
<path d="M178.335 182.032H153.889V191.609H178.335V182.032Z" fill="black"/>
</g>
<path d="M268.967 209.655H190.637V219.231H268.967V209.655Z" fill="#E8505B"/>
<g opacity="0.3">
<path d="M268.973 209.655H244.527V219.231H268.973V209.655Z" fill="black"/>
</g>
<path d="M359.599 231.641H281.269V241.218H359.599V231.641Z" fill="#E8505B"/>
<g opacity="0.3">
<path d="M359.605 231.641H335.159V241.218H359.605V231.641Z" fill="black"/>
</g>
<path d="M311.328 196.791C311.328 197.962 312.281 198.912 313.456 198.912C314.631 198.912 315.584 197.962 315.584 196.791C315.584 195.619 314.631 194.669 313.456 194.669C312.281 194.669 311.328 195.619 311.328 196.791Z" fill="#FFA015"/>
</svg>
