<svg xmlns="http://www.w3.org/2000/svg" width="36.432" height="25.781" viewBox="0 0 36.432 25.781"><path d="M106.84,78.115c-.015-.431-.037-.863-.07-1.293-.14-1.826-.344-3.917-1.55-5.378-1.033-1.25-2.632-1.533-4.15-1.7-1.923-.217-3.854-.349-5.787-.423-3.916-.15-7.835-.063-11.751.024-2.012.045-4.025.089-6.031.249-2.463.2-5,.557-6.144,3.019-1.03,2.209-.9,5.015-.915,7.392-.012,2.132-.019,4.264.067,6.393.111,2.764.275,6.365,3.259,7.577a17.189,17.189,0,0,0,5.217.9c1.8.117,3.611.1,5.417.13,3.788.056,7.574-.074,11.36-.149a25.714,25.714,0,0,0,7.846-.941c2.172-.741,2.739-3.1,3.033-5.137a42.488,42.488,0,0,0,.214-6.131C106.852,81.136,106.892,79.624,106.84,78.115Z" transform="translate(-70.435 -69.236)" fill="red"/><path d="M126.291,98.139,116.858,92.6v11.084Z" transform="translate(-102.334 -85.289)" fill="#fff"/></svg>